<?xml version="1.0" encoding="UTF-8"?>
<svg id="Layer_1" data-name="Layer 1" xmlns="http://www.w3.org/2000/svg" viewBox="0 0 311.81 263.14">
  <defs>
    <style>
      .cls-1 {
        fill: #fff;
        opacity: .9;
      }

      .cls-1, .cls-2 {
        stroke-width: 0px;
      }

      .cls-2 {
        fill: #231f20;
      }
    </style>
  </defs>
  <rect class="cls-1" width="311.81" height="263.14" rx="15.27" ry="15.27"/>
  <g>
    <path class="cls-2" d="m61.47,123.53l-3.98-14.66h2.41l2.65,11.14h.08l2.8-11.14h2.12l2.79,11.14h.07l2.65-11.14h2.41l-3.99,14.66h-2l-2.96-11.06h-.07l-2.96,11.06h-2.01Z"/>
    <path class="cls-2" d="m77.18,108.09h2.17v5.66h.07c.4-.74,1.43-1.73,3.28-1.73,2.32,0,4.02,1.47,4.02,4.23v7.27h-2.17v-6.86c0-1.85-1.07-2.73-2.59-2.73-1.79,0-2.61,1.27-2.61,2.78v6.81h-2.17v-15.44Z"/>
    <path class="cls-2" d="m90.88,108.17c.73,0,1.32.55,1.32,1.28s-.59,1.28-1.32,1.28-1.32-.55-1.32-1.28.59-1.28,1.32-1.28Zm-1.08,4.04h2.17v11.32h-2.17v-11.32Z"/>
    <path class="cls-2" d="m94.74,117.29c0-3.08,1.79-5.27,4.81-5.27,2.71,0,4.34,1.76,4.44,3.64h-2.08c-.21-.96-1.06-1.8-2.22-1.8-1.74,0-2.76,1.32-2.76,3.49v1.01c0,2.15,1.07,3.52,2.77,3.52,1.35,0,2.11-.75,2.29-1.64h2.07c-.32,2.14-1.88,3.49-4.5,3.49-3.05,0-4.81-2.27-4.81-5.38v-1.05Z"/>
    <path class="cls-2" d="m106.54,108.09h2.17v5.66h.08c.4-.74,1.43-1.73,3.28-1.73,2.32,0,4.02,1.47,4.02,4.23v7.27h-2.17v-6.86c0-1.85-1.07-2.73-2.59-2.73-1.79,0-2.61,1.27-2.61,2.78v6.81h-2.17v-15.44Z"/>
    <path class="cls-2" d="m125.69,121.98h-.08v5.44h-2.17v-15.21h2.11v1.64h.08c.63-1.07,1.79-1.82,3.32-1.82,2.54,0,4.38,1.94,4.38,5.32v1.02c0,3.34-1.81,5.33-4.45,5.33-1.46,0-2.58-.7-3.19-1.72Zm5.45-3.75v-.81c0-2.27-1.01-3.59-2.71-3.59s-2.84,1.42-2.84,3.58v.82c0,2.22,1.1,3.64,2.88,3.64,1.59,0,2.66-1.27,2.66-3.64Z"/>
    <path class="cls-2" d="m136.05,108.09h2.17v5.66h.07c.4-.74,1.43-1.73,3.28-1.73,2.32,0,4.02,1.47,4.02,4.23v7.27h-2.17v-6.86c0-1.85-1.07-2.73-2.59-2.73-1.79,0-2.61,1.27-2.61,2.78v6.81h-2.17v-15.44Z"/>
    <path class="cls-2" d="m158.03,117.36v.96c0,3.15-1.73,5.4-4.95,5.4s-4.98-2.26-4.98-5.4v-.95c0-3.06,1.75-5.36,4.98-5.36s4.95,2.29,4.95,5.35Zm-7.76.05v.87c0,2.14.96,3.63,2.79,3.63s2.78-1.48,2.78-3.63v-.87c0-2.17-.95-3.62-2.78-3.62s-2.79,1.46-2.79,3.62Z"/>
    <path class="cls-2" d="m161.47,109.42h2.14v2.79h2.22v1.76h-2.22v6.27c0,1.29.46,1.63,1.78,1.63.19,0,.37-.01.52-.02v1.69c-.18.03-.61.08-1.05.08-2.73,0-3.41-1.01-3.41-3.27v-6.38h-1.55v-1.76h1.57v-2.79Z"/>
    <path class="cls-2" d="m177.85,117.36v.96c0,3.15-1.73,5.4-4.95,5.4s-4.98-2.26-4.98-5.4v-.95c0-3.06,1.75-5.36,4.98-5.36s4.95,2.29,4.95,5.35Zm-7.76.05v.87c0,2.14.96,3.63,2.79,3.63s2.78-1.48,2.78-3.63v-.87c0-2.17-.95-3.62-2.78-3.62s-2.79,1.46-2.79,3.62Z"/>
    <path class="cls-2" d="m186.11,108.17c.73,0,1.32.55,1.32,1.28s-.59,1.28-1.32,1.28-1.32-.55-1.32-1.28.59-1.28,1.32-1.28Zm-1.09,4.04h2.17v11.32h-2.17v-11.32Z"/>
    <path class="cls-2" d="m194.3,112.02c2.68,0,4.12,1.46,4.12,3.42h-1.98c-.06-.82-.58-1.75-2.21-1.75-1.26,0-2.15.57-2.15,1.59,0,1.22,1.55,1.46,2.84,1.7,2.12.38,3.81,1,3.81,3.17,0,2.28-1.82,3.59-4.6,3.59-2.63,0-4.35-1.26-4.35-3.29h2.12c.14.97.98,1.61,2.38,1.61,1.6,0,2.33-.75,2.33-1.64,0-1.21-1.3-1.44-2.84-1.74-2.08-.43-3.79-1.12-3.79-3.18,0-2.43,2.06-3.47,4.31-3.47Z"/>
    <path class="cls-2" d="m205.62,112.21h2.14v1.46h.11c.36-.78,1.34-1.64,2.9-1.64,1.76,0,2.81.73,3.23,1.86h.1c.41-.97,1.6-1.86,3.46-1.86,2.38,0,3.77,1.48,3.77,3.79v7.71h-2.16v-7.21c0-1.44-.8-2.41-2.29-2.41s-2.34,1.03-2.34,2.56v7.06h-2.13v-7.06c0-1.7-.89-2.56-2.31-2.56-1.29,0-2.32.87-2.32,2.54v7.08h-2.16v-11.32Z"/>
    <path class="cls-2" d="m233.88,117.36v.96c0,3.15-1.73,5.4-4.95,5.4s-4.98-2.26-4.98-5.4v-.95c0-3.06,1.75-5.36,4.98-5.36s4.95,2.29,4.95,5.35Zm-7.76.05v.87c0,2.14.96,3.63,2.79,3.63s2.78-1.48,2.78-3.63v-.87c0-2.17-.95-3.62-2.78-3.62s-2.79,1.46-2.79,3.62Z"/>
    <path class="cls-2" d="m236.56,112.21h2.17v1.44h.08c.3-.69,1.15-1.61,2.74-1.61.28,0,.54.02.76.05v1.94c-.21-.04-.6-.06-.97-.06-1.96,0-2.59,1.2-2.59,2.73v6.83h-2.19v-11.32Z"/>
    <path class="cls-2" d="m243.81,118.39v-1.19c0-3.1,1.8-5.18,4.79-5.18s4.77,2.13,4.77,5.29v1.07h-7.4v.24c0,2.01,1.05,3.36,2.76,3.36,1.25,0,2.08-.62,2.41-1.63h2.09c-.38,1.85-1.86,3.38-4.54,3.38-3,0-4.88-2.04-4.88-5.34Zm7.42-1.6v-.03c0-1.69-1.04-3.01-2.62-3.01s-2.64,1.33-2.64,3.01v.03h5.26Z"/>
    <path class="cls-2" d="m106.64,150.09c-2.25,0-3.8-1.28-3.8-3.48s1.46-3.46,4.15-3.47h2.61v-.91c0-.84-.54-1.31-1.41-1.31s-1.43.52-1.46,1.24h-3.47c.05-1.86,1.17-3.9,4.97-3.9,2.81,0,5.03,1.14,5.03,4.06v7.62h-3.49v-1.36h-.17c-.35.76-1.26,1.53-2.95,1.53Zm2.95-3.89v-1.11h-1.55c-.98,0-1.55.48-1.55,1.2,0,.83.71,1.26,1.46,1.26.86,0,1.63-.54,1.63-1.35Z"/>
    <path class="cls-2" d="m115.04,144.56v-.85c0-3.66,2.4-5.5,5.42-5.5,3.24,0,5.37,2.11,5.37,5.53v1.18h-7.17v.42c0,1.33.87,2.09,1.93,2.09.97,0,1.72-.47,1.82-1.29h3.36c-.13,1.79-1.61,4-5.18,4-3.28,0-5.56-1.85-5.56-5.59Zm7.24-1.71c0-1.18-.7-2.03-1.78-2.03s-1.83.85-1.83,2.03h3.61Z"/>
    <path class="cls-2" d="m132.34,138.21c2.76,0,4.68,1.22,4.68,3.57h-3.23c-.09-.59-.48-1.18-1.5-1.18-.88,0-1.36.45-1.36,1.02,0,1.02,1.78,1.12,3.08,1.35,2.09.38,3.41,1.25,3.41,3.27,0,2.42-1.86,3.91-5.21,3.91s-5.05-1.53-5.05-3.57h3.61c.06.68.67,1.16,1.61,1.16s1.45-.48,1.45-1.02c0-.93-1.47-1.02-2.83-1.3-1.99-.42-3.6-1.3-3.6-3.47,0-2.66,2.32-3.74,4.94-3.74Z"/>
    <path class="cls-2" d="m140.13,135.79h3.6v2.63h2.18v2.8h-2.18v4.69c0,.95.5,1.29,1.48,1.29.29,0,.6-.01.72-.02v2.66c-.28.04-.87.1-1.61.1-2.99,0-4.29-.88-4.29-3.31v-5.41h-1.7v-2.8h1.79v-2.63Z"/>
    <path class="cls-2" d="m148.03,134.49h3.73v5.76h.17c.3-.83,1.3-2,3.24-2,2.28,0,3.83,1.43,3.83,4.24v7.43h-3.73v-6.53c0-1.61-.89-2.06-1.74-2.06-1.01,0-1.78.74-1.78,2.09v6.5h-3.73v-15.44Z"/>
    <path class="cls-2" d="m160.77,144.56v-.85c0-3.66,2.4-5.5,5.42-5.5,3.24,0,5.37,2.11,5.37,5.53v1.18h-7.17v.42c0,1.33.87,2.09,1.93,2.09.97,0,1.72-.47,1.82-1.29h3.36c-.13,1.79-1.61,4-5.18,4-3.28,0-5.56-1.85-5.56-5.59Zm7.24-1.71c0-1.18-.7-2.03-1.78-2.03s-1.83.85-1.83,2.03h3.61Z"/>
    <path class="cls-2" d="m174.51,135.79h3.6v2.63h2.18v2.8h-2.18v4.69c0,.95.5,1.29,1.48,1.29.29,0,.6-.01.72-.02v2.66c-.28.04-.87.1-1.61.1-2.99,0-4.29-.88-4.29-3.31v-5.41h-1.7v-2.8h1.79v-2.63Z"/>
    <path class="cls-2" d="m184.35,133.73c1.08,0,1.98.69,1.98,1.77s-.89,1.77-1.98,1.77-1.98-.68-1.98-1.77.89-1.77,1.98-1.77Zm-1.87,4.69h3.73v11.5h-3.73v-11.5Z"/>
    <path class="cls-2" d="m188.21,143.71c0-3.25,2.04-5.5,5.44-5.5,3.13,0,5.03,1.9,5.07,4.52h-3.35c-.08-.92-.69-1.69-1.58-1.69-1.12,0-1.82,1.03-1.82,2.67v.75c0,1.82.69,2.84,1.83,2.84s1.53-.76,1.59-1.61h3.35c-.12,3.1-2.31,4.45-5.11,4.45-3.28,0-5.41-2.03-5.41-5.64v-.79Z"/>
    <path class="cls-2" d="m204.55,134.94c2.3,0,4.44,1.21,4.44,3.75,0,1.8-1.07,2.69-2.09,3.48-1.24.96-1.7,1.32-1.7,2.55v.62h-2.05v-.84c-.05-1.56.9-2.49,2-3.33,1-.77,1.63-1.27,1.63-2.36,0-1.47-1.12-2.06-2.33-2.06-1.61,0-2.41,1.06-2.42,2.45h-2.04c-.04-3.2,2.41-4.25,4.57-4.25Zm-.33,12.58c.75,0,1.36.56,1.36,1.31s-.61,1.31-1.36,1.31-1.36-.56-1.36-1.31.61-1.31,1.36-1.31Z"/>
  </g>
</svg>