<?xml version="1.0" encoding="UTF-8"?>
<svg id="Layer_1" data-name="Layer 1" xmlns="http://www.w3.org/2000/svg" viewBox="0 0 311.81 263.14">
  <defs>
    <style>
      .cls-1 {
        fill: #fff;
        opacity: .9;
      }

      .cls-1, .cls-2 {
        stroke-width: 0px;
      }

      .cls-2 {
        fill: #231f20;
      }
    </style>
  </defs>
  <rect class="cls-1" width="311.81" height="263.14" rx="15.27" ry="15.27"/>
  <g>
    <path class="cls-2" d="M52.88,124.93l-4.35-16h2.62l2.89,12.15h.08l3.06-12.15h2.31l3.05,12.15h.08l2.89-12.15h2.62l-4.35,16h-2.18l-3.23-12.07h-.08l-3.23,12.07h-2.19Z"/>
    <path class="cls-2" d="M70.02,108.09h2.37v6.18h.08c.43-.81,1.56-1.89,3.57-1.89,2.53,0,4.38,1.61,4.38,4.62v7.93h-2.37v-7.49c0-2.02-1.17-2.98-2.82-2.98-1.96,0-2.85,1.38-2.85,3.04v7.43h-2.37v-16.84Z"/>
    <path class="cls-2" d="M84.97,108.18c.8,0,1.44.6,1.44,1.39s-.64,1.39-1.44,1.39-1.44-.6-1.44-1.39.64-1.39,1.44-1.39ZM83.78,112.58h2.37v12.35h-2.37v-12.35Z"/>
    <path class="cls-2" d="M89.18,118.13c0-3.36,1.96-5.75,5.25-5.75,2.95,0,4.73,1.92,4.84,3.97h-2.27c-.23-1.04-1.16-1.97-2.43-1.97-1.9,0-3.01,1.44-3.01,3.81v1.1c0,2.34,1.17,3.84,3.02,3.84,1.48,0,2.3-.82,2.5-1.79h2.26c-.35,2.33-2.05,3.81-4.91,3.81-3.33,0-5.25-2.47-5.25-5.87v-1.15Z"/>
    <path class="cls-2" d="M102.05,108.09h2.37v6.18h.08c.43-.81,1.56-1.89,3.57-1.89,2.53,0,4.38,1.61,4.38,4.62v7.93h-2.37v-7.49c0-2.02-1.17-2.98-2.82-2.98-1.96,0-2.85,1.38-2.85,3.04v7.43h-2.37v-16.84Z"/>
    <path class="cls-2" d="M122.95,123.25h-.08v5.93h-2.37v-16.59h2.3v1.79h.08c.69-1.17,1.96-1.98,3.62-1.98,2.77,0,4.78,2.12,4.78,5.8v1.11c0,3.64-1.98,5.81-4.85,5.81-1.59,0-2.81-.76-3.48-1.88ZM128.89,119.16v-.88c0-2.47-1.1-3.91-2.95-3.91s-3.09,1.55-3.09,3.9v.89c0,2.43,1.2,3.97,3.14,3.97,1.73,0,2.91-1.38,2.91-3.97Z"/>
    <path class="cls-2" d="M134.24,108.09h2.37v6.18h.08c.43-.81,1.56-1.89,3.57-1.89,2.53,0,4.38,1.61,4.38,4.62v7.93h-2.37v-7.49c0-2.02-1.17-2.98-2.82-2.98-1.96,0-2.85,1.38-2.85,3.04v7.43h-2.37v-16.84Z"/>
    <path class="cls-2" d="M158.22,118.21v1.04c0,3.43-1.89,5.89-5.4,5.89s-5.44-2.46-5.44-5.89v-1.03c0-3.34,1.91-5.85,5.44-5.85s5.4,2.5,5.4,5.84ZM149.76,118.27v.95c0,2.33,1.04,3.96,3.05,3.96s3.04-1.62,3.04-3.96v-.95c0-2.37-1.03-3.95-3.04-3.95s-3.05,1.59-3.05,3.95Z"/>
    <path class="cls-2" d="M161.98,109.54h2.33v3.05h2.43v1.92h-2.43v6.84c0,1.41.5,1.78,1.95,1.78.21,0,.4-.01.56-.02v1.84c-.2.04-.67.08-1.15.08-2.98,0-3.71-1.1-3.71-3.56v-6.96h-1.69v-1.92h1.71v-3.05Z"/>
    <path class="cls-2" d="M179.84,118.21v1.04c0,3.43-1.89,5.89-5.4,5.89s-5.44-2.46-5.44-5.89v-1.03c0-3.34,1.91-5.85,5.44-5.85s5.4,2.5,5.4,5.84ZM171.38,118.27v.95c0,2.33,1.04,3.96,3.05,3.96s3.04-1.62,3.04-3.96v-.95c0-2.37-1.03-3.95-3.04-3.95s-3.05,1.59-3.05,3.95Z"/>
    <path class="cls-2" d="M188.85,108.18c.8,0,1.44.6,1.44,1.39s-.64,1.39-1.44,1.39-1.44-.6-1.44-1.39.64-1.39,1.44-1.39ZM187.67,112.58h2.37v12.35h-2.37v-12.35Z"/>
    <path class="cls-2" d="M197.79,112.37c2.92,0,4.5,1.59,4.5,3.73h-2.16c-.07-.89-.63-1.91-2.41-1.91-1.37,0-2.34.62-2.34,1.73,0,1.34,1.69,1.59,3.09,1.85,2.31.41,4.16,1.09,4.16,3.46,0,2.48-1.98,3.91-5.02,3.91-2.87,0-4.75-1.37-4.75-3.59h2.31c.15,1.05,1.07,1.76,2.6,1.76,1.75,0,2.54-.82,2.54-1.79,0-1.32-1.42-1.57-3.09-1.9-2.27-.47-4.14-1.22-4.14-3.47,0-2.65,2.25-3.79,4.7-3.79Z"/>
    <path class="cls-2" d="M210.13,112.58h2.33v1.59h.12c.39-.86,1.46-1.79,3.16-1.79,1.92,0,3.07.8,3.53,2.03h.11c.45-1.05,1.75-2.03,3.77-2.03,2.6,0,4.11,1.62,4.11,4.14v8.41h-2.36v-7.86c0-1.57-.88-2.62-2.5-2.62s-2.55,1.12-2.55,2.79v7.7h-2.32v-7.7c0-1.85-.97-2.79-2.52-2.79-1.41,0-2.53.95-2.53,2.77v7.72h-2.36v-12.35Z"/>
    <path class="cls-2" d="M240.97,118.21v1.04c0,3.43-1.89,5.89-5.4,5.89s-5.44-2.46-5.44-5.89v-1.03c0-3.34,1.91-5.85,5.44-5.85s5.4,2.5,5.4,5.84ZM232.51,118.27v.95c0,2.33,1.04,3.96,3.05,3.96s3.04-1.62,3.04-3.96v-.95c0-2.37-1.03-3.95-3.04-3.95s-3.05,1.59-3.05,3.95Z"/>
    <path class="cls-2" d="M243.9,112.58h2.37v1.57h.08c.33-.75,1.25-1.76,2.99-1.76.3,0,.59.02.83.06v2.12c-.22-.05-.66-.07-1.05-.07-2.13,0-2.82,1.31-2.82,2.98v7.45h-2.39v-12.35Z"/>
    <path class="cls-2" d="M251.81,119.32v-1.3c0-3.39,1.97-5.65,5.23-5.65s5.2,2.32,5.2,5.77v1.17h-8.07v.26c0,2.19,1.15,3.67,3.01,3.67,1.36,0,2.27-.68,2.62-1.78h2.29c-.41,2.02-2.03,3.69-4.96,3.69-3.27,0-5.32-2.23-5.32-5.82ZM259.9,117.57v-.04c0-1.84-1.14-3.28-2.86-3.28s-2.88,1.45-2.88,3.28v.04h5.74Z"/>
    <path class="cls-2" d="M102.16,153.91c-2.45,0-4.15-1.39-4.15-3.8s1.59-3.77,4.52-3.79h2.85v-1c0-.91-.59-1.43-1.54-1.43s-1.56.56-1.59,1.35h-3.79c.06-2.03,1.28-4.25,5.43-4.25,3.07,0,5.48,1.24,5.48,4.43v8.31h-3.81v-1.49h-.19c-.39.83-1.37,1.66-3.22,1.66ZM105.39,149.67v-1.21h-1.69c-1.07,0-1.69.53-1.69,1.31,0,.9.77,1.37,1.59,1.37.94,0,1.78-.59,1.78-1.48Z"/>
    <path class="cls-2" d="M111.33,147.87v-.93c0-4,2.61-6,5.92-6,3.54,0,5.86,2.3,5.86,6.04v1.29h-7.82v.46c0,1.45.95,2.29,2.11,2.29,1.05,0,1.88-.52,1.98-1.41h3.67c-.14,1.96-1.76,4.36-5.65,4.36-3.57,0-6.07-2.02-6.07-6.09ZM119.23,146.01c0-1.29-.76-2.21-1.95-2.21s-1.99.93-1.99,2.21h3.94Z"/>
    <path class="cls-2" d="M130.19,140.95c3.01,0,5.11,1.34,5.11,3.89h-3.53c-.09-.64-.53-1.29-1.64-1.29-.96,0-1.49.49-1.49,1.11,0,1.11,1.95,1.22,3.36,1.48,2.29.41,3.71,1.36,3.71,3.56,0,2.64-2.03,4.27-5.68,4.27s-5.51-1.66-5.51-3.89h3.94c.07.74.73,1.27,1.76,1.27s1.58-.53,1.58-1.11c0-1.02-1.61-1.11-3.08-1.42-2.17-.46-3.93-1.42-3.93-3.79,0-2.91,2.53-4.08,5.39-4.08Z"/>
    <path class="cls-2" d="M138.69,138.31h3.93v2.87h2.38v3.06h-2.38v5.12c0,1.03.55,1.41,1.62,1.41.32,0,.66-.01.79-.02v2.91c-.3.05-.95.11-1.76.11-3.26,0-4.68-.96-4.68-3.61v-5.91h-1.85v-3.06h1.96v-2.87Z"/>
    <path class="cls-2" d="M147.32,136.89h4.07v6.28h.19c.33-.9,1.42-2.18,3.54-2.18,2.48,0,4.18,1.56,4.18,4.63v8.11h-4.07v-7.12c0-1.76-.97-2.25-1.9-2.25-1.1,0-1.95.81-1.95,2.29v7.09h-4.07v-16.84Z"/>
    <path class="cls-2" d="M161.21,147.87v-.93c0-4,2.61-6,5.92-6,3.54,0,5.86,2.3,5.86,6.04v1.29h-7.82v.46c0,1.45.95,2.29,2.11,2.29,1.05,0,1.88-.52,1.98-1.41h3.67c-.14,1.96-1.76,4.36-5.65,4.36-3.57,0-6.07-2.02-6.07-6.09ZM169.11,146.01c0-1.29-.76-2.21-1.95-2.21s-1.99.93-1.99,2.21h3.94Z"/>
    <path class="cls-2" d="M176.2,138.31h3.93v2.87h2.38v3.06h-2.38v5.12c0,1.03.55,1.41,1.62,1.41.32,0,.66-.01.79-.02v2.91c-.3.05-.95.11-1.76.11-3.26,0-4.68-.96-4.68-3.61v-5.91h-1.85v-3.06h1.96v-2.87Z"/>
    <path class="cls-2" d="M186.94,136.06c1.18,0,2.16.75,2.16,1.93s-.97,1.93-2.16,1.93-2.16-.74-2.16-1.93.97-1.93,2.16-1.93ZM184.9,141.18h4.07v12.55h-4.07v-12.55Z"/>
    <path class="cls-2" d="M191.14,146.95c0-3.55,2.23-6,5.93-6,3.41,0,5.48,2.07,5.53,4.93h-3.66c-.08-1.01-.75-1.84-1.72-1.84-1.22,0-1.98,1.12-1.98,2.92v.82c0,1.98.75,3.09,1.99,3.09s1.66-.83,1.73-1.76h3.66c-.13,3.39-2.52,4.85-5.58,4.85-3.57,0-5.91-2.21-5.91-6.15v-.87Z"/>
    <path class="cls-2" d="M208.97,137.37c2.51,0,4.84,1.32,4.84,4.09,0,1.97-1.17,2.93-2.29,3.8-1.35,1.04-1.85,1.44-1.85,2.78v.68h-2.24v-.91c-.06-1.7.98-2.72,2.18-3.63,1.09-.84,1.78-1.38,1.78-2.58,0-1.61-1.22-2.25-2.54-2.25-1.76,0-2.62,1.16-2.64,2.67h-2.23c-.05-3.49,2.62-4.64,4.98-4.64ZM208.6,151.1c.82,0,1.49.61,1.49,1.43s-.67,1.43-1.49,1.43-1.49-.61-1.49-1.43.67-1.43,1.49-1.43Z"/>
  </g>
</svg>