<?xml version="1.0" encoding="UTF-8"?>
<svg id="Layer_1" data-name="Layer 1" xmlns="http://www.w3.org/2000/svg" viewBox="0 0 311.81 263.14">
  <defs>
    <style>
      .cls-1 {
        fill: #fff;
        opacity: .9;
      }

      .cls-1, .cls-2 {
        stroke-width: 0px;
      }

      .cls-2 {
        fill: #231f20;
      }
    </style>
  </defs>
  <rect class="cls-1" width="311.81" height="263.14" rx="15.27" ry="15.27"/>
  <g>
    <path class="cls-2" d="M53.62,121.45l-4.35-16h2.62l2.89,12.15h.08l3.06-12.15h2.31l3.05,12.15h.08l2.89-12.15h2.62l-4.35,16h-2.18l-3.23-12.07h-.08l-3.23,12.07h-2.19Z"/>
    <path class="cls-2" d="M70.77,104.61h2.37v6.18h.08c.43-.81,1.56-1.89,3.57-1.89,2.53,0,4.38,1.61,4.38,4.62v7.93h-2.37v-7.49c0-2.02-1.17-2.98-2.82-2.98-1.96,0-2.85,1.38-2.85,3.04v7.43h-2.37v-16.84Z"/>
    <path class="cls-2" d="M85.71,104.69c.8,0,1.44.6,1.44,1.39s-.64,1.39-1.44,1.39-1.44-.6-1.44-1.39.64-1.39,1.44-1.39ZM84.53,109.1h2.37v12.35h-2.37v-12.35Z"/>
    <path class="cls-2" d="M89.93,114.64c0-3.36,1.96-5.75,5.25-5.75,2.95,0,4.73,1.92,4.84,3.97h-2.27c-.23-1.04-1.16-1.97-2.43-1.97-1.9,0-3.01,1.44-3.01,3.81v1.1c0,2.34,1.17,3.84,3.02,3.84,1.48,0,2.3-.82,2.5-1.79h2.26c-.35,2.33-2.05,3.81-4.91,3.81-3.33,0-5.25-2.47-5.25-5.87v-1.15Z"/>
    <path class="cls-2" d="M102.8,104.61h2.37v6.18h.08c.43-.81,1.56-1.89,3.57-1.89,2.53,0,4.38,1.61,4.38,4.62v7.93h-2.37v-7.49c0-2.02-1.17-2.98-2.82-2.98-1.96,0-2.85,1.38-2.85,3.04v7.43h-2.37v-16.84Z"/>
    <path class="cls-2" d="M125.07,119.52h-.2v5.96h-4.08v-16.58h4.05v1.95h.2c.55-1.27,1.8-2.07,3.54-2.07,2.77,0,4.58,2.03,4.58,5.89v1c0,3.86-1.82,5.92-4.59,5.92-1.72,0-2.96-.82-3.5-2.06ZM128.96,115.54v-.75c0-1.91-.8-2.91-2.03-2.91s-2.06,1.02-2.06,2.91v.75c0,1.9.84,2.93,2.07,2.93s2.02-.98,2.02-2.93Z"/>
    <path class="cls-2" d="M135.37,104.61h4.07v16.84h-4.07v-16.84Z"/>
    <path class="cls-2" d="M145.69,121.63c-2.45,0-4.15-1.39-4.15-3.8s1.59-3.77,4.52-3.79h2.85v-1c0-.91-.59-1.43-1.54-1.43s-1.56.56-1.59,1.35h-3.79c.06-2.03,1.28-4.25,5.43-4.25,3.07,0,5.48,1.24,5.48,4.43v8.31h-3.81v-1.49h-.19c-.39.83-1.37,1.66-3.22,1.66ZM148.91,117.38v-1.21h-1.69c-1.07,0-1.69.53-1.69,1.31,0,.9.77,1.37,1.59,1.37.94,0,1.78-.59,1.78-1.48Z"/>
    <path class="cls-2" d="M154.85,114.67c0-3.55,2.23-6,5.93-6,3.41,0,5.48,2.07,5.53,4.93h-3.66c-.08-1.01-.75-1.84-1.72-1.84-1.22,0-1.98,1.12-1.98,2.92v.82c0,1.98.75,3.09,1.99,3.09s1.66-.83,1.73-1.76h3.66c-.13,3.39-2.52,4.85-5.58,4.85-3.57,0-5.91-2.21-5.91-6.15v-.87Z"/>
    <path class="cls-2" d="M167.78,115.59v-.93c0-4,2.61-6,5.92-6,3.54,0,5.86,2.3,5.86,6.04v1.29h-7.82v.46c0,1.45.95,2.29,2.11,2.29,1.05,0,1.88-.52,1.98-1.41h3.67c-.14,1.96-1.76,4.36-5.65,4.36-3.57,0-6.07-2.02-6.07-6.09ZM175.67,113.73c0-1.29-.76-2.21-1.95-2.21s-1.99.93-1.99,2.21h3.94Z"/>
    <path class="cls-2" d="M188.11,104.69c.8,0,1.44.6,1.44,1.39s-.64,1.39-1.44,1.39-1.44-.6-1.44-1.39.64-1.39,1.44-1.39ZM186.92,109.1h2.37v12.35h-2.37v-12.35Z"/>
    <path class="cls-2" d="M197.05,108.89c2.92,0,4.5,1.59,4.5,3.73h-2.16c-.07-.89-.63-1.91-2.41-1.91-1.37,0-2.34.62-2.34,1.73,0,1.34,1.69,1.59,3.09,1.85,2.31.41,4.16,1.09,4.16,3.46,0,2.48-1.98,3.91-5.02,3.91-2.87,0-4.75-1.37-4.75-3.59h2.31c.15,1.05,1.07,1.76,2.6,1.76,1.75,0,2.54-.82,2.54-1.79,0-1.32-1.42-1.57-3.09-1.9-2.27-.47-4.14-1.22-4.14-3.47,0-2.65,2.25-3.79,4.7-3.79Z"/>
    <path class="cls-2" d="M209.39,109.1h2.33v1.59h.12c.39-.86,1.46-1.79,3.16-1.79,1.92,0,3.07.8,3.53,2.03h.11c.45-1.05,1.75-2.03,3.77-2.03,2.6,0,4.11,1.62,4.11,4.14v8.41h-2.36v-7.86c0-1.57-.88-2.62-2.5-2.62s-2.55,1.12-2.55,2.79v7.7h-2.32v-7.7c0-1.85-.97-2.79-2.52-2.79-1.41,0-2.53.95-2.53,2.77v7.72h-2.36v-12.35Z"/>
    <path class="cls-2" d="M240.22,114.72v1.04c0,3.43-1.89,5.89-5.4,5.89s-5.44-2.46-5.44-5.89v-1.03c0-3.34,1.91-5.85,5.44-5.85s5.4,2.5,5.4,5.84ZM231.76,114.78v.95c0,2.33,1.04,3.96,3.05,3.96s3.04-1.62,3.04-3.96v-.95c0-2.37-1.03-3.95-3.04-3.95s-3.05,1.59-3.05,3.95Z"/>
    <path class="cls-2" d="M243.15,109.1h2.37v1.57h.08c.33-.75,1.25-1.76,2.99-1.76.3,0,.59.02.83.06v2.12c-.22-.05-.66-.07-1.05-.07-2.13,0-2.82,1.31-2.82,2.98v7.45h-2.39v-12.35Z"/>
    <path class="cls-2" d="M251.06,115.84v-1.3c0-3.39,1.97-5.65,5.23-5.65s5.2,2.32,5.2,5.77v1.17h-8.07v.26c0,2.19,1.15,3.67,3.01,3.67,1.36,0,2.27-.68,2.62-1.78h2.29c-.41,2.02-2.03,3.69-4.96,3.69-3.27,0-5.32-2.23-5.32-5.82ZM259.16,114.09v-.04c0-1.84-1.14-3.28-2.86-3.28s-2.88,1.45-2.88,3.28v.04h5.74Z"/>
    <path class="cls-2" d="M100,137.69c2.92,0,4.5,1.59,4.5,3.73h-2.16c-.07-.89-.63-1.91-2.41-1.91-1.37,0-2.34.62-2.34,1.73,0,1.34,1.69,1.59,3.09,1.85,2.31.41,4.16,1.09,4.16,3.46,0,2.48-1.98,3.91-5.02,3.91-2.87,0-4.75-1.37-4.75-3.59h2.31c.15,1.05,1.07,1.76,2.6,1.76,1.75,0,2.54-.82,2.54-1.79,0-1.32-1.42-1.57-3.09-1.9-2.27-.47-4.14-1.22-4.14-3.47,0-2.65,2.25-3.79,4.7-3.79Z"/>
    <path class="cls-2" d="M108.85,133.49c.8,0,1.44.6,1.44,1.39s-.64,1.39-1.44,1.39-1.44-.6-1.44-1.39.64-1.39,1.44-1.39ZM107.67,137.9h2.37v12.35h-2.37v-12.35Z"/>
    <path class="cls-2" d="M121.56,150.07v-1.91h-.08c-.48,1.08-1.82,1.96-3.52,1.96-2.86,0-4.86-2.03-4.86-5.75v-.94c0-3.68,1.99-5.72,4.86-5.72,1.69,0,3.02.88,3.57,1.95h.08v-1.76h2.3v12.25c0,3.23-2.61,4.72-5.4,4.72-3.28,0-4.9-1.59-5.14-3.66h2.37c.22.96,1.22,1.79,2.79,1.79,1.85,0,3.04-1.09,3.04-2.93ZM115.49,143.57v.74c0,2.45,1.15,3.89,3.08,3.89s2.99-1.45,2.99-3.89v-.74c0-2.4-1.17-3.89-2.99-3.89-1.93,0-3.08,1.39-3.08,3.89Z"/>
    <path class="cls-2" d="M127.37,137.9h2.33v1.69h.08c.43-.81,1.57-1.89,3.6-1.89,2.53,0,4.37,1.61,4.37,4.62v7.93h-2.36v-7.49c0-2.02-1.18-2.98-2.82-2.98-1.95,0-2.85,1.38-2.85,3.04v7.43h-2.36v-12.35Z"/>
    <path class="cls-2" d="M142.3,133.49c.8,0,1.44.6,1.44,1.39s-.64,1.39-1.44,1.39-1.44-.6-1.44-1.39.64-1.39,1.44-1.39ZM141.12,137.9h2.37v12.35h-2.37v-12.35Z"/>
    <path class="cls-2" d="M147.85,139.82h-1.7v-1.92h1.7v-1.23c0-2.41,1.22-3.47,3.87-3.47.5,0,.83.04,1.04.07v1.83c-.18-.02-.34-.05-.67-.05-1.29,0-1.91.42-1.91,1.8v1.04h2.41v1.92h-2.39v10.43h-2.36v-10.43Z"/>
    <path class="cls-2" d="M156.71,133.49c.8,0,1.44.6,1.44,1.39s-.64,1.39-1.44,1.39-1.44-.6-1.44-1.39.64-1.39,1.44-1.39ZM155.53,137.9h2.37v12.35h-2.37v-12.35Z"/>
    <path class="cls-2" d="M160.93,143.44c0-3.36,1.96-5.75,5.25-5.75,2.95,0,4.73,1.92,4.84,3.97h-2.27c-.23-1.04-1.16-1.97-2.43-1.97-1.9,0-3.01,1.44-3.01,3.81v1.1c0,2.34,1.17,3.84,3.02,3.84,1.48,0,2.3-.82,2.5-1.79h2.26c-.35,2.33-2.05,3.81-4.91,3.81-3.33,0-5.25-2.47-5.25-5.87v-1.15Z"/>
    <path class="cls-2" d="M177.12,150.45c-2.39,0-4.03-1.46-4.03-3.75s1.51-3.56,4.35-3.57h3.18v-1.21c0-1.5-.87-2.32-2.41-2.32s-2.32.76-2.43,1.91h-2.23c.12-2.12,1.55-3.81,4.72-3.81,2.7,0,4.7,1.39,4.7,4.09v8.46h-2.26v-1.52h-.08c-.57.96-1.68,1.72-3.5,1.72ZM180.61,146.16v-1.39h-2.85c-1.58,0-2.29.75-2.29,1.82,0,1.36,1.12,2,2.33,2,1.59,0,2.8-1,2.8-2.43Z"/>
    <path class="cls-2" d="M186.27,137.9h2.33v1.69h.08c.43-.81,1.57-1.89,3.6-1.89,2.53,0,4.37,1.61,4.37,4.62v7.93h-2.36v-7.49c0-2.02-1.18-2.98-2.82-2.98-1.95,0-2.85,1.38-2.85,3.04v7.43h-2.36v-12.35Z"/>
    <path class="cls-2" d="M200.73,134.85h2.33v3.05h2.43v1.92h-2.43v6.84c0,1.41.5,1.78,1.95,1.78.21,0,.4-.01.56-.02v1.84c-.2.04-.67.08-1.15.08-2.98,0-3.71-1.1-3.71-3.56v-6.96h-1.69v-1.92h1.71v-3.05Z"/>
    <path class="cls-2" d="M212.21,133.89c2.51,0,4.84,1.32,4.84,4.09,0,1.97-1.17,2.93-2.29,3.8-1.35,1.04-1.85,1.44-1.85,2.78v.68h-2.24v-.91c-.06-1.7.98-2.72,2.18-3.63,1.09-.84,1.78-1.38,1.78-2.58,0-1.61-1.22-2.25-2.54-2.25-1.76,0-2.62,1.16-2.64,2.67h-2.23c-.05-3.49,2.62-4.64,4.98-4.64ZM211.85,147.61c.82,0,1.49.61,1.49,1.43s-.67,1.43-1.49,1.43-1.49-.61-1.49-1.43.67-1.43,1.49-1.43Z"/>
  </g>
</svg>