<?xml version="1.0" encoding="UTF-8"?>
<svg id="Layer_1" data-name="Layer 1" xmlns="http://www.w3.org/2000/svg" viewBox="0 0 311.81 263.14">
  <defs>
    <style>
      .cls-1, .cls-2 {
        opacity: .9;
      }

      .cls-1, .cls-2, .cls-3, .cls-4, .cls-5 {
        stroke-width: 0px;
      }

      .cls-1, .cls-5 {
        fill: #fff;
      }

      .cls-2 {
        fill: #fff8f8;
      }

      .cls-4 {
        fill: #231f20;
      }
    </style>
  </defs>
  <rect class="cls-1" width="311.81" height="263.14" rx="15.27" ry="15.27"/>
  <g>
    <path class="cls-4" d="M52.49,123.28l-4.35-16h2.62l2.89,12.15h.08l3.06-12.15h2.31l3.05,12.15h.08l2.89-12.15h2.62l-4.35,16h-2.18l-3.23-12.07h-.08l-3.23,12.07h-2.19Z"/>
    <path class="cls-4" d="M69.63,106.44h2.37v6.18h.08c.43-.81,1.56-1.89,3.57-1.89,2.53,0,4.38,1.61,4.38,4.62v7.93h-2.37v-7.49c0-2.02-1.17-2.98-2.82-2.98-1.96,0-2.85,1.38-2.85,3.04v7.43h-2.37v-16.84Z"/>
    <path class="cls-4" d="M84.57,106.52c.8,0,1.44.6,1.44,1.39s-.64,1.39-1.44,1.39-1.44-.6-1.44-1.39.64-1.39,1.44-1.39ZM83.39,110.93h2.37v12.35h-2.37v-12.35Z"/>
    <path class="cls-4" d="M88.79,116.47c0-3.36,1.96-5.75,5.25-5.75,2.95,0,4.73,1.92,4.84,3.97h-2.27c-.23-1.04-1.16-1.97-2.43-1.97-1.9,0-3.01,1.44-3.01,3.81v1.1c0,2.34,1.17,3.84,3.02,3.84,1.48,0,2.3-.82,2.5-1.79h2.26c-.35,2.33-2.05,3.81-4.91,3.81-3.33,0-5.25-2.47-5.25-5.87v-1.15Z"/>
    <path class="cls-4" d="M101.66,106.44h2.37v6.18h.08c.43-.81,1.56-1.89,3.57-1.89,2.53,0,4.38,1.61,4.38,4.62v7.93h-2.37v-7.49c0-2.02-1.17-2.98-2.82-2.98-1.96,0-2.85,1.38-2.85,3.04v7.43h-2.37v-16.84Z"/>
    <path class="cls-4" d="M119.14,117.42v-.93c0-4,2.61-6,5.92-6,3.54,0,5.86,2.3,5.86,6.04v1.29h-7.82v.46c0,1.45.95,2.29,2.11,2.29,1.05,0,1.88-.52,1.98-1.41h3.67c-.14,1.96-1.76,4.36-5.65,4.36-3.57,0-6.07-2.02-6.07-6.09ZM127.04,115.56c0-1.29-.76-2.21-1.95-2.21s-1.99.93-1.99,2.21h3.94Z"/>
    <path class="cls-4" d="M131.65,110.73h4.37l1.91,8.89h.15l2.2-8.89h4.24l-4.23,12.55h-4.73l-3.91-12.55Z"/>
    <path class="cls-4" d="M145,117.42v-.93c0-4,2.61-6,5.92-6,3.54,0,5.86,2.3,5.86,6.04v1.29h-7.82v.46c0,1.45.95,2.29,2.11,2.29,1.05,0,1.88-.52,1.98-1.41h3.67c-.14,1.96-1.76,4.36-5.65,4.36-3.57,0-6.07-2.02-6.07-6.09ZM152.89,115.56c0-1.29-.76-2.21-1.95-2.21s-1.99.93-1.99,2.21h3.94Z"/>
    <path class="cls-4" d="M158.82,110.73h3.93v1.99h.2c.34-.91,1.46-2.18,3.62-2.18,2.52,0,4.18,1.56,4.18,4.63v8.11h-4.07v-7.12c0-1.76-1-2.25-1.89-2.25-1.1,0-1.92.81-1.92,2.29v7.09h-4.05v-12.55Z"/>
    <path class="cls-4" d="M174.29,107.86h3.93v2.87h2.38v3.06h-2.38v5.12c0,1.03.55,1.41,1.62,1.41.32,0,.66-.01.79-.02v2.91c-.3.05-.95.11-1.76.11-3.26,0-4.68-.96-4.68-3.61v-5.91h-1.85v-3.06h1.96v-2.87Z"/>
    <path class="cls-4" d="M189.25,106.52c.8,0,1.44.6,1.44,1.39s-.64,1.39-1.44,1.39-1.44-.6-1.44-1.39.64-1.39,1.44-1.39ZM188.06,110.93h2.37v12.35h-2.37v-12.35Z"/>
    <path class="cls-4" d="M198.19,110.72c2.92,0,4.5,1.59,4.5,3.73h-2.16c-.07-.89-.63-1.91-2.41-1.91-1.37,0-2.34.62-2.34,1.73,0,1.34,1.69,1.59,3.09,1.85,2.31.41,4.16,1.09,4.16,3.46,0,2.48-1.98,3.91-5.02,3.91-2.87,0-4.75-1.37-4.75-3.59h2.31c.15,1.05,1.07,1.76,2.6,1.76,1.75,0,2.54-.82,2.54-1.79,0-1.32-1.42-1.57-3.09-1.9-2.27-.47-4.14-1.22-4.14-3.47,0-2.65,2.25-3.79,4.7-3.79Z"/>
    <path class="cls-4" d="M210.53,110.93h2.33v1.59h.12c.39-.86,1.46-1.79,3.16-1.79,1.92,0,3.07.8,3.53,2.03h.11c.45-1.05,1.75-2.03,3.77-2.03,2.6,0,4.11,1.62,4.11,4.14v8.41h-2.36v-7.86c0-1.57-.88-2.62-2.5-2.62s-2.55,1.12-2.55,2.79v7.7h-2.32v-7.7c0-1.85-.97-2.79-2.52-2.79-1.41,0-2.53.95-2.53,2.77v7.72h-2.36v-12.35Z"/>
    <path class="cls-4" d="M241.36,116.55v1.04c0,3.43-1.89,5.89-5.4,5.89s-5.44-2.46-5.44-5.89v-1.03c0-3.34,1.91-5.85,5.44-5.85s5.4,2.5,5.4,5.84ZM232.9,116.61v.95c0,2.33,1.04,3.96,3.05,3.96s3.04-1.62,3.04-3.96v-.95c0-2.37-1.03-3.95-3.04-3.95s-3.05,1.59-3.05,3.95Z"/>
    <path class="cls-4" d="M244.29,110.93h2.37v1.57h.08c.33-.75,1.25-1.76,2.99-1.76.3,0,.59.02.83.06v2.12c-.22-.05-.66-.07-1.05-.07-2.13,0-2.82,1.31-2.82,2.98v7.45h-2.39v-12.35Z"/>
    <path class="cls-4" d="M252.2,117.67v-1.3c0-3.39,1.97-5.65,5.23-5.65s5.2,2.32,5.2,5.77v1.17h-8.07v.26c0,2.19,1.15,3.67,3.01,3.67,1.36,0,2.27-.68,2.62-1.78h2.29c-.41,2.02-2.03,3.69-4.96,3.69-3.27,0-5.32-2.23-5.32-5.82ZM260.3,115.92v-.04c0-1.84-1.14-3.28-2.86-3.28s-2.88,1.45-2.88,3.28v.04h5.74Z"/>
    <path class="cls-4" d="M100,139.52c2.92,0,4.5,1.59,4.5,3.73h-2.16c-.07-.89-.63-1.91-2.41-1.91-1.37,0-2.34.62-2.34,1.73,0,1.34,1.69,1.59,3.09,1.85,2.31.41,4.16,1.09,4.16,3.46,0,2.48-1.98,3.91-5.02,3.91-2.87,0-4.75-1.37-4.75-3.59h2.31c.15,1.05,1.07,1.76,2.6,1.76,1.75,0,2.54-.82,2.54-1.79,0-1.32-1.42-1.57-3.09-1.9-2.27-.47-4.14-1.22-4.14-3.47,0-2.65,2.25-3.79,4.7-3.79Z"/>
    <path class="cls-4" d="M108.86,135.32c.8,0,1.44.6,1.44,1.39s-.64,1.39-1.44,1.39-1.44-.6-1.44-1.39.64-1.39,1.44-1.39ZM107.67,139.73h2.37v12.35h-2.37v-12.35Z"/>
    <path class="cls-4" d="M121.56,151.9v-1.91h-.08c-.48,1.08-1.82,1.96-3.52,1.96-2.86,0-4.86-2.03-4.86-5.75v-.94c0-3.68,1.99-5.72,4.86-5.72,1.69,0,3.02.88,3.57,1.95h.08v-1.76h2.3v12.25c0,3.23-2.61,4.72-5.4,4.72-3.28,0-4.9-1.59-5.14-3.66h2.37c.22.96,1.22,1.79,2.79,1.79,1.85,0,3.04-1.09,3.04-2.93ZM115.49,145.4v.74c0,2.45,1.15,3.89,3.08,3.89s2.99-1.45,2.99-3.89v-.74c0-2.4-1.17-3.89-2.99-3.89-1.93,0-3.08,1.39-3.08,3.89Z"/>
    <path class="cls-4" d="M127.37,139.73h2.33v1.69h.08c.43-.81,1.57-1.89,3.6-1.89,2.53,0,4.37,1.61,4.37,4.62v7.93h-2.36v-7.49c0-2.02-1.18-2.98-2.82-2.98-1.95,0-2.85,1.38-2.85,3.04v7.43h-2.36v-12.35Z"/>
    <path class="cls-4" d="M142.3,135.32c.8,0,1.44.6,1.44,1.39s-.64,1.39-1.44,1.39-1.44-.6-1.44-1.39.64-1.39,1.44-1.39ZM141.12,139.73h2.37v12.35h-2.37v-12.35Z"/>
    <path class="cls-4" d="M147.86,141.65h-1.7v-1.92h1.7v-1.23c0-2.41,1.22-3.47,3.87-3.47.5,0,.83.04,1.04.07v1.83c-.18-.02-.34-.05-.67-.05-1.29,0-1.91.42-1.91,1.8v1.04h2.41v1.92h-2.39v10.43h-2.36v-10.43Z"/>
    <path class="cls-4" d="M156.71,135.32c.8,0,1.44.6,1.44,1.39s-.64,1.39-1.44,1.39-1.44-.6-1.44-1.39.64-1.39,1.44-1.39ZM155.53,139.73h2.37v12.35h-2.37v-12.35Z"/>
    <path class="cls-4" d="M160.93,145.27c0-3.36,1.96-5.75,5.25-5.75,2.95,0,4.73,1.92,4.84,3.97h-2.27c-.23-1.04-1.16-1.97-2.43-1.97-1.9,0-3.01,1.44-3.01,3.81v1.1c0,2.34,1.17,3.84,3.02,3.84,1.48,0,2.3-.82,2.5-1.79h2.26c-.35,2.33-2.05,3.81-4.91,3.81-3.33,0-5.25-2.47-5.25-5.87v-1.15Z"/>
    <path class="cls-4" d="M177.12,152.28c-2.39,0-4.03-1.46-4.03-3.75s1.51-3.56,4.35-3.57h3.18v-1.21c0-1.5-.87-2.32-2.41-2.32s-2.32.76-2.43,1.91h-2.23c.12-2.12,1.55-3.81,4.72-3.81,2.7,0,4.7,1.39,4.7,4.09v8.46h-2.26v-1.52h-.08c-.57.96-1.68,1.72-3.5,1.72ZM180.61,147.99v-1.39h-2.85c-1.58,0-2.29.75-2.29,1.82,0,1.36,1.12,2,2.33,2,1.59,0,2.8-1,2.8-2.43Z"/>
    <path class="cls-4" d="M186.27,139.73h2.33v1.69h.08c.43-.81,1.57-1.89,3.6-1.89,2.53,0,4.37,1.61,4.37,4.62v7.93h-2.36v-7.49c0-2.02-1.18-2.98-2.82-2.98-1.95,0-2.85,1.38-2.85,3.04v7.43h-2.36v-12.35Z"/>
    <path class="cls-4" d="M200.73,136.68h2.33v3.05h2.43v1.92h-2.43v6.84c0,1.41.5,1.78,1.95,1.78.21,0,.4-.01.56-.02v1.84c-.2.04-.67.08-1.15.08-2.98,0-3.71-1.1-3.71-3.56v-6.96h-1.69v-1.92h1.71v-3.05Z"/>
    <path class="cls-4" d="M212.21,135.72c2.51,0,4.84,1.32,4.84,4.09,0,1.97-1.17,2.93-2.29,3.8-1.35,1.04-1.85,1.44-1.85,2.78v.68h-2.24v-.91c-.06-1.7.98-2.72,2.18-3.63,1.09-.84,1.78-1.38,1.78-2.58,0-1.61-1.22-2.25-2.54-2.25-1.76,0-2.62,1.16-2.64,2.67h-2.23c-.05-3.49,2.62-4.64,4.98-4.64ZM211.85,149.44c.82,0,1.49.61,1.49,1.43s-.67,1.43-1.49,1.43-1.49-.61-1.49-1.43.67-1.43,1.49-1.43Z"/>
  </g>
  <g>
    <g>
      <path class="cls-3" d="M143.81,184.36h20.88v.42c0,6.12,0,12.24,0,18.36,0,.54,0,.54-.54.53-6.6-.05-13.19-.11-19.79-.17-.55,0-.55,0-.55-.57,0-6.04,0-12.09,0-18.13v-.45ZM154.26,201.15c2.44,0,4.88,0,7.32,0,.38,0,.51-.09.51-.49-.01-4.62-.01-9.24,0-13.86,0-.39-.1-.51-.5-.51-4.89.01-9.78.01-14.67,0-.38,0-.51.09-.51.5.01,4.62.01,9.24,0,13.86,0,.39.11.5.5.5,2.45-.02,4.9,0,7.35,0Z"/>
      <path class="cls-3" d="M148.67,180.04c.39,0,.78,0,1.17.01.12,0,.25-.01.37-.02,1.03,0,2.06,0,3.09,0h-.01c.01.96-.46,1.54-1.38,1.71-.12.02-.21.15-.32.24.12.05.23.13.35.13,1.01-.03,1.73-.91,1.75-2.08,0,0-.01.01-.01.01.39,0,.78,0,1.17,0,.13,0,.25,0,.38-.01,1.03,0,2.06,0,3.09,0h-.01c.02.89-.48,1.54-1.27,1.69-.16.03-.31.15-.46.23.18.05.35.13.53.13.17,0,.35-.07.51-.16.77-.4,1.1-1.06,1.09-1.91h0c.37.01.74.01,1.11.01.18-.89.63-1.5,1.5-1.71,1.07-.26,2.08.37,2.34,1.45.02.1.06.19.09.29-.13-.02-.26-.03-.39-.05-.14,1.14-.47,1.5-1.5,1.73-.1.02-.18.14-.27.21.1.05.2.15.3.15.7-.02,1.23-.35,1.55-.96.17-.33.21-.72.3-1.09.24-.02.48-.06.72-.03.09,0,.24.17.24.26.02,1.2.01,2.41.01,3.64h-20.87c0-.2,0-.4,0-.6,0-.95.02-1.9,0-2.85,0-.38.12-.52.48-.47.18.02.36.02.54.02.13,0,.26,0,.38,0,1.03,0,2.06,0,3.09,0h-.01c.02.87-.43,1.5-1.19,1.68-.19.04-.49-.08-.48.26,0,.04.42.13.62.09.89-.19,1.42-.96,1.44-2.04,0,0-.01.01-.01.01ZM163.22,180c-.02-.72-.68-1.32-1.44-1.34-.77-.02-1.46.57-1.53,1.34h2.97Z"/>
      <path class="cls-3" d="M165.1,202.97v-19.74s.03,0,.05,0c.13.85.26,1.71.39,2.56.35,2.29.71,4.58,1.06,6.87.29,1.92.58,3.85.87,5.77.17,1.11.34,2.23.52,3.34.07.42-.02.51-.45.39-.41-.12-.81-.24-1.21-.38-.2-.07-.33-.04-.46.14-.23.33-.48.65-.78,1.05Z"/>
      <path class="cls-3" d="M145.21,180.03c-.13,0-.26,0-.38,0,.14-1.07.95-1.8,1.96-1.77.99.02,1.79.77,1.88,1.78,0,0,.01-.01.01-.01-.13,0-.26,0-.4,0,0,0,.01,0,.01,0-.23-.9-.81-1.4-1.58-1.39-.74.02-1.33.55-1.51,1.38Z"/>
      <path class="cls-3" d="M150.21,180.04c-.12,0-.25.01-.37.02.01-.84.63-1.54,1.54-1.74.83-.18,1.74.26,2.1,1.04.1.22.13.46.19.69,0,0,.01-.01.01-.01-.13,0-.26,0-.4,0,0,0,.01.01.01.01-.24-.9-.82-1.4-1.59-1.39-.75.02-1.33.55-1.5,1.38Z"/>
      <path class="cls-3" d="M155.22,180.03c-.13,0-.25,0-.38.01.05-.93.78-1.68,1.75-1.77.86-.09,1.77.52,2,1.36.04.13.06.27.08.41,0,0,0-.01,0-.01-.13,0-.26,0-.4,0,0,0,.01.01.01.01-.02-.06-.04-.12-.06-.18-.23-.77-.85-1.24-1.57-1.2-.75.04-1.31.57-1.46,1.38Z"/>
      <path class="cls-5" d="M154.26,201.15c-2.45,0-4.9,0-7.35,0-.39,0-.5-.11-.5-.5.01-4.62.01-9.24,0-13.86,0-.4.14-.5.51-.5,4.89,0,9.78.01,14.67,0,.39,0,.5.12.5.51-.01,4.62-.01,9.24,0,13.86,0,.4-.13.49-.51.49-2.44-.01-4.88,0-7.32,0ZM156.7,191.11v-4.38h-4.91v4.38h4.91ZM151.79,196.36v4.38h4.92v-4.38h-4.92ZM157.15,195.91h4.52v-4.35h-4.52v4.35ZM146.82,195.91h4.54v-4.34h-4.54v4.34ZM151.37,186.73h-4.54v4.37h4.54v-4.37ZM157.16,186.73v4.38h4.51v-4.38h-4.51ZM146.82,200.74h4.52v-4.37h-4.52v4.37ZM161.67,200.75v-4.39h-4.51v4.39h4.51ZM156.7,195.91c.01-.07.03-.12.03-.17,0-1.31,0-2.61,0-3.92,0-.3-.17-.28-.37-.28-1.41,0-2.82,0-4.23,0-.11,0-.22.02-.35.03v4.35h4.92Z"/>
      <path class="cls-5" d="M150.21,180.04c.17-.83.75-1.36,1.5-1.38.77-.02,1.34.49,1.59,1.39-1.03,0-2.06,0-3.09,0Z"/>
      <path class="cls-5" d="M145.21,180.03c.18-.83.76-1.36,1.51-1.38.77-.02,1.35.49,1.58,1.39-1.03,0-2.06,0-3.09,0Z"/>
      <path class="cls-5" d="M155.22,180.03c.15-.81.71-1.34,1.46-1.38.72-.04,1.34.44,1.57,1.2.02.06.04.12.06.18-1.03,0-2.06,0-3.09,0Z"/>
      <path class="cls-5" d="M163.22,180h-2.97c.07-.77.76-1.36,1.53-1.34.76.02,1.41.62,1.44,1.34Z"/>
      <path class="cls-5" d="M163.72,180.07c-.1.36-.14.76-.3,1.09-.31.61-.85.94-1.55.96-.1,0-.2-.1-.3-.15.09-.07.17-.19.27-.21,1.03-.23,1.35-.59,1.5-1.73.13.02.26.03.39.05,0,0,0,0,0,0Z"/>
      <path class="cls-5" d="M148.28,180.03c.13,0,.26,0,.4,0-.02,1.08-.55,1.85-1.44,2.04-.2.04-.62-.05-.62-.09-.01-.34.3-.22.48-.26.76-.18,1.21-.82,1.19-1.69Z"/>
      <path class="cls-5" d="M153.29,180.03c.13,0,.26,0,.4,0-.01,1.18-.74,2.05-1.75,2.08-.12,0-.23-.08-.35-.13.11-.08.2-.22.32-.24.92-.17,1.4-.74,1.38-1.72Z"/>
      <path class="cls-5" d="M158.3,180.03c.13,0,.26,0,.4,0,.01.85-.32,1.51-1.09,1.91-.16.08-.34.15-.51.16-.18,0-.35-.08-.53-.13.15-.08.3-.2.46-.23.79-.15,1.29-.81,1.27-1.7Z"/>
      <path class="cls-3" d="M156.7,191.11h-4.91v-4.38h4.91v4.38Z"/>
      <path class="cls-3" d="M151.79,196.36h4.92v4.38h-4.92v-4.38Z"/>
      <path class="cls-3" d="M157.15,195.91v-4.35h4.52v4.35h-4.52Z"/>
      <path class="cls-3" d="M146.82,195.91v-4.34h4.54v4.34h-4.54Z"/>
      <path class="cls-3" d="M151.37,186.73v4.37h-4.54v-4.37h4.54Z"/>
      <path class="cls-3" d="M157.16,186.73h4.51v4.38h-4.51v-4.38Z"/>
      <path class="cls-3" d="M146.82,200.74v-4.37h4.52v4.37h-4.52Z"/>
      <path class="cls-3" d="M161.67,200.75h-4.51v-4.39h4.51v4.39Z"/>
      <path class="cls-3" d="M156.7,195.91h-4.92v-4.35c.13,0,.24-.03.35-.03,1.41,0,2.82,0,4.23,0,.2,0,.38-.02.37.28-.01,1.31,0,2.61,0,3.92,0,.05-.02.1-.03.17ZM153.96,193.74c-.35.32-.66.58-.95.87-.08.08-.09.23-.14.35.13-.02.3,0,.39-.08.34-.27.65-.57.99-.87.35.31.66.61,1,.88.09.07.25.05.38.07-.04-.12-.06-.27-.14-.35-.3-.29-.61-.57-.95-.86.31-.28.59-.52.85-.78.12-.12.4-.21.19-.44-.04-.05-.31.06-.43.15-.32.25-.61.53-.92.8-.34-.3-.64-.58-.96-.83-.11-.08-.28-.08-.42-.12.06.14.08.3.18.4.28.28.58.53.9.82Z"/>
      <path class="cls-5" d="M153.96,193.74c-.32-.29-.63-.54-.9-.82-.1-.1-.12-.26-.18-.4.14.04.31.04.42.12.32.25.62.53.96.83.31-.27.61-.55.92-.8.12-.09.39-.19.43-.15.21.23-.08.32-.19.44-.26.26-.54.5-.85.78.33.3.65.57.95.86.08.08.09.23.14.35-.13-.02-.29,0-.38-.07-.34-.27-.65-.57-1-.88-.34.3-.66.6-.99.87-.09.07-.26.06-.39.08.04-.12.06-.27.14-.35.29-.29.6-.55.95-.87Z"/>
    </g>
    <rect class="cls-3" x="145.21" y="185.29" width="17.58" height="16.52"/>
    <rect class="cls-2" x="146.89" y="186.74" width="3.99" height="3.99" rx=".97" ry=".97"/>
    <rect class="cls-2" x="151.68" y="186.74" width="3.99" height="3.99" rx=".97" ry=".97"/>
    <rect class="cls-2" x="156.67" y="186.74" width="3.99" height="3.99" rx=".97" ry=".97"/>
    <rect class="cls-2" x="146.89" y="191.73" width="3.99" height="3.99" rx=".97" ry=".97"/>
    <rect class="cls-2" x="151.91" y="191.74" width="3.99" height="3.99" rx=".97" ry=".97"/>
    <rect class="cls-2" x="156.94" y="191.74" width="3.99" height="3.99" rx=".97" ry=".97"/>
    <rect class="cls-2" x="146.88" y="196.56" width="3.99" height="3.99" rx=".97" ry=".97"/>
    <rect class="cls-2" x="151.9" y="196.57" width="3.99" height="3.99" rx=".97" ry=".97"/>
    <rect class="cls-2" x="156.93" y="196.57" width="3.99" height="3.99" rx=".97" ry=".97"/>
  </g>
</svg>