<?xml version="1.0" encoding="UTF-8"?>
<svg id="Layer_1" data-name="Layer 1" xmlns="http://www.w3.org/2000/svg" viewBox="0 0 311.81 263.14">
  <defs>
    <style>
      .cls-1 {
        fill: #fff;
        opacity: .9;
      }

      .cls-1, .cls-2 {
        stroke-width: 0px;
      }

      .cls-2 {
        fill: #231f20;
      }
    </style>
  </defs>
  <rect class="cls-1" x="0" width="311.81" height="263.14" rx="15.27" ry="15.27"/>
  <g>
    <path class="cls-2" d="m63.05,123.53l-3.99-14.66h2.41l2.65,11.14h.08l2.8-11.14h2.12l2.79,11.14h.08l2.65-11.14h2.41l-3.99,14.66h-2l-2.96-11.06h-.08l-2.96,11.06h-2.01Z"/>
    <path class="cls-2" d="m78.76,108.09h2.17v5.66h.08c.4-.74,1.43-1.73,3.28-1.73,2.32,0,4.02,1.47,4.02,4.23v7.27h-2.17v-6.86c0-1.85-1.07-2.73-2.59-2.73-1.79,0-2.61,1.27-2.61,2.78v6.81h-2.17v-15.44Z"/>
    <path class="cls-2" d="m92.46,108.17c.73,0,1.32.55,1.32,1.28s-.59,1.28-1.32,1.28-1.32-.55-1.32-1.28.59-1.28,1.32-1.28Zm-1.08,4.04h2.17v11.32h-2.17v-11.32Z"/>
    <path class="cls-2" d="m96.32,117.29c0-3.08,1.79-5.27,4.81-5.27,2.71,0,4.34,1.76,4.44,3.64h-2.08c-.21-.96-1.06-1.8-2.22-1.8-1.74,0-2.76,1.32-2.76,3.49v1.01c0,2.15,1.07,3.52,2.77,3.52,1.35,0,2.11-.75,2.29-1.64h2.07c-.32,2.14-1.88,3.49-4.5,3.49-3.05,0-4.81-2.27-4.81-5.38v-1.05Z"/>
    <path class="cls-2" d="m108.12,108.09h2.17v5.66h.08c.4-.74,1.43-1.73,3.28-1.73,2.32,0,4.02,1.47,4.02,4.23v7.27h-2.17v-6.86c0-1.85-1.07-2.73-2.59-2.73-1.79,0-2.61,1.27-2.61,2.78v6.81h-2.17v-15.44Z"/>
    <path class="cls-2" d="m124.54,118.39v-1.19c0-3.1,1.8-5.18,4.79-5.18s4.77,2.13,4.77,5.29v1.07h-7.4v.24c0,2.01,1.05,3.36,2.76,3.36,1.25,0,2.08-.62,2.41-1.63h2.09c-.38,1.85-1.86,3.38-4.54,3.38-3,0-4.88-2.04-4.88-5.34Zm7.42-1.6v-.03c0-1.69-1.04-3.01-2.62-3.01s-2.64,1.33-2.64,3.01v.03h5.26Z"/>
    <path class="cls-2" d="m135.21,112.21h2.3l2.75,8.91h.08l2.96-8.91h2.2l-4.02,11.32h-2.38l-3.89-11.32Z"/>
    <path class="cls-2" d="m146.6,118.39v-1.19c0-3.1,1.8-5.18,4.79-5.18s4.77,2.13,4.77,5.29v1.07h-7.4v.24c0,2.01,1.05,3.36,2.76,3.36,1.25,0,2.08-.62,2.41-1.63h2.09c-.38,1.85-1.86,3.38-4.54,3.38-3,0-4.88-2.04-4.88-5.34Zm7.42-1.6v-.03c0-1.69-1.04-3.01-2.62-3.01s-2.64,1.33-2.64,3.01v.03h5.26Z"/>
    <path class="cls-2" d="m158.8,112.21h2.14v1.55h.08c.4-.74,1.44-1.73,3.3-1.73,2.32,0,4.01,1.47,4.01,4.23v7.27h-2.16v-6.86c0-1.85-1.08-2.73-2.59-2.73-1.78,0-2.61,1.27-2.61,2.78v6.81h-2.16v-11.32Z"/>
    <path class="cls-2" d="m172.06,109.42h2.14v2.79h2.22v1.76h-2.22v6.27c0,1.29.46,1.63,1.78,1.63.19,0,.37-.01.52-.02v1.69c-.18.03-.61.08-1.05.08-2.73,0-3.41-1.01-3.41-3.27v-6.38h-1.55v-1.76h1.57v-2.79Z"/>
    <path class="cls-2" d="m184.53,108.17c.73,0,1.32.55,1.32,1.28s-.59,1.28-1.32,1.28-1.32-.55-1.32-1.28.59-1.28,1.32-1.28Zm-1.08,4.04h2.17v11.32h-2.17v-11.32Z"/>
    <path class="cls-2" d="m192.72,112.02c2.67,0,4.12,1.46,4.12,3.42h-1.98c-.06-.82-.58-1.75-2.21-1.75-1.26,0-2.15.57-2.15,1.59,0,1.22,1.55,1.46,2.84,1.7,2.12.38,3.81,1,3.81,3.17,0,2.28-1.82,3.59-4.6,3.59-2.63,0-4.35-1.26-4.35-3.29h2.12c.14.97.98,1.61,2.38,1.61,1.6,0,2.33-.75,2.33-1.64,0-1.21-1.3-1.44-2.84-1.74-2.08-.43-3.79-1.12-3.79-3.18,0-2.43,2.06-3.47,4.31-3.47Z"/>
    <path class="cls-2" d="m204.04,112.21h2.14v1.46h.11c.35-.78,1.34-1.64,2.9-1.64,1.76,0,2.81.73,3.23,1.86h.1c.41-.97,1.6-1.86,3.46-1.86,2.38,0,3.77,1.48,3.77,3.79v7.71h-2.16v-7.21c0-1.44-.81-2.41-2.29-2.41s-2.34,1.03-2.34,2.56v7.06h-2.13v-7.06c0-1.7-.89-2.56-2.31-2.56-1.29,0-2.32.87-2.32,2.54v7.08h-2.16v-11.32Z"/>
    <path class="cls-2" d="m232.3,117.36v.96c0,3.15-1.73,5.4-4.95,5.4s-4.98-2.26-4.98-5.4v-.95c0-3.06,1.75-5.36,4.98-5.36s4.95,2.29,4.95,5.35Zm-7.76.05v.87c0,2.14.96,3.63,2.79,3.63s2.78-1.48,2.78-3.63v-.87c0-2.17-.95-3.62-2.78-3.62s-2.79,1.46-2.79,3.62Z"/>
    <path class="cls-2" d="m234.98,112.21h2.17v1.44h.08c.3-.69,1.15-1.61,2.74-1.61.28,0,.54.02.76.05v1.94c-.2-.04-.6-.06-.97-.06-1.96,0-2.59,1.2-2.59,2.73v6.83h-2.19v-11.32Z"/>
    <path class="cls-2" d="m242.24,118.39v-1.19c0-3.1,1.8-5.18,4.79-5.18s4.77,2.13,4.77,5.29v1.07h-7.4v.24c0,2.01,1.05,3.36,2.76,3.36,1.25,0,2.08-.62,2.41-1.63h2.09c-.38,1.85-1.86,3.38-4.54,3.38-3,0-4.88-2.04-4.88-5.34Zm7.42-1.6v-.03c0-1.69-1.04-3.01-2.62-3.01s-2.64,1.33-2.64,3.01v.03h5.26Z"/>
    <path class="cls-2" d="m61.84,148.16h-.18v5.47h-3.74v-15.2h3.72v1.78h.18c.5-1.16,1.65-1.9,3.24-1.9,2.54,0,4.2,1.86,4.2,5.4v.91c0,3.53-1.67,5.42-4.21,5.42-1.58,0-2.72-.75-3.21-1.89Zm3.57-3.64v-.69c0-1.75-.73-2.66-1.86-2.66s-1.89.93-1.89,2.66v.69c0,1.74.77,2.69,1.9,2.69s1.85-.9,1.85-2.69Z"/>
    <path class="cls-2" d="m70.72,144.56v-.85c0-3.66,2.4-5.5,5.42-5.5,3.24,0,5.37,2.11,5.37,5.53v1.18h-7.17v.42c0,1.33.87,2.09,1.93,2.09.97,0,1.72-.47,1.82-1.29h3.36c-.13,1.79-1.61,4-5.18,4-3.28,0-5.56-1.85-5.56-5.59Zm7.24-1.71c0-1.18-.7-2.03-1.78-2.03s-1.83.85-1.83,2.03h3.61Z"/>
    <path class="cls-2" d="m83.39,138.43h3.73v1.74h.17c.19-.77,1.05-1.9,2.56-1.9.54,0,.87.03,1.1.11v3.14c-.25-.1-.78-.15-1.32-.15-1.73,0-2.38.99-2.38,2.52v6.05h-3.85v-11.5Z"/>
    <path class="cls-2" d="m97.03,138.21c2.76,0,4.68,1.22,4.68,3.57h-3.23c-.09-.59-.48-1.18-1.5-1.18-.88,0-1.36.45-1.36,1.02,0,1.02,1.78,1.12,3.08,1.35,2.09.38,3.41,1.25,3.41,3.27,0,2.42-1.86,3.91-5.21,3.91s-5.05-1.53-5.05-3.57h3.61c.06.68.67,1.16,1.61,1.16s1.45-.48,1.45-1.02c0-.93-1.47-1.02-2.83-1.3-1.99-.42-3.6-1.3-3.6-3.47,0-2.66,2.32-3.74,4.94-3.74Z"/>
    <path class="cls-2" d="m114.56,143.79v.68c0,3.57-2.02,5.68-5.54,5.68s-5.58-2.12-5.58-5.66v-.68c0-3.27,2.03-5.6,5.58-5.6s5.54,2.3,5.54,5.58Zm-7.34-.05v.87c0,1.34.4,2.79,1.78,2.79s1.77-1.44,1.77-2.79v-.87c0-1.45-.43-2.78-1.77-2.78s-1.78,1.35-1.78,2.78Z"/>
    <path class="cls-2" d="m116.46,138.43h3.6v1.83h.18c.31-.84,1.34-2,3.32-2,2.31,0,3.83,1.43,3.83,4.24v7.43h-3.73v-6.53c0-1.61-.91-2.06-1.73-2.06-1.01,0-1.76.74-1.76,2.09v6.5h-3.72v-11.5Z"/>
    <path class="cls-2" d="m132.92,150.09c-2.25,0-3.8-1.28-3.8-3.48s1.46-3.46,4.15-3.47h2.61v-.91c0-.84-.54-1.31-1.41-1.31s-1.43.52-1.46,1.24h-3.47c.05-1.86,1.17-3.9,4.97-3.9,2.81,0,5.03,1.14,5.03,4.06v7.62h-3.49v-1.36h-.17c-.35.76-1.26,1.53-2.95,1.53Zm2.95-3.89v-1.11h-1.55c-.98,0-1.55.48-1.55,1.2,0,.83.71,1.26,1.46,1.26.86,0,1.63-.54,1.63-1.35Z"/>
    <path class="cls-2" d="m141.89,134.49h3.73v15.44h-3.73v-15.44Z"/>
    <path class="cls-2" d="m148.18,134.49h3.73v15.44h-3.73v-15.44Z"/>
    <path class="cls-2" d="m161.92,149.27l-.29.77c-.88,2.34-2.19,3.9-5.58,3.9-.81,0-1.61-.09-1.93-.15v-2.54c.21.05.67.09,1.03.09,1.46,0,1.87-.48,1.96-1.29l.04-.21-3.75-11.41h4.1l1.86,8.48h.14l1.94-8.48h3.95s-3.41,10.65-3.48,10.84Z"/>
    <path class="cls-2" d="m170.84,138.43h3.73v1.74h.17c.19-.77,1.05-1.9,2.56-1.9.54,0,.87.03,1.1.11v3.14c-.25-.1-.78-.15-1.32-.15-1.73,0-2.38.99-2.38,2.52v6.05h-3.85v-11.5Z"/>
    <path class="cls-2" d="m179.31,144.56v-.85c0-3.66,2.4-5.5,5.42-5.5,3.24,0,5.37,2.11,5.37,5.53v1.18h-7.17v.42c0,1.33.87,2.09,1.93,2.09.97,0,1.72-.47,1.82-1.29h3.36c-.13,1.79-1.61,4-5.18,4-3.28,0-5.56-1.85-5.56-5.59Zm7.24-1.71c0-1.18-.7-2.03-1.78-2.03s-1.83.85-1.83,2.03h3.61Z"/>
    <path class="cls-2" d="m192.08,134.49h3.73v15.44h-3.73v-15.44Z"/>
    <path class="cls-2" d="m197.8,144.56v-.85c0-3.66,2.4-5.5,5.42-5.5,3.24,0,5.37,2.11,5.37,5.53v1.18h-7.17v.42c0,1.33.87,2.09,1.93,2.09.97,0,1.72-.47,1.82-1.29h3.36c-.13,1.79-1.61,4-5.18,4-3.28,0-5.56-1.85-5.56-5.59Zm7.24-1.71c0-1.18-.7-2.03-1.78-2.03s-1.83.85-1.83,2.03h3.61Z"/>
    <path class="cls-2" d="m209.26,138.43h4.01l1.75,8.15h.14l2.02-8.15h3.89l-3.88,11.5h-4.34l-3.59-11.5Z"/>
    <path class="cls-2" d="m225.39,150.09c-2.25,0-3.8-1.28-3.8-3.48s1.46-3.46,4.15-3.47h2.61v-.91c0-.84-.54-1.31-1.41-1.31s-1.43.52-1.46,1.24h-3.47c.05-1.86,1.17-3.9,4.97-3.9,2.81,0,5.03,1.14,5.03,4.06v7.62h-3.49v-1.36h-.17c-.35.76-1.26,1.53-2.95,1.53Zm2.95-3.89v-1.11h-1.55c-.98,0-1.55.48-1.55,1.2,0,.83.71,1.26,1.46,1.26.86,0,1.63-.54,1.63-1.35Z"/>
    <path class="cls-2" d="m234.26,138.43h3.6v1.83h.18c.31-.84,1.34-2,3.32-2,2.31,0,3.83,1.43,3.83,4.24v7.43h-3.73v-6.53c0-1.61-.91-2.06-1.73-2.06-1.01,0-1.76.74-1.76,2.09v6.5h-3.72v-11.5Z"/>
    <path class="cls-2" d="m248.44,135.79h3.6v2.63h2.18v2.8h-2.18v4.69c0,.95.5,1.29,1.48,1.29.29,0,.6-.01.72-.02v2.66c-.28.04-.87.1-1.61.1-2.99,0-4.29-.88-4.29-3.31v-5.41h-1.7v-2.8h1.79v-2.63Z"/>
    <path class="cls-2" d="m119.68,166.77h-1.56v-1.76h1.56v-1.13c0-2.21,1.12-3.18,3.54-3.18.46,0,.76.03.96.06v1.68c-.16-.02-.31-.04-.61-.04-1.18,0-1.75.39-1.75,1.65v.96h2.21v1.76h-2.19v9.56h-2.16v-9.56Z"/>
    <path class="cls-2" d="m135.84,170.16v.96c0,3.15-1.73,5.4-4.95,5.4s-4.98-2.26-4.98-5.4v-.95c0-3.06,1.75-5.36,4.98-5.36s4.95,2.29,4.95,5.35Zm-7.76.05v.87c0,2.14.96,3.63,2.79,3.63s2.78-1.48,2.78-3.63v-.87c0-2.17-.95-3.62-2.78-3.62s-2.79,1.46-2.79,3.62Z"/>
    <path class="cls-2" d="m138.52,165.01h2.17v1.44h.08c.3-.69,1.15-1.61,2.74-1.61.28,0,.54.02.76.05v1.94c-.21-.04-.6-.06-.97-.06-1.96,0-2.59,1.2-2.59,2.73v6.83h-2.19v-11.32Z"/>
    <path class="cls-2" d="m155.67,176.27l-.29.78c-.68,1.79-1.56,3.38-4.09,3.38-.47,0-1-.05-1.28-.1v-1.69c.17.03.59.05.86.05,1.36,0,1.89-.62,2.17-1.72l.15-.54-4.09-11.44h2.41l2.85,9.11h.07l2.87-9.11h2.31s-3.92,11.21-3.93,11.26Z"/>
    <path class="cls-2" d="m170.63,170.16v.96c0,3.15-1.73,5.4-4.95,5.4s-4.98-2.26-4.98-5.4v-.95c0-3.06,1.75-5.36,4.98-5.36s4.95,2.29,4.95,5.35Zm-7.76.05v.87c0,2.14.96,3.63,2.79,3.63s2.78-1.48,2.78-3.63v-.87c0-2.17-.95-3.62-2.78-3.62s-2.79,1.46-2.79,3.62Z"/>
    <path class="cls-2" d="m182.62,176.33h-2.14v-1.54h-.09c-.39.89-1.45,1.72-3.28,1.72-2.33,0-3.96-1.34-3.96-3.96v-7.54h2.17v6.94c0,2.04,1.17,2.65,2.54,2.65,1.5,0,2.59-.96,2.59-2.69v-6.91h2.17v11.32Z"/>
    <path class="cls-2" d="m189.39,161.33c2.3,0,4.44,1.21,4.44,3.75,0,1.8-1.07,2.69-2.09,3.48-1.24.96-1.7,1.32-1.7,2.55v.62h-2.05v-.84c-.05-1.56.9-2.49,2-3.33,1-.77,1.63-1.27,1.63-2.36,0-1.47-1.12-2.06-2.33-2.06-1.61,0-2.41,1.06-2.42,2.45h-2.04c-.04-3.2,2.41-4.25,4.57-4.25Zm-.33,12.58c.75,0,1.37.56,1.37,1.31s-.61,1.31-1.37,1.31-1.36-.56-1.36-1.31.61-1.31,1.36-1.31Z"/>
  </g>
</svg>