<?xml version="1.0" encoding="UTF-8"?>
<svg id="Layer_1" data-name="Layer 1" xmlns="http://www.w3.org/2000/svg" viewBox="0 0 311.81 263.14">
  <defs>
    <style>
      .cls-1 {
        fill: #fff;
        opacity: .9;
      }

      .cls-1, .cls-2 {
        stroke-width: 0px;
      }

      .cls-2 {
        fill: #231f20;
      }
    </style>
  </defs>
  <rect class="cls-1" x="0" width="311.81" height="263.14" rx="15.27" ry="15.27"/>
  <g>
    <path class="cls-2" d="M54.6,124.93l-4.35-16h2.62l2.89,12.15h.08l3.06-12.15h2.31l3.05,12.15h.08l2.89-12.15h2.62l-4.35,16h-2.18l-3.23-12.07h-.08l-3.23,12.07h-2.19Z"/>
    <path class="cls-2" d="M71.75,108.09h2.37v6.18h.08c.43-.81,1.56-1.89,3.57-1.89,2.53,0,4.38,1.61,4.38,4.62v7.93h-2.37v-7.49c0-2.02-1.17-2.98-2.82-2.98-1.96,0-2.85,1.38-2.85,3.04v7.43h-2.37v-16.84Z"/>
    <path class="cls-2" d="M86.69,108.18c.8,0,1.44.6,1.44,1.39s-.64,1.39-1.44,1.39-1.44-.6-1.44-1.39.64-1.39,1.44-1.39ZM85.51,112.58h2.37v12.35h-2.37v-12.35Z"/>
    <path class="cls-2" d="M90.91,118.13c0-3.36,1.96-5.75,5.25-5.75,2.95,0,4.73,1.92,4.84,3.97h-2.27c-.23-1.04-1.16-1.97-2.43-1.97-1.9,0-3.01,1.44-3.01,3.81v1.1c0,2.34,1.17,3.84,3.02,3.84,1.48,0,2.3-.82,2.5-1.79h2.26c-.35,2.33-2.05,3.81-4.91,3.81-3.33,0-5.25-2.47-5.25-5.87v-1.15Z"/>
    <path class="cls-2" d="M103.77,108.09h2.37v6.18h.08c.43-.81,1.56-1.89,3.57-1.89,2.53,0,4.38,1.61,4.38,4.62v7.93h-2.37v-7.49c0-2.02-1.17-2.98-2.82-2.98-1.96,0-2.85,1.38-2.85,3.04v7.43h-2.37v-16.84Z"/>
    <path class="cls-2" d="M121.69,119.32v-1.3c0-3.39,1.97-5.65,5.23-5.65s5.2,2.32,5.2,5.77v1.17h-8.07v.26c0,2.19,1.15,3.67,3.01,3.67,1.36,0,2.27-.68,2.62-1.78h2.29c-.41,2.02-2.03,3.69-4.96,3.69-3.27,0-5.32-2.23-5.32-5.82ZM129.79,117.57v-.04c0-1.84-1.14-3.28-2.86-3.28s-2.88,1.45-2.88,3.28v.04h5.74Z"/>
    <path class="cls-2" d="M133.33,112.58h2.51l3,9.71h.08l3.23-9.71h2.4l-4.38,12.35h-2.6l-4.24-12.35Z"/>
    <path class="cls-2" d="M145.75,119.32v-1.3c0-3.39,1.97-5.65,5.23-5.65s5.2,2.32,5.2,5.77v1.17h-8.07v.26c0,2.19,1.15,3.67,3.01,3.67,1.36,0,2.27-.68,2.62-1.78h2.29c-.41,2.02-2.03,3.69-4.96,3.69-3.27,0-5.32-2.23-5.32-5.82ZM153.85,117.57v-.04c0-1.84-1.14-3.28-2.86-3.28s-2.88,1.45-2.88,3.28v.04h5.74Z"/>
    <path class="cls-2" d="M159.06,112.58h2.33v1.69h.08c.43-.81,1.57-1.89,3.6-1.89,2.53,0,4.37,1.61,4.37,4.62v7.93h-2.36v-7.49c0-2.02-1.18-2.98-2.82-2.98-1.95,0-2.85,1.38-2.85,3.04v7.43h-2.36v-12.35Z"/>
    <path class="cls-2" d="M173.52,109.54h2.33v3.05h2.43v1.92h-2.43v6.84c0,1.41.5,1.78,1.95,1.78.21,0,.4-.01.56-.02v1.84c-.2.04-.67.08-1.15.08-2.98,0-3.71-1.1-3.71-3.56v-6.96h-1.69v-1.92h1.71v-3.05Z"/>
    <path class="cls-2" d="M187.13,108.18c.8,0,1.44.6,1.44,1.39s-.64,1.39-1.44,1.39-1.44-.6-1.44-1.39.64-1.39,1.44-1.39ZM185.95,112.58h2.37v12.35h-2.37v-12.35Z"/>
    <path class="cls-2" d="M196.07,112.37c2.92,0,4.5,1.59,4.5,3.73h-2.16c-.07-.89-.63-1.91-2.41-1.91-1.37,0-2.34.62-2.34,1.73,0,1.34,1.69,1.59,3.09,1.85,2.31.41,4.16,1.09,4.16,3.46,0,2.48-1.98,3.91-5.02,3.91-2.87,0-4.75-1.37-4.75-3.59h2.31c.15,1.05,1.07,1.76,2.6,1.76,1.75,0,2.54-.82,2.54-1.79,0-1.32-1.42-1.57-3.09-1.9-2.27-.47-4.14-1.22-4.14-3.47,0-2.65,2.25-3.79,4.7-3.79Z"/>
    <path class="cls-2" d="M208.41,112.58h2.33v1.59h.12c.39-.86,1.46-1.79,3.16-1.79,1.92,0,3.07.8,3.53,2.03h.11c.45-1.05,1.75-2.03,3.77-2.03,2.6,0,4.11,1.62,4.11,4.14v8.41h-2.36v-7.86c0-1.57-.88-2.62-2.5-2.62s-2.55,1.12-2.55,2.79v7.7h-2.32v-7.7c0-1.85-.97-2.79-2.52-2.79-1.41,0-2.53.95-2.53,2.77v7.72h-2.36v-12.35Z"/>
    <path class="cls-2" d="M239.24,118.21v1.04c0,3.43-1.89,5.89-5.4,5.89s-5.44-2.46-5.44-5.89v-1.03c0-3.34,1.91-5.85,5.44-5.85s5.4,2.5,5.4,5.84ZM230.78,118.27v.95c0,2.33,1.04,3.96,3.05,3.96s3.04-1.62,3.04-3.96v-.95c0-2.37-1.03-3.95-3.04-3.95s-3.05,1.59-3.05,3.95Z"/>
    <path class="cls-2" d="M242.17,112.58h2.37v1.57h.08c.33-.75,1.25-1.76,2.99-1.76.3,0,.59.02.83.06v2.12c-.22-.05-.66-.07-1.05-.07-2.13,0-2.82,1.31-2.82,2.98v7.45h-2.39v-12.35Z"/>
    <path class="cls-2" d="M250.08,119.32v-1.3c0-3.39,1.97-5.65,5.23-5.65s5.2,2.32,5.2,5.77v1.17h-8.07v.26c0,2.19,1.15,3.67,3.01,3.67,1.36,0,2.27-.68,2.62-1.78h2.29c-.41,2.02-2.03,3.69-4.96,3.69-3.27,0-5.32-2.23-5.32-5.82ZM258.18,117.57v-.04c0-1.84-1.14-3.28-2.86-3.28s-2.88,1.45-2.88,3.28v.04h5.74Z"/>
    <path class="cls-2" d="M53.29,151.8h-.2v5.96h-4.08v-16.58h4.05v1.95h.2c.55-1.27,1.8-2.07,3.54-2.07,2.77,0,4.58,2.03,4.58,5.89v1c0,3.86-1.82,5.92-4.59,5.92-1.72,0-2.96-.82-3.5-2.06ZM57.18,147.83v-.75c0-1.91-.8-2.91-2.03-2.91s-2.06,1.02-2.06,2.91v.75c0,1.9.84,2.93,2.07,2.93s2.02-.98,2.02-2.93Z"/>
    <path class="cls-2" d="M62.97,147.87v-.93c0-4,2.61-6,5.92-6,3.54,0,5.86,2.3,5.86,6.04v1.29h-7.82v.46c0,1.45.95,2.29,2.11,2.29,1.05,0,1.88-.52,1.98-1.41h3.67c-.14,1.96-1.76,4.36-5.65,4.36-3.57,0-6.07-2.02-6.07-6.09ZM70.87,146.01c0-1.29-.76-2.21-1.95-2.21s-1.99.93-1.99,2.21h3.94Z"/>
    <path class="cls-2" d="M76.8,141.18h4.07v1.9h.19c.21-.84,1.15-2.07,2.79-2.07.59,0,.95.04,1.2.12v3.42c-.27-.11-.86-.16-1.44-.16-1.89,0-2.6,1.08-2.6,2.75v6.6h-4.2v-12.55Z"/>
    <path class="cls-2" d="M91.68,140.95c3.01,0,5.11,1.34,5.11,3.89h-3.53c-.09-.64-.53-1.29-1.64-1.29-.96,0-1.49.49-1.49,1.11,0,1.11,1.95,1.22,3.36,1.48,2.29.41,3.71,1.36,3.71,3.56,0,2.64-2.03,4.27-5.68,4.27s-5.51-1.66-5.51-3.89h3.94c.07.74.73,1.27,1.76,1.27s1.58-.53,1.58-1.11c0-1.02-1.61-1.11-3.08-1.42-2.17-.46-3.93-1.42-3.93-3.79,0-2.91,2.53-4.08,5.39-4.08Z"/>
    <path class="cls-2" d="M110.81,147.03v.74c0,3.89-2.2,6.2-6.05,6.2s-6.08-2.31-6.08-6.18v-.74c0-3.56,2.21-6.11,6.08-6.11s6.05,2.51,6.05,6.08ZM102.8,146.97v.95c0,1.46.43,3.05,1.95,3.05s1.93-1.57,1.93-3.05v-.95c0-1.58-.47-3.04-1.93-3.04s-1.95,1.48-1.95,3.04Z"/>
    <path class="cls-2" d="M112.87,141.18h3.93v1.99h.2c.34-.91,1.46-2.18,3.62-2.18,2.52,0,4.18,1.56,4.18,4.63v8.11h-4.07v-7.12c0-1.76-1-2.25-1.89-2.25-1.1,0-1.92.81-1.92,2.29v7.09h-4.05v-12.55Z"/>
    <path class="cls-2" d="M130.83,153.91c-2.45,0-4.15-1.39-4.15-3.8s1.59-3.77,4.52-3.79h2.85v-1c0-.91-.59-1.43-1.54-1.43s-1.56.56-1.59,1.35h-3.79c.06-2.03,1.28-4.25,5.43-4.25,3.07,0,5.48,1.24,5.48,4.43v8.31h-3.81v-1.49h-.19c-.39.83-1.37,1.66-3.22,1.66ZM134.06,149.67v-1.21h-1.69c-1.07,0-1.69.53-1.69,1.31,0,.9.77,1.37,1.59,1.37.94,0,1.78-.59,1.78-1.48Z"/>
    <path class="cls-2" d="M140.62,136.89h4.07v16.84h-4.07v-16.84Z"/>
    <path class="cls-2" d="M147.47,136.89h4.07v16.84h-4.07v-16.84Z"/>
    <path class="cls-2" d="M162.46,153.01l-.32.84c-.96,2.55-2.39,4.25-6.08,4.25-.88,0-1.76-.09-2.11-.16v-2.77c.23.06.73.09,1.12.09,1.59,0,2.04-.53,2.13-1.41l.05-.23-4.09-12.45h4.48l2.03,9.25h.15l2.12-9.25h4.31s-3.71,11.61-3.8,11.82Z"/>
    <path class="cls-2" d="M172.2,141.18h4.07v1.9h.19c.21-.84,1.15-2.07,2.79-2.07.59,0,.95.04,1.2.12v3.42c-.27-.11-.86-.16-1.44-.16-1.89,0-2.6,1.08-2.6,2.75v6.6h-4.2v-12.55Z"/>
    <path class="cls-2" d="M181.43,147.87v-.93c0-4,2.61-6,5.92-6,3.54,0,5.86,2.3,5.86,6.04v1.29h-7.82v.46c0,1.45.95,2.29,2.11,2.29,1.05,0,1.88-.52,1.98-1.41h3.67c-.14,1.96-1.76,4.36-5.65,4.36-3.57,0-6.07-2.02-6.07-6.09ZM189.33,146.01c0-1.29-.76-2.21-1.95-2.21s-1.99.93-1.99,2.21h3.94Z"/>
    <path class="cls-2" d="M195.37,136.89h4.07v16.84h-4.07v-16.84Z"/>
    <path class="cls-2" d="M201.6,147.87v-.93c0-4,2.61-6,5.92-6,3.54,0,5.86,2.3,5.86,6.04v1.29h-7.82v.46c0,1.45.95,2.29,2.11,2.29,1.05,0,1.88-.52,1.98-1.41h3.67c-.14,1.96-1.76,4.36-5.65,4.36-3.57,0-6.07-2.02-6.07-6.09ZM209.5,146.01c0-1.29-.76-2.21-1.95-2.21s-1.99.93-1.99,2.21h3.94Z"/>
    <path class="cls-2" d="M214.11,141.18h4.37l1.91,8.89h.15l2.2-8.89h4.24l-4.23,12.55h-4.73l-3.91-12.55Z"/>
    <path class="cls-2" d="M231.71,153.91c-2.45,0-4.15-1.39-4.15-3.8s1.59-3.77,4.52-3.79h2.85v-1c0-.91-.59-1.43-1.54-1.43s-1.56.56-1.59,1.35h-3.79c.06-2.03,1.28-4.25,5.43-4.25,3.07,0,5.48,1.24,5.48,4.43v8.31h-3.81v-1.49h-.19c-.39.83-1.37,1.66-3.22,1.66ZM234.93,149.67v-1.21h-1.69c-1.07,0-1.69.53-1.69,1.31,0,.9.77,1.37,1.59,1.37.94,0,1.78-.59,1.78-1.48Z"/>
    <path class="cls-2" d="M241.39,141.18h3.93v1.99h.2c.34-.91,1.46-2.18,3.62-2.18,2.52,0,4.18,1.56,4.18,4.63v8.11h-4.07v-7.12c0-1.76-1-2.25-1.89-2.25-1.1,0-1.92.81-1.92,2.29v7.09h-4.05v-12.55Z"/>
    <path class="cls-2" d="M256.86,138.31h3.93v2.87h2.38v3.06h-2.38v5.12c0,1.03.55,1.41,1.62,1.41.32,0,.66-.01.79-.02v2.91c-.3.05-.95.11-1.76.11-3.26,0-4.68-.96-4.68-3.61v-5.91h-1.85v-3.06h1.96v-2.87Z"/>
    <path class="cls-2" d="M116.39,172.1h-1.7v-1.92h1.7v-1.23c0-2.41,1.22-3.47,3.87-3.47.5,0,.83.04,1.04.07v1.83c-.18-.02-.34-.05-.67-.05-1.29,0-1.91.42-1.91,1.8v1.04h2.41v1.92h-2.39v10.43h-2.36v-10.43Z"/>
    <path class="cls-2" d="M134.01,175.81v1.04c0,3.43-1.89,5.89-5.4,5.89s-5.44-2.46-5.44-5.89v-1.03c0-3.34,1.91-5.85,5.44-5.85s5.4,2.5,5.4,5.84ZM125.55,175.87v.95c0,2.33,1.04,3.96,3.05,3.96s3.04-1.62,3.04-3.96v-.95c0-2.37-1.03-3.95-3.04-3.95s-3.05,1.59-3.05,3.95Z"/>
    <path class="cls-2" d="M136.94,170.18h2.37v1.57h.08c.33-.75,1.25-1.76,2.99-1.76.3,0,.59.02.83.06v2.12c-.22-.05-.66-.07-1.05-.07-2.13,0-2.82,1.31-2.82,2.98v7.45h-2.39v-12.35Z"/>
    <path class="cls-2" d="M155.65,182.46l-.32.86c-.74,1.96-1.7,3.69-4.46,3.69-.52,0-1.09-.06-1.39-.11v-1.84c.19.04.64.06.94.06,1.49,0,2.06-.68,2.37-1.88l.16-.59-4.46-12.48h2.62l3.11,9.94h.08l3.13-9.94h2.52s-4.28,12.23-4.29,12.28Z"/>
    <path class="cls-2" d="M171.97,175.81v1.04c0,3.43-1.89,5.89-5.4,5.89s-5.44-2.46-5.44-5.89v-1.03c0-3.34,1.91-5.85,5.44-5.85s5.4,2.5,5.4,5.84ZM163.51,175.87v.95c0,2.33,1.04,3.96,3.05,3.96s3.04-1.62,3.04-3.96v-.95c0-2.37-1.03-3.95-3.04-3.95s-3.05,1.59-3.05,3.95Z"/>
    <path class="cls-2" d="M185.05,182.53h-2.33v-1.68h-.09c-.42.97-1.58,1.88-3.57,1.88-2.54,0-4.32-1.46-4.32-4.32v-8.23h2.37v7.57c0,2.23,1.28,2.89,2.77,2.89,1.64,0,2.82-1.04,2.82-2.93v-7.54h2.37v12.35Z"/>
    <path class="cls-2" d="M192.43,166.17c2.51,0,4.84,1.32,4.84,4.09,0,1.97-1.17,2.93-2.29,3.8-1.35,1.04-1.85,1.44-1.85,2.78v.68h-2.24v-.91c-.06-1.7.98-2.72,2.18-3.63,1.09-.84,1.78-1.38,1.78-2.58,0-1.61-1.22-2.25-2.54-2.25-1.76,0-2.62,1.16-2.64,2.67h-2.23c-.05-3.49,2.62-4.64,4.98-4.64ZM192.07,179.9c.82,0,1.49.61,1.49,1.43s-.67,1.43-1.49,1.43-1.49-.61-1.49-1.43.67-1.43,1.49-1.43Z"/>
  </g>
</svg>