<?xml version="1.0" encoding="UTF-8"?>
<svg id="Layer_1" data-name="Layer 1" xmlns="http://www.w3.org/2000/svg" viewBox="0 0 311.81 426.56">
  <defs>
    <style>
      .cls-1 {
        stroke-dasharray: 0 0 10.88 10.88;
      }

      .cls-1, .cls-2 {
        fill: none;
        stroke: #000;
        stroke-miterlimit: 10;
        stroke-width: 2px;
      }

      .cls-3, .cls-4, .cls-5 {
        stroke-width: 0px;
      }

      .cls-4 {
        fill: #231f20;
      }

      .cls-5 {
        fill: #efdabb;
      }
    </style>
  </defs>
  <rect class="cls-5" width="311.81" height="426.56" rx="19.45" ry="19.45"/>
  <g>
    <path class="cls-4" d="m83.76,177.58v-18.68h-6.36v-3.98h17.51v3.98h-6.36v18.68h-4.8Z"/>
    <path class="cls-4" d="m97.31,153.72h4.67v8.83h.2c.55-1.23,2.11-2.91,5.05-2.91,3.55,0,6.04,2.24,6.04,6.56v11.37h-4.67v-10.33c0-2.66-1.51-3.65-3.29-3.65-2.11,0-3.34,1.51-3.34,3.72v10.26h-4.67v-23.86Z"/>
    <path class="cls-4" d="m122.16,177.84c-3.44,0-5.81-2.03-5.81-5.36s2.21-5.21,6.29-5.21h4.25v-1.56c0-1.66-1.01-2.59-2.74-2.59s-2.71.93-2.79,2.27h-4.37c.12-2.94,1.98-5.74,7.24-5.74,4.1,0,7.25,1.86,7.25,6.06v11.87h-4.4v-2.14h-.2c-.66,1.28-2.12,2.41-4.73,2.41Zm4.73-6.04v-1.83h-3.14c-1.84,0-2.77.88-2.77,2.17,0,1.58,1.33,2.34,2.72,2.34,1.76,0,3.19-1.08,3.19-2.69Z"/>
    <path class="cls-4" d="m135.53,159.91h4.55v2.64h.2c.55-1.23,2.16-2.91,5.13-2.91,3.57,0,6.04,2.24,6.04,6.56v11.37h-4.67v-10.33c0-2.66-1.53-3.65-3.27-3.65-2.11,0-3.32,1.51-3.32,3.72v10.26h-4.67v-17.66Z"/>
    <path class="cls-4" d="m160.15,177.58h-4.67v-23.86h4.67v13.35h.22l5.51-7.16h5.38l-6.34,7.62,6.77,10.04h-5.5l-4.86-7.39-1.18,1.39v5.99Z"/>
    <path class="cls-4" d="m185.56,177.58v-8.38l-7.59-14.28h5.3l4.67,9.51h.17l4.68-9.51h5.16l-7.59,14.16v8.5h-4.8Z"/>
    <path class="cls-4" d="m213.41,168.07v1.25c0,5.21-2.91,8.58-8.15,8.58s-8.2-3.37-8.2-8.57v-1.25c0-4.9,2.94-8.48,8.2-8.48s8.15,3.55,8.15,8.47Zm-11.62-.02v1.36c0,2.62,1,4.9,3.45,4.9s3.45-2.26,3.45-4.9v-1.36c0-2.74-1.03-4.88-3.45-4.88s-3.45,2.16-3.45,4.88Z"/>
    <path class="cls-4" d="m232.55,177.58h-4.55v-2.62h-.22c-.53,1.36-2.14,2.89-5.1,2.89-3.59,0-5.99-2.11-5.99-6.28v-11.65h4.68v10.43c0,2.82,1.59,3.57,3.2,3.57,1.84,0,3.3-1.21,3.3-3.62v-10.38h4.67v17.66Z"/>
    <path class="cls-4" d="m26.6,191.73h-1.35v-1.91h1.35v-.92c0-1.9.98-2.65,3.2-2.65.59,0,.9.04,1.07.06v1.74c-.12-.02-.29-.04-.58-.04-.86,0-1.29.27-1.29,1.09v.72h1.79v1.91h-1.74v7.44h-2.45v-7.44Z"/>
    <path class="cls-4" d="m40.61,194.14v.66c0,2.76-1.54,4.54-4.32,4.54s-4.34-1.78-4.34-4.54v-.66c0-2.59,1.56-4.49,4.34-4.49s4.32,1.88,4.32,4.48Zm-6.15,0v.72c0,1.39.53,2.59,1.83,2.59s1.83-1.2,1.83-2.59v-.72c0-1.45-.54-2.58-1.83-2.58s-1.83,1.14-1.83,2.58Z"/>
    <path class="cls-4" d="m42.44,189.83h2.48v1.32h.11c.2-.61.9-1.45,2.16-1.45.34,0,.59.03.76.07v2.13c-.18-.06-.57-.1-.95-.1-1.49,0-2.02.89-2.02,2.14v5.24h-2.54v-9.35Z"/>
    <path class="cls-4" d="m52.5,194.08c0-2.6,1.57-4.42,4.22-4.42,2.4,0,3.86,1.51,3.91,3.38h-2.27c-.11-.76-.7-1.42-1.54-1.42-1.14,0-1.84.96-1.84,2.5v.7c0,1.61.71,2.58,1.85,2.58,1.01,0,1.47-.62,1.56-1.34h2.27c-.18,2.18-1.73,3.29-3.96,3.29-2.6,0-4.21-1.75-4.21-4.52v-.75Z"/>
    <path class="cls-4" d="m70.65,194.14v.66c0,2.76-1.54,4.54-4.32,4.54s-4.34-1.78-4.34-4.54v-.66c0-2.59,1.56-4.49,4.34-4.49s4.32,1.88,4.32,4.48Zm-6.15,0v.72c0,1.39.53,2.59,1.83,2.59s1.83-1.2,1.83-2.59v-.72c0-1.45-.54-2.58-1.83-2.58s-1.83,1.14-1.83,2.58Z"/>
    <path class="cls-4" d="m72.48,189.83h2.41v1.4h.11c.29-.65,1.14-1.54,2.72-1.54,1.89,0,3.2,1.19,3.2,3.47v6.02h-2.47v-5.47c0-1.41-.81-1.93-1.73-1.93-1.12,0-1.76.8-1.76,1.97v5.43h-2.47v-9.35Z"/>
    <path class="cls-4" d="m83.75,187.62h2.4v2.21h1.8v1.91h-1.8v4.43c0,.9.4,1.18,1.33,1.18.2,0,.4,0,.51-.02v1.82c-.18.04-.62.08-1.11.08-2.35,0-3.18-.77-3.18-2.7v-4.79h-1.34v-1.91h1.39v-2.21Z"/>
    <path class="cls-4" d="m89.89,189.83h2.48v1.32h.11c.2-.61.9-1.45,2.16-1.45.34,0,.59.03.76.07v2.13c-.18-.06-.57-.1-.95-.1-1.49,0-2.02.89-2.02,2.14v5.24h-2.54v-9.35Z"/>
    <path class="cls-4" d="m98.29,186.23c.76,0,1.38.51,1.38,1.27s-.62,1.27-1.38,1.27-1.37-.51-1.37-1.27.62-1.27,1.37-1.27Zm-1.23,3.59h2.47v9.35h-2.47v-9.35Z"/>
    <path class="cls-4" d="m104.42,197.73h-.11v1.45h-2.44v-12.63h2.48v4.66h.11c.4-.88,1.43-1.49,2.68-1.49,2.11,0,3.52,1.52,3.52,4.38v.81c0,2.8-1.39,4.39-3.53,4.39-1.33,0-2.26-.61-2.71-1.56Zm3.7-2.91v-.63c0-1.65-.76-2.51-1.83-2.51-1.19,0-1.95.85-1.95,2.51v.62c0,1.66.76,2.53,1.95,2.53,1.08,0,1.83-.87,1.83-2.52Z"/>
    <path class="cls-4" d="m120.81,199.18h-2.41v-1.39h-.11c-.28.72-1.13,1.53-2.7,1.53-1.9,0-3.17-1.12-3.17-3.32v-6.17h2.48v5.52c0,1.49.84,1.89,1.7,1.89.98,0,1.75-.64,1.75-1.92v-5.49h2.47v9.35Z"/>
    <path class="cls-4" d="m123.79,187.62h2.4v2.21h1.8v1.91h-1.8v4.43c0,.9.4,1.18,1.33,1.18.2,0,.4,0,.51-.02v1.82c-.18.04-.62.08-1.11.08-2.35,0-3.18-.77-3.18-2.7v-4.79h-1.34v-1.91h1.39v-2.21Z"/>
    <path class="cls-4" d="m131.25,186.23c.76,0,1.38.51,1.38,1.27s-.62,1.27-1.38,1.27-1.37-.51-1.37-1.27.62-1.27,1.37-1.27Zm-1.23,3.59h2.47v9.35h-2.47v-9.35Z"/>
    <path class="cls-4" d="m134.79,189.83h2.41v1.4h.11c.29-.65,1.14-1.54,2.72-1.54,1.89,0,3.2,1.19,3.2,3.47v6.02h-2.47v-5.47c0-1.41-.81-1.93-1.73-1.93-1.12,0-1.76.8-1.76,1.97v5.43h-2.47v-9.35Z"/>
    <path class="cls-4" d="m151.26,198.94v-1.37h-.11c-.34.83-1.32,1.48-2.63,1.48-2.11,0-3.53-1.52-3.53-4.4v-.54c0-2.86,1.42-4.39,3.53-4.39,1.29,0,2.28.64,2.65,1.51h.11v-1.4h2.44v9.29c0,2.59-2.29,3.52-4.41,3.52-2.75,0-4.01-1.29-4.12-2.86h2.38c.15.63.82,1.07,1.78,1.07,1.2,0,1.91-.69,1.91-1.92Zm-3.73-4.77v.54c0,1.62.72,2.51,1.88,2.51s1.85-.9,1.85-2.51v-.54c0-1.59-.74-2.5-1.85-2.5s-1.88.88-1.88,2.5Z"/>
    <path class="cls-4" d="m160.25,187.62h2.4v2.21h1.8v1.91h-1.8v4.43c0,.9.4,1.18,1.33,1.18.2,0,.4,0,.51-.02v1.82c-.18.04-.62.08-1.11.08-2.35,0-3.18-.77-3.18-2.7v-4.79h-1.34v-1.91h1.39v-2.21Z"/>
    <path class="cls-4" d="m174.53,194.14v.66c0,2.76-1.54,4.54-4.32,4.54s-4.34-1.78-4.34-4.54v-.66c0-2.59,1.56-4.49,4.34-4.49s4.32,1.88,4.32,4.48Zm-6.15,0v.72c0,1.39.53,2.59,1.83,2.59s1.83-1.2,1.83-2.59v-.72c0-1.45-.54-2.58-1.83-2.58s-1.83,1.14-1.83,2.58Z"/>
    <path class="cls-4" d="m188.18,194.14v.66c0,2.76-1.54,4.54-4.32,4.54s-4.34-1.78-4.34-4.54v-.66c0-2.59,1.56-4.49,4.34-4.49s4.32,1.88,4.32,4.48Zm-6.15,0v.72c0,1.39.53,2.59,1.83,2.59s1.83-1.2,1.83-2.59v-.72c0-1.45-.54-2.58-1.83-2.58s-1.83,1.14-1.83,2.58Z"/>
    <path class="cls-4" d="m198.32,199.18h-2.41v-1.39h-.11c-.28.72-1.13,1.53-2.7,1.53-1.9,0-3.17-1.12-3.17-3.32v-6.17h2.48v5.52c0,1.49.84,1.89,1.7,1.89.98,0,1.75-.64,1.75-1.92v-5.49h2.47v9.35Z"/>
    <path class="cls-4" d="m200.53,189.83h2.48v1.32h.11c.2-.61.9-1.45,2.16-1.45.34,0,.59.03.76.07v2.13c-.18-.06-.57-.1-.95-.1-1.49,0-2.02.89-2.02,2.14v5.24h-2.54v-9.35Z"/>
    <path class="cls-4" d="m210.96,189.83h2.48v1.32h.11c.2-.61.9-1.45,2.16-1.45.34,0,.59.03.76.07v2.13c-.18-.06-.57-.1-.95-.1-1.49,0-2.02.89-2.02,2.14v5.24h-2.54v-9.35Z"/>
    <path class="cls-4" d="m217.44,194.86v-.82c0-2.79,1.74-4.39,4.2-4.39s4.17,1.73,4.17,4.44v.92h-5.95v.28c0,1.34.78,2.18,1.89,2.18.9,0,1.54-.44,1.71-1.18h2.28c-.19,1.49-1.41,3.04-4,3.04s-4.3-1.58-4.3-4.48Zm5.99-1.35v-.02c0-1.15-.7-2.02-1.78-2.02s-1.79.88-1.79,2.02v.02h3.57Z"/>
    <path class="cls-4" d="m231.14,189.66c2.22,0,3.62,1.09,3.62,2.87h-2.18c-.06-.56-.43-1.18-1.49-1.18-.86,0-1.41.41-1.41,1.05,0,.91,1.37,1.05,2.43,1.24,1.72.31,2.94.92,2.94,2.63,0,1.93-1.5,3.08-4.03,3.08s-3.88-1.15-3.88-2.81h2.4c.09.66.67,1.12,1.61,1.12,1.03,0,1.51-.5,1.51-1.07,0-.87-1.14-.98-2.31-1.22-1.67-.35-3.01-.99-3.01-2.73,0-2.09,1.8-2.96,3.81-2.96Z"/>
    <path class="cls-4" d="m236.41,194.86v-.82c0-2.79,1.74-4.39,4.2-4.39s4.17,1.73,4.17,4.44v.92h-5.95v.28c0,1.34.78,2.18,1.89,2.18.9,0,1.54-.44,1.71-1.18h2.28c-.19,1.49-1.41,3.04-4,3.04s-4.3-1.58-4.3-4.48Zm5.99-1.35v-.02c0-1.15-.7-2.02-1.78-2.02s-1.79.88-1.79,2.02v.02h3.57Z"/>
    <path class="cls-4" d="m249.21,199.32c-1.82,0-3.08-1.07-3.08-2.84s1.17-2.76,3.33-2.76h2.25v-.83c0-.88-.54-1.37-1.45-1.37s-1.43.49-1.48,1.2h-2.31c.06-1.56,1.05-3.04,3.83-3.04,2.17,0,3.84.98,3.84,3.21v6.28h-2.33v-1.13h-.11c-.35.68-1.12,1.27-2.5,1.27Zm2.5-3.2v-.97h-1.66c-.98,0-1.47.47-1.47,1.15,0,.83.7,1.24,1.44,1.24.93,0,1.69-.57,1.69-1.42Z"/>
    <path class="cls-4" d="m256.29,189.83h2.48v1.32h.11c.2-.61.9-1.45,2.16-1.45.34,0,.59.03.76.07v2.13c-.18-.06-.57-.1-.95-.1-1.49,0-2.02.89-2.02,2.14v5.24h-2.54v-9.35Z"/>
    <path class="cls-4" d="m262.77,194.08c0-2.6,1.57-4.42,4.22-4.42,2.4,0,3.86,1.51,3.91,3.38h-2.27c-.11-.76-.7-1.42-1.54-1.42-1.14,0-1.84.96-1.84,2.5v.7c0,1.61.71,2.58,1.85,2.58,1.01,0,1.47-.62,1.56-1.34h2.27c-.18,2.18-1.73,3.29-3.96,3.29-2.6,0-4.21-1.75-4.21-4.52v-.75Z"/>
    <path class="cls-4" d="m272.67,186.55h2.47v4.68h.11c.29-.65,1.12-1.54,2.67-1.54,1.88,0,3.2,1.19,3.2,3.47v6.02h-2.47v-5.47c0-1.41-.8-1.93-1.74-1.93-1.12,0-1.77.8-1.77,1.97v5.43h-2.47v-12.63Z"/>
    <path class="cls-4" d="m284.6,196.78c.76,0,1.39.52,1.39,1.28s-.62,1.29-1.39,1.29-1.4-.52-1.4-1.29.62-1.28,1.4-1.28Zm1.35-9.6l-.29,8.33h-2.14l-.28-8.33h2.72Z"/>
    <path class="cls-4" d="m28.26,244.78v-4.41l-3.57-6.25h1.81l2.54,4.66h.05l2.55-4.66h1.78l-3.57,6.23v4.44h-1.59Z"/>
    <path class="cls-4" d="m40.42,240.29v.7c0,2.29-1.26,3.93-3.6,3.93s-3.62-1.64-3.62-3.93v-.69c0-2.23,1.27-3.9,3.62-3.9s3.6,1.66,3.6,3.89Zm-5.64.04v.63c0,1.55.7,2.64,2.03,2.64s2.02-1.08,2.02-2.64v-.63c0-1.58-.69-2.63-2.02-2.63s-2.03,1.06-2.03,2.63Z"/>
    <path class="cls-4" d="m49.14,244.78h-1.55v-1.12h-.06c-.28.65-1.05,1.25-2.38,1.25-1.7,0-2.88-.98-2.88-2.88v-5.48h1.58v5.05c0,1.48.85,1.93,1.84,1.93,1.09,0,1.88-.7,1.88-1.95v-5.02h1.58v8.23Z"/>
    <path class="cls-4" d="m51.42,236.54h1.58v1.05h.05c.22-.5.84-1.17,1.99-1.17.2,0,.39.02.55.04v1.41c-.15-.03-.44-.05-.7-.05-1.42,0-1.88.88-1.88,1.98v4.97h-1.59v-8.23Z"/>
    <path class="cls-4" d="m65.49,237.7h.05v-4.15h1.58v11.23h-1.53v-1.25h-.05c-.44.84-1.3,1.37-2.41,1.37-2.1,0-3.24-1.55-3.24-3.88v-.73c0-2.28,1.2-3.88,3.24-3.88,1.1,0,1.96.55,2.36,1.29Zm-4,2.64v.63c0,1.73.84,2.59,2,2.59,1.28,0,2.07-.92,2.07-2.59v-.64c0-1.59-.8-2.6-2.09-2.6-1.15,0-1.98.86-1.98,2.6Z"/>
    <path class="cls-4" d="m71.66,244.91c-1.59,0-2.69-.98-2.69-2.5s1.01-2.38,2.9-2.38h2.12v-.8c0-1-.58-1.55-1.61-1.55s-1.55.51-1.62,1.27h-1.48c.08-1.41,1.03-2.54,3.15-2.54,1.8,0,3.13.93,3.13,2.73v5.64h-1.51v-1.02h-.05c-.38.64-1.12,1.15-2.34,1.15Zm2.33-2.86v-.93h-1.9c-1.05,0-1.52.5-1.52,1.21,0,.91.75,1.34,1.55,1.34,1.06,0,1.87-.66,1.87-1.62Z"/>
    <path class="cls-4" d="m78.32,234.51h1.55v2.03h1.62v1.28h-1.62v4.56c0,.94.34,1.19,1.3,1.19.14,0,.27,0,.38-.02v1.23c-.13.02-.45.05-.77.05-1.98,0-2.48-.73-2.48-2.38v-4.64h-1.12v-1.28h1.14v-2.03Z"/>
    <path class="cls-4" d="m85.57,244.91c-1.59,0-2.69-.98-2.69-2.5s1.01-2.38,2.9-2.38h2.12v-.8c0-1-.58-1.55-1.61-1.55s-1.55.51-1.62,1.27h-1.48c.08-1.41,1.03-2.54,3.15-2.54,1.8,0,3.13.93,3.13,2.73v5.64h-1.51v-1.02h-.05c-.38.64-1.12,1.15-2.34,1.15Zm2.33-2.86v-.93h-1.9c-1.05,0-1.52.5-1.52,1.21,0,.91.75,1.34,1.55,1.34,1.06,0,1.87-.66,1.87-1.62Z"/>
    <path class="cls-4" d="m94.88,233.55h1.58v4.12h.05c.29-.54,1.04-1.26,2.38-1.26,1.69,0,2.92,1.07,2.92,3.08v5.29h-1.58v-4.99c0-1.34-.78-1.98-1.88-1.98-1.3,0-1.9.92-1.9,2.02v4.95h-1.58v-11.23Z"/>
    <path class="cls-4" d="m106.21,244.91c-1.59,0-2.69-.98-2.69-2.5s1.01-2.38,2.9-2.38h2.12v-.8c0-1-.58-1.55-1.61-1.55s-1.55.51-1.62,1.27h-1.48c.08-1.41,1.03-2.54,3.15-2.54,1.8,0,3.13.93,3.13,2.73v5.64h-1.51v-1.02h-.05c-.38.64-1.12,1.15-2.34,1.15Zm2.33-2.86v-.93h-1.9c-1.05,0-1.52.5-1.52,1.21,0,.91.75,1.34,1.55,1.34,1.06,0,1.87-.66,1.87-1.62Z"/>
    <path class="cls-4" d="m115.12,236.4c1.95,0,3,1.06,3,2.48h-1.44c-.05-.59-.42-1.27-1.61-1.27-.91,0-1.56.41-1.56,1.16,0,.89,1.12,1.06,2.06,1.23,1.54.27,2.77.73,2.77,2.3,0,1.66-1.32,2.61-3.34,2.61-1.91,0-3.16-.91-3.16-2.39h1.54c.1.7.71,1.17,1.73,1.17,1.16,0,1.7-.55,1.7-1.2,0-.88-.95-1.05-2.06-1.27-1.52-.31-2.76-.81-2.76-2.31,0-1.77,1.5-2.52,3.13-2.52Z"/>
    <path class="cls-4" d="m124.96,243.53h-.05v1.25h-1.53v-11.23h1.58v4.14h.05c.41-.73,1.34-1.27,2.4-1.27,1.91,0,3.23,1.36,3.23,3.84v.78c0,2.41-1.28,3.86-3.23,3.86-1.17,0-1.98-.53-2.44-1.38Zm4.07-2.55v-.62c0-1.69-.8-2.6-1.95-2.6-1.33,0-2.14.91-2.14,2.6v.61c0,1.7.8,2.62,2.14,2.62,1.16,0,1.95-.92,1.95-2.6Z"/>
    <path class="cls-4" d="m132.25,241.04v-.87c0-2.26,1.31-3.77,3.48-3.77s3.47,1.55,3.47,3.84v.78h-5.38v.17c0,1.46.77,2.45,2.01,2.45.91,0,1.52-.45,1.75-1.19h1.52c-.27,1.34-1.35,2.46-3.3,2.46-2.18,0-3.55-1.48-3.55-3.88Zm5.4-1.16v-.02c0-1.23-.76-2.19-1.91-2.19s-1.92.97-1.92,2.19v.02h3.83Z"/>
    <path class="cls-4" d="m140.78,241.04v-.87c0-2.26,1.31-3.77,3.48-3.77s3.47,1.55,3.47,3.84v.78h-5.38v.17c0,1.46.77,2.45,2.01,2.45.91,0,1.52-.45,1.75-1.19h1.52c-.27,1.34-1.35,2.46-3.3,2.46-2.18,0-3.55-1.48-3.55-3.88Zm5.4-1.16v-.02c0-1.23-.76-2.19-1.91-2.19s-1.92.97-1.92,2.19v.02h3.83Z"/>
    <path class="cls-4" d="m149.66,236.54h1.55v1.12h.05c.29-.54,1.05-1.26,2.4-1.26,1.69,0,2.91,1.07,2.91,3.08v5.29h-1.57v-4.99c0-1.34-.79-1.98-1.88-1.98-1.3,0-1.9.92-1.9,2.02v4.95h-1.57v-8.23Z"/>
    <path class="cls-4" d="m164.75,236.4c1.95,0,3,1.06,3,2.48h-1.44c-.05-.59-.42-1.27-1.61-1.27-.91,0-1.56.41-1.56,1.16,0,.89,1.12,1.06,2.06,1.23,1.54.27,2.77.73,2.77,2.3,0,1.66-1.32,2.61-3.34,2.61-1.91,0-3.16-.91-3.16-2.39h1.54c.1.7.71,1.17,1.73,1.17,1.16,0,1.7-.55,1.7-1.2,0-.88-.95-1.05-2.06-1.27-1.52-.31-2.76-.81-2.76-2.31,0-1.77,1.5-2.52,3.13-2.52Z"/>
    <path class="cls-4" d="m176.55,244.78h-1.55v-1.12h-.06c-.28.65-1.05,1.25-2.38,1.25-1.7,0-2.88-.98-2.88-2.88v-5.48h1.58v5.05c0,1.48.85,1.93,1.84,1.93,1.09,0,1.88-.7,1.88-1.95v-5.02h1.58v8.23Z"/>
    <path class="cls-4" d="m178.5,240.24c0-2.24,1.3-3.84,3.5-3.84,1.97,0,3.16,1.28,3.23,2.65h-1.52c-.16-.7-.77-1.31-1.62-1.31-1.27,0-2.01.96-2.01,2.54v.73c0,1.56.78,2.56,2.02,2.56.98,0,1.53-.55,1.66-1.2h1.51c-.23,1.55-1.37,2.54-3.27,2.54-2.22,0-3.5-1.65-3.5-3.91v-.77Z"/>
    <path class="cls-4" d="m186.71,240.24c0-2.24,1.3-3.84,3.5-3.84,1.97,0,3.16,1.28,3.23,2.65h-1.52c-.16-.7-.77-1.31-1.62-1.31-1.27,0-2.01.96-2.01,2.54v.73c0,1.56.78,2.56,2.02,2.56.98,0,1.53-.55,1.66-1.2h1.51c-.23,1.55-1.37,2.54-3.27,2.54-2.22,0-3.5-1.65-3.5-3.91v-.77Z"/>
    <path class="cls-4" d="m194.93,241.04v-.87c0-2.26,1.31-3.77,3.48-3.77s3.47,1.55,3.47,3.84v.78h-5.38v.17c0,1.46.77,2.45,2.01,2.45.91,0,1.52-.45,1.75-1.19h1.52c-.27,1.34-1.35,2.46-3.3,2.46-2.18,0-3.55-1.48-3.55-3.88Zm5.4-1.16v-.02c0-1.23-.76-2.19-1.91-2.19s-1.92.97-1.92,2.19v.02h3.83Z"/>
    <path class="cls-4" d="m206.62,236.4c1.95,0,3,1.06,3,2.48h-1.44c-.05-.59-.42-1.27-1.61-1.27-.91,0-1.56.41-1.56,1.16,0,.89,1.12,1.06,2.06,1.23,1.54.27,2.77.73,2.77,2.3,0,1.66-1.32,2.61-3.34,2.61-1.91,0-3.16-.91-3.16-2.39h1.54c.1.7.71,1.17,1.73,1.17,1.16,0,1.7-.55,1.7-1.2,0-.88-.95-1.05-2.06-1.27-1.52-.31-2.76-.81-2.76-2.31,0-1.77,1.5-2.52,3.13-2.52Z"/>
    <path class="cls-4" d="m214.47,236.4c1.95,0,3,1.06,3,2.48h-1.44c-.05-.59-.42-1.27-1.61-1.27-.91,0-1.56.41-1.56,1.16,0,.89,1.12,1.06,2.06,1.23,1.54.27,2.77.73,2.77,2.3,0,1.66-1.32,2.61-3.34,2.61-1.91,0-3.16-.91-3.16-2.39h1.54c.1.7.71,1.17,1.73,1.17,1.16,0,1.7-.55,1.7-1.2,0-.88-.95-1.05-2.06-1.27-1.52-.31-2.76-.81-2.76-2.31,0-1.77,1.5-2.52,3.13-2.52Z"/>
    <path class="cls-4" d="m220.07,237.83h-1.13v-1.28h1.13v-.82c0-1.61.81-2.31,2.58-2.31.34,0,.55.02.7.05v1.22c-.12-.02-.23-.03-.45-.03-.86,0-1.27.28-1.27,1.2v.7h1.61v1.28h-1.59v6.95h-1.57v-6.95Z"/>
    <path class="cls-4" d="m231.75,244.78h-1.55v-1.12h-.06c-.28.65-1.05,1.25-2.38,1.25-1.7,0-2.88-.98-2.88-2.88v-5.48h1.58v5.05c0,1.48.85,1.93,1.84,1.93,1.09,0,1.88-.7,1.88-1.95v-5.02h1.58v8.23Z"/>
    <path class="cls-4" d="m234.08,233.55h1.57v11.23h-1.57v-11.23Z"/>
    <path class="cls-4" d="m238.04,233.55h1.57v11.23h-1.57v-11.23Z"/>
    <path class="cls-4" d="m245.78,244.73l-.21.57c-.49,1.3-1.13,2.46-2.98,2.46-.34,0-.73-.04-.93-.07v-1.23c.12.02.43.04.62.04.99,0,1.38-.45,1.58-1.25l.11-.39-2.98-8.32h1.75l2.07,6.62h.05l2.09-6.62h1.68s-2.85,8.16-2.86,8.19Z"/>
    <path class="cls-4" d="m255.81,236.4c1.95,0,3,1.06,3,2.48h-1.44c-.05-.59-.42-1.27-1.61-1.27-.91,0-1.56.41-1.56,1.16,0,.89,1.12,1.06,2.06,1.23,1.54.27,2.77.73,2.77,2.3,0,1.66-1.32,2.61-3.34,2.61-1.91,0-3.16-.91-3.16-2.39h1.54c.1.7.71,1.17,1.73,1.17,1.16,0,1.7-.55,1.7-1.2,0-.88-.95-1.05-2.06-1.27-1.52-.31-2.76-.81-2.76-2.31,0-1.77,1.5-2.52,3.13-2.52Z"/>
    <path class="cls-4" d="m260.51,241.04v-.87c0-2.26,1.31-3.77,3.48-3.77s3.47,1.55,3.47,3.84v.78h-5.38v.17c0,1.46.77,2.45,2.01,2.45.91,0,1.52-.45,1.75-1.19h1.52c-.27,1.34-1.35,2.46-3.3,2.46-2.18,0-3.55-1.48-3.55-3.88Zm5.4-1.16v-.02c0-1.23-.76-2.19-1.91-2.19s-1.92.97-1.92,2.19v.02h3.83Z"/>
    <path class="cls-4" d="m269.39,236.54h1.55v1.12h.05c.29-.54,1.05-1.26,2.4-1.26,1.69,0,2.91,1.07,2.91,3.08v5.29h-1.57v-4.99c0-1.34-.79-1.98-1.88-1.98-1.3,0-1.9.92-1.9,2.02v4.95h-1.57v-8.23Z"/>
    <path class="cls-4" d="m279.03,234.51h1.55v2.03h1.62v1.28h-1.62v4.56c0,.94.34,1.19,1.3,1.19.14,0,.27,0,.38-.02v1.23c-.13.02-.45.05-.77.05-1.98,0-2.48-.73-2.48-2.38v-4.64h-1.12v-1.28h1.14v-2.03Z"/>
    <path class="cls-4" d="m285.14,242.93c.55,0,1.01.45,1.01,1.01s-.45,1-1.01,1-1-.45-1-1,.45-1.01,1-1.01Z"/>
    <path class="cls-4" d="m65.48,263.98l-2.9-10.66h1.75l1.93,8.1h.05l2.04-8.1h1.54l2.03,8.1h.05l1.93-8.1h1.75l-2.9,10.66h-1.45l-2.16-8.05h-.05l-2.16,8.05h-1.46Z"/>
    <path class="cls-4" d="m76.19,260.24v-.87c0-2.26,1.31-3.77,3.48-3.77s3.47,1.55,3.47,3.84v.78h-5.38v.17c0,1.46.77,2.45,2.01,2.45.91,0,1.52-.45,1.75-1.19h1.52c-.27,1.34-1.35,2.46-3.3,2.46-2.18,0-3.55-1.48-3.55-3.88Zm5.4-1.16v-.02c0-1.23-.76-2.19-1.91-2.19s-1.92.97-1.92,2.19v.02h3.83Z"/>
    <path class="cls-4" d="m93.57,263.86v-1.27h-.05c-.32.72-1.21,1.3-2.34,1.3-1.91,0-3.24-1.35-3.24-3.84v-.62c0-2.45,1.33-3.81,3.24-3.81,1.12,0,2.02.59,2.38,1.3h.05v-1.17h1.53v8.16c0,2.16-1.74,3.15-3.6,3.15-2.19,0-3.27-1.06-3.43-2.44h1.58c.15.64.81,1.2,1.86,1.2,1.23,0,2.02-.73,2.02-1.95Zm-4.05-4.34v.49c0,1.63.77,2.59,2.05,2.59s1.99-.97,1.99-2.59v-.49c0-1.6-.78-2.59-1.99-2.59-1.29,0-2.05.93-2.05,2.59Z"/>
    <path class="cls-4" d="m97.44,255.74h1.58v1.05h.05c.22-.5.84-1.17,1.99-1.17.2,0,.39.02.55.04v1.41c-.15-.03-.44-.05-.7-.05-1.42,0-1.88.88-1.88,1.98v4.97h-1.59v-8.23Z"/>
    <path class="cls-4" d="m102.72,260.24v-.87c0-2.26,1.31-3.77,3.48-3.77s3.47,1.55,3.47,3.84v.78h-5.38v.17c0,1.46.77,2.45,2.01,2.45.91,0,1.52-.45,1.75-1.19h1.52c-.27,1.34-1.35,2.46-3.3,2.46-2.18,0-3.55-1.48-3.55-3.88Zm5.4-1.16v-.02c0-1.23-.76-2.19-1.91-2.19s-1.92.97-1.92,2.19v.02h3.83Z"/>
    <path class="cls-4" d="m113.83,264.11c-1.59,0-2.69-.98-2.69-2.5s1.01-2.38,2.9-2.38h2.12v-.8c0-1-.58-1.55-1.61-1.55s-1.55.51-1.62,1.27h-1.48c.08-1.41,1.03-2.54,3.15-2.54,1.8,0,3.13.93,3.13,2.73v5.64h-1.51v-1.02h-.05c-.38.64-1.12,1.15-2.34,1.15Zm2.33-2.86v-.93h-1.9c-1.05,0-1.52.5-1.52,1.21,0,.91.75,1.34,1.55,1.34,1.06,0,1.87-.66,1.87-1.62Z"/>
    <path class="cls-4" d="m120.48,253.71h1.55v2.03h1.62v1.28h-1.62v4.56c0,.94.34,1.19,1.3,1.19.14,0,.27,0,.38-.02v1.23c-.13.02-.45.05-.77.05-1.98,0-2.48-.73-2.48-2.38v-4.64h-1.12v-1.28h1.14v-2.03Z"/>
    <path class="cls-4" d="m125.68,252.75h1.57v11.23h-1.57v-11.23Z"/>
    <path class="cls-4" d="m133.41,263.93l-.21.57c-.49,1.3-1.13,2.46-2.98,2.46-.34,0-.73-.04-.93-.07v-1.23c.12.02.43.04.62.04.99,0,1.38-.45,1.58-1.25l.11-.39-2.98-8.32h1.75l2.07,6.62h.05l2.09-6.62h1.68s-2.85,8.16-2.86,8.19Z"/>
    <path class="cls-4" d="m142.87,264.11c-1.59,0-2.69-.98-2.69-2.5s1.01-2.38,2.9-2.38h2.12v-.8c0-1-.58-1.55-1.61-1.55s-1.55.51-1.62,1.27h-1.48c.08-1.41,1.03-2.54,3.15-2.54,1.8,0,3.13.93,3.13,2.73v5.64h-1.51v-1.02h-.05c-.38.64-1.12,1.15-2.34,1.15Zm2.33-2.86v-.93h-1.9c-1.05,0-1.52.5-1.52,1.21,0,.91.75,1.34,1.55,1.34,1.06,0,1.87-.66,1.87-1.62Z"/>
    <path class="cls-4" d="m150.62,262.85h-.05v3.95h-1.58v-11.06h1.53v1.2h.05c.46-.78,1.3-1.32,2.41-1.32,1.84,0,3.19,1.41,3.19,3.87v.74c0,2.43-1.32,3.88-3.23,3.88-1.06,0-1.88-.51-2.32-1.25Zm3.96-2.73v-.59c0-1.65-.73-2.61-1.97-2.61s-2.06,1.03-2.06,2.6v.59c0,1.62.8,2.65,2.09,2.65,1.16,0,1.94-.92,1.94-2.65Z"/>
    <path class="cls-4" d="m159.77,262.85h-.05v3.95h-1.58v-11.06h1.53v1.2h.05c.46-.78,1.3-1.32,2.41-1.32,1.84,0,3.19,1.41,3.19,3.87v.74c0,2.43-1.32,3.88-3.23,3.88-1.06,0-1.88-.51-2.32-1.25Zm3.96-2.73v-.59c0-1.65-.73-2.61-1.97-2.61s-2.06,1.03-2.06,2.6v.59c0,1.62.8,2.65,2.09,2.65,1.16,0,1.94-.92,1.94-2.65Z"/>
    <path class="cls-4" d="m167.28,255.74h1.58v1.05h.05c.22-.5.84-1.17,1.99-1.17.2,0,.39.02.55.04v1.41c-.15-.03-.44-.05-.7-.05-1.42,0-1.88.88-1.88,1.98v4.97h-1.59v-8.23Z"/>
    <path class="cls-4" d="m172.55,260.24v-.87c0-2.26,1.31-3.77,3.48-3.77s3.47,1.55,3.47,3.84v.78h-5.38v.17c0,1.46.77,2.45,2.01,2.45.91,0,1.52-.45,1.75-1.19h1.52c-.27,1.34-1.35,2.46-3.3,2.46-2.18,0-3.55-1.48-3.55-3.88Zm5.4-1.16v-.02c0-1.23-.76-2.19-1.91-2.19s-1.92.97-1.92,2.19v.02h3.83Z"/>
    <path class="cls-4" d="m181.09,259.44c0-2.24,1.3-3.84,3.5-3.84,1.97,0,3.16,1.28,3.23,2.65h-1.52c-.16-.7-.77-1.31-1.62-1.31-1.27,0-2.01.96-2.01,2.54v.73c0,1.56.78,2.56,2.02,2.56.98,0,1.53-.55,1.66-1.2h1.51c-.23,1.55-1.37,2.54-3.27,2.54-2.22,0-3.5-1.65-3.5-3.91v-.77Z"/>
    <path class="cls-4" d="m190.51,252.81c.53,0,.96.4.96.93s-.43.93-.96.93-.96-.4-.96-.93.43-.93.96-.93Zm-.79,2.94h1.58v8.23h-1.58v-8.23Z"/>
    <path class="cls-4" d="m195.9,264.11c-1.59,0-2.69-.98-2.69-2.5s1.01-2.38,2.9-2.38h2.12v-.8c0-1-.58-1.55-1.61-1.55s-1.55.51-1.62,1.27h-1.48c.08-1.41,1.03-2.54,3.15-2.54,1.8,0,3.13.93,3.13,2.73v5.64h-1.51v-1.02h-.05c-.38.64-1.12,1.15-2.34,1.15Zm2.33-2.86v-.93h-1.9c-1.05,0-1.52.5-1.52,1.21,0,.91.75,1.34,1.55,1.34,1.06,0,1.87-.66,1.87-1.62Z"/>
    <path class="cls-4" d="m202.55,253.71h1.55v2.03h1.62v1.28h-1.62v4.56c0,.94.34,1.19,1.3,1.19.14,0,.27,0,.38-.02v1.23c-.13.02-.45.05-.77.05-1.98,0-2.48-.73-2.48-2.38v-4.64h-1.12v-1.28h1.14v-2.03Z"/>
    <path class="cls-4" d="m207.23,260.24v-.87c0-2.26,1.31-3.77,3.48-3.77s3.47,1.55,3.47,3.84v.78h-5.38v.17c0,1.46.77,2.45,2.01,2.45.91,0,1.52-.45,1.75-1.19h1.52c-.27,1.34-1.35,2.46-3.3,2.46-2.18,0-3.55-1.48-3.55-3.88Zm5.4-1.16v-.02c0-1.23-.76-2.19-1.91-2.19s-1.92.97-1.92,2.19v.02h3.83Z"/>
    <path class="cls-4" d="m222.97,263.93l-.21.57c-.49,1.3-1.13,2.46-2.98,2.46-.34,0-.73-.04-.93-.07v-1.23c.12.02.43.04.62.04.99,0,1.38-.45,1.58-1.25l.11-.39-2.98-8.32h1.75l2.07,6.62h.05l2.09-6.62h1.68s-2.85,8.16-2.86,8.19Z"/>
    <path class="cls-4" d="m233.85,259.49v.7c0,2.29-1.26,3.93-3.6,3.93s-3.62-1.64-3.62-3.93v-.69c0-2.23,1.27-3.9,3.62-3.9s3.6,1.66,3.6,3.89Zm-5.64.04v.63c0,1.55.7,2.64,2.03,2.64s2.02-1.08,2.02-2.64v-.63c0-1.58-.69-2.63-2.02-2.63s-2.03,1.06-2.03,2.63Z"/>
    <path class="cls-4" d="m242.57,263.98h-1.55v-1.12h-.06c-.28.65-1.05,1.25-2.38,1.25-1.7,0-2.88-.98-2.88-2.88v-5.48h1.58v5.05c0,1.48.85,1.93,1.84,1.93,1.09,0,1.88-.7,1.88-1.95v-5.02h1.58v8.23Z"/>
    <path class="cls-4" d="m244.85,255.74h1.58v1.05h.05c.22-.5.84-1.17,1.99-1.17.2,0,.39.02.55.04v1.41c-.15-.03-.44-.05-.7-.05-1.42,0-1.88.88-1.88,1.98v4.97h-1.59v-8.23Z"/>
    <path class="cls-4" d="m111.41,282.05h-.05v3.95h-1.58v-11.06h1.53v1.2h.05c.46-.78,1.3-1.32,2.41-1.32,1.84,0,3.19,1.41,3.19,3.87v.74c0,2.43-1.32,3.88-3.23,3.88-1.06,0-1.88-.51-2.32-1.25Zm3.96-2.73v-.59c0-1.65-.73-2.61-1.97-2.61s-2.06,1.03-2.06,2.6v.59c0,1.62.8,2.65,2.09,2.65,1.16,0,1.94-.92,1.94-2.65Z"/>
    <path class="cls-4" d="m121.15,283.31c-1.59,0-2.69-.98-2.69-2.5s1.01-2.38,2.9-2.38h2.12v-.8c0-1-.58-1.55-1.61-1.55s-1.55.51-1.62,1.27h-1.48c.08-1.41,1.03-2.54,3.15-2.54,1.8,0,3.13.93,3.13,2.73v5.64h-1.51v-1.02h-.05c-.38.64-1.12,1.15-2.34,1.15Zm2.33-2.86v-.93h-1.9c-1.05,0-1.52.5-1.52,1.21,0,.91.75,1.34,1.55,1.34,1.06,0,1.87-.66,1.87-1.62Z"/>
    <path class="cls-4" d="m127.25,274.94h1.58v1.05h.05c.22-.5.84-1.17,1.99-1.17.2,0,.39.02.55.04v1.41c-.15-.03-.44-.05-.7-.05-1.42,0-1.88.88-1.88,1.98v4.97h-1.59v-8.23Z"/>
    <path class="cls-4" d="m133.91,272.91h1.55v2.03h1.62v1.28h-1.62v4.56c0,.94.34,1.19,1.3,1.19.14,0,.27,0,.38-.02v1.23c-.13.02-.45.05-.77.05-1.98,0-2.48-.73-2.48-2.38v-4.64h-1.12v-1.28h1.14v-2.03Z"/>
    <path class="cls-4" d="m139.92,272.01c.53,0,.96.4.96.93s-.43.93-.96.93-.96-.4-.96-.93.43-.93.96-.93Zm-.79,2.94h1.58v8.23h-1.58v-8.23Z"/>
    <path class="cls-4" d="m142.73,278.64c0-2.24,1.3-3.84,3.5-3.84,1.97,0,3.16,1.28,3.23,2.65h-1.52c-.16-.7-.77-1.31-1.62-1.31-1.27,0-2.01.96-2.01,2.54v.73c0,1.56.78,2.56,2.02,2.56.98,0,1.53-.55,1.66-1.2h1.51c-.23,1.55-1.37,2.54-3.27,2.54-2.22,0-3.5-1.65-3.5-3.91v-.77Z"/>
    <path class="cls-4" d="m152.15,272.01c.53,0,.96.4.96.93s-.43.93-.96.93-.96-.4-.96-.93.43-.93.96-.93Zm-.79,2.94h1.58v8.23h-1.58v-8.23Z"/>
    <path class="cls-4" d="m156.95,282.05h-.05v3.95h-1.58v-11.06h1.53v1.2h.05c.46-.78,1.3-1.32,2.41-1.32,1.84,0,3.19,1.41,3.19,3.87v.74c0,2.43-1.32,3.88-3.23,3.88-1.06,0-1.88-.51-2.32-1.25Zm3.96-2.73v-.59c0-1.65-.73-2.61-1.97-2.61s-2.06,1.03-2.06,2.6v.59c0,1.62.8,2.65,2.09,2.65,1.16,0,1.94-.92,1.94-2.65Z"/>
    <path class="cls-4" d="m166.69,283.31c-1.59,0-2.69-.98-2.69-2.5s1.01-2.38,2.9-2.38h2.12v-.8c0-1-.58-1.55-1.61-1.55s-1.55.51-1.62,1.27h-1.48c.08-1.41,1.03-2.54,3.15-2.54,1.8,0,3.13.93,3.13,2.73v5.64h-1.51v-1.02h-.05c-.38.64-1.12,1.15-2.34,1.15Zm2.33-2.86v-.93h-1.9c-1.05,0-1.52.5-1.52,1.21,0,.91.75,1.34,1.55,1.34,1.06,0,1.87-.66,1.87-1.62Z"/>
    <path class="cls-4" d="m173.35,272.91h1.55v2.03h1.62v1.28h-1.62v4.56c0,.94.34,1.19,1.3,1.19.14,0,.27,0,.38-.02v1.23c-.13.02-.45.05-.77.05-1.98,0-2.48-.73-2.48-2.38v-4.64h-1.12v-1.28h1.14v-2.03Z"/>
    <path class="cls-4" d="m179.35,272.01c.53,0,.96.4.96.93s-.43.93-.96.93-.96-.4-.96-.93.43-.93.96-.93Zm-.79,2.94h1.58v8.23h-1.58v-8.23Z"/>
    <path class="cls-4" d="m189.39,278.69v.7c0,2.29-1.26,3.93-3.6,3.93s-3.62-1.64-3.62-3.93v-.69c0-2.23,1.27-3.9,3.62-3.9s3.6,1.66,3.6,3.89Zm-5.64.04v.63c0,1.55.7,2.64,2.03,2.64s2.02-1.08,2.02-2.64v-.63c0-1.58-.69-2.63-2.02-2.63s-2.03,1.06-2.03,2.63Z"/>
    <path class="cls-4" d="m191.35,274.94h1.55v1.12h.05c.29-.54,1.05-1.26,2.4-1.26,1.69,0,2.91,1.07,2.91,3.08v5.29h-1.57v-4.99c0-1.34-.79-1.98-1.88-1.98-1.3,0-1.9.92-1.9,2.02v4.95h-1.57v-8.23Z"/>
    <path class="cls-4" d="m201.25,281.33c.55,0,1.01.45,1.01,1.01s-.45,1-1.01,1-1-.45-1-1,.45-1.01,1-1.01Z"/>
    <path class="cls-4" d="m29.33,321.58l3.53-10.66h2.68l3.52,10.66h-2.41l-.79-2.65h-3.47l-.8,2.65h-2.26Zm4.75-8.54l-1.25,4.23h2.59l-1.23-4.23h-.1Z"/>
    <path class="cls-4" d="m43.26,313.12c1.98,0,3.22.97,3.22,2.55h-1.94c-.05-.5-.38-1.05-1.33-1.05-.77,0-1.25.37-1.25.93,0,.8,1.22.93,2.16,1.1,1.53.27,2.61.82,2.61,2.34,0,1.72-1.34,2.74-3.59,2.74s-3.45-1.02-3.45-2.5h2.13c.08.59.59.99,1.43.99.91,0,1.34-.45,1.34-.95,0-.77-1.02-.88-2.05-1.09-1.48-.31-2.68-.88-2.68-2.43,0-1.86,1.6-2.63,3.38-2.63Z"/>
    <path class="cls-4" d="m53.74,321.7c-1.62,0-2.73-.95-2.73-2.52s1.04-2.45,2.96-2.45h2v-.73c0-.78-.48-1.22-1.29-1.22s-1.27.44-1.31,1.07h-2.05c.05-1.38.93-2.7,3.41-2.7,1.93,0,3.41.88,3.41,2.85v5.59h-2.07v-1.01h-.09c-.31.6-1,1.13-2.23,1.13Zm2.23-2.84v-.86h-1.48c-.87,0-1.3.41-1.3,1.02,0,.74.62,1.1,1.28,1.1.83,0,1.5-.51,1.5-1.27Z"/>
    <path class="cls-4" d="m63.84,314.96h-1.2v-1.7h1.2v-.82c0-1.69.88-2.36,2.84-2.36.52,0,.8.04.95.05v1.55c-.11-.02-.26-.03-.52-.03-.77,0-1.15.24-1.15.97v.64h1.59v1.7h-1.55v6.62h-2.18v-6.62Z"/>
    <path class="cls-4" d="m70.35,310.07c.67,0,1.23.45,1.23,1.12s-.55,1.13-1.23,1.13-1.22-.45-1.22-1.13.55-1.12,1.22-1.12Zm-1.09,3.2h2.2v8.31h-2.2v-8.31Z"/>
    <path class="cls-4" d="m73.5,313.27h2.14v1.24h.09c.26-.58,1.02-1.37,2.41-1.37,1.68,0,2.84,1.05,2.84,3.09v5.35h-2.2v-4.86c0-1.25-.72-1.72-1.54-1.72-.99,0-1.56.71-1.56,1.75v4.83h-2.2v-8.31Z"/>
    <path class="cls-4" d="m85.19,321.7c-1.62,0-2.73-.95-2.73-2.52s1.04-2.45,2.96-2.45h2v-.73c0-.78-.48-1.22-1.29-1.22s-1.27.44-1.31,1.07h-2.05c.05-1.38.93-2.7,3.41-2.7,1.93,0,3.41.88,3.41,2.85v5.59h-2.07v-1.01h-.09c-.31.6-1,1.13-2.23,1.13Zm2.23-2.84v-.86h-1.48c-.87,0-1.3.41-1.3,1.02,0,.74.62,1.1,1.28,1.1.83,0,1.5-.51,1.5-1.27Z"/>
    <path class="cls-4" d="m91.55,310.35h2.2v11.23h-2.2v-11.23Z"/>
    <path class="cls-4" d="m98.92,313.27h2.2v1.17h.09c.18-.54.8-1.29,1.92-1.29.3,0,.52.02.68.06v1.89c-.16-.05-.51-.09-.84-.09-1.33,0-1.8.79-1.8,1.91v4.66h-2.26v-8.31Z"/>
    <path class="cls-4" d="m104.68,317.74v-.73c0-2.48,1.55-3.9,3.73-3.9s3.71,1.54,3.71,3.95v.82h-5.29v.25c0,1.19.7,1.94,1.68,1.94.8,0,1.37-.39,1.52-1.05h2.02c-.17,1.32-1.25,2.7-3.55,2.7s-3.82-1.41-3.82-3.98Zm5.33-1.2v-.02c0-1.02-.62-1.8-1.58-1.8s-1.59.78-1.59,1.8v.02h3.17Z"/>
    <path class="cls-4" d="m116.54,313.16c1.19,0,2.05.52,2.43,1.34h.09v-1.24h2.17v11.07h-2.2v-4.02h-.09c-.31.78-1.21,1.36-2.41,1.36-1.88,0-3.1-1.44-3.1-3.96v-.64c0-2.48,1.22-3.91,3.12-3.91Zm-.86,3.99v.51c0,1.45.64,2.29,1.66,2.29s1.7-.85,1.7-2.29v-.51c0-1.41-.67-2.25-1.71-2.25s-1.65.8-1.65,2.25Z"/>
    <path class="cls-4" d="m130.58,321.58h-2.14v-1.23h-.1c-.25.64-1.01,1.36-2.4,1.36-1.69,0-2.82-.99-2.82-2.95v-5.48h2.2v4.91c0,1.33.75,1.68,1.51,1.68.87,0,1.55-.57,1.55-1.7v-4.88h2.2v8.31Z"/>
    <path class="cls-4" d="m132.22,317.74v-.73c0-2.48,1.55-3.9,3.73-3.9s3.71,1.54,3.71,3.95v.82h-5.29v.25c0,1.19.7,1.94,1.68,1.94.8,0,1.37-.39,1.52-1.05h2.02c-.17,1.32-1.25,2.7-3.55,2.7s-3.82-1.41-3.82-3.98Zm5.33-1.2v-.02c0-1.02-.62-1.8-1.58-1.8s-1.59.78-1.59,1.8v.02h3.17Z"/>
    <path class="cls-4" d="m144.4,313.12c1.98,0,3.22.97,3.22,2.55h-1.94c-.05-.5-.38-1.05-1.33-1.05-.77,0-1.25.37-1.25.93,0,.8,1.22.93,2.16,1.1,1.53.27,2.61.82,2.61,2.34,0,1.72-1.34,2.74-3.59,2.74s-3.45-1.02-3.45-2.5h2.13c.08.59.59.99,1.43.99.91,0,1.34-.45,1.34-.95,0-.77-1.02-.88-2.05-1.09-1.48-.31-2.68-.88-2.68-2.43,0-1.86,1.6-2.63,3.38-2.63Z"/>
    <path class="cls-4" d="m150.01,311.31h2.13v1.96h1.6v1.7h-1.6v3.94c0,.8.35,1.05,1.18,1.05.18,0,.36,0,.45-.02v1.62c-.16.03-.55.07-.98.07-2.09,0-2.83-.69-2.83-2.4v-4.26h-1.19v-1.7h1.23v-1.96Z"/>
    <path class="cls-4" d="m154.76,323.67l.72-3.79h2.1l-1.15,3.79h-1.67Z"/>
    <path class="cls-4" d="m171.45,321.58h-2.32l-1.54-5.82h-.07l-1.54,5.82h-2.34l-2.12-8.31h2.23l1.17,6.05h.09l1.51-6.05h2.07l1.52,6.05h.09l1.18-6.05h2.2l-2.12,8.31Z"/>
    <path class="cls-4" d="m174.33,317.74v-.73c0-2.48,1.55-3.9,3.73-3.9s3.71,1.54,3.71,3.95v.82h-5.29v.25c0,1.19.7,1.94,1.68,1.94.8,0,1.37-.39,1.52-1.05h2.02c-.17,1.32-1.25,2.7-3.55,2.7s-3.82-1.41-3.82-3.98Zm5.33-1.2v-.02c0-1.02-.62-1.8-1.58-1.8s-1.59.78-1.59,1.8v.02h3.17Z"/>
    <path class="cls-4" d="m188.75,321.58h-2.2v-11.23h2.2v6.28h.1l2.59-3.37h2.53l-2.98,3.59,3.19,4.73h-2.59l-2.29-3.48-.55.66v2.82Z"/>
    <path class="cls-4" d="m196.35,310.07c.67,0,1.23.45,1.23,1.12s-.55,1.13-1.23,1.13-1.22-.45-1.22-1.13.55-1.12,1.22-1.12Zm-1.09,3.2h2.2v8.31h-2.2v-8.31Z"/>
    <path class="cls-4" d="m199.5,313.27h2.14v1.24h.09c.26-.58,1.02-1.37,2.41-1.37,1.68,0,2.84,1.05,2.84,3.09v5.35h-2.2v-4.86c0-1.25-.72-1.72-1.54-1.72-.99,0-1.56.71-1.56,1.75v4.83h-2.2v-8.31Z"/>
    <path class="cls-4" d="m214.06,314.49h.09v-4.14h2.2v11.23h-2.17v-1.29h-.09c-.38.85-1.25,1.39-2.39,1.39-1.99,0-3.15-1.49-3.15-3.92v-.69c0-2.4,1.2-3.91,3.15-3.91,1.13,0,2,.54,2.36,1.33Zm-3.25,2.65v.56c0,1.5.7,2.23,1.66,2.23,1.02,0,1.7-.77,1.7-2.23v-.57c0-1.41-.68-2.23-1.71-2.23-.95,0-1.64.73-1.64,2.23Z"/>
    <path class="cls-4" d="m218.41,310.35h2.2v11.23h-2.2v-11.23Z"/>
    <path class="cls-4" d="m227.39,321.29l-.21.57c-.57,1.52-1.38,2.66-3.56,2.66-.48,0-.97-.05-1.2-.09v-1.56c.14.03.46.05.7.05,1.03,0,1.37-.4,1.49-1.08l.06-.27-2.84-8.31h2.43l1.67,6.38h.09l1.72-6.38h2.33s-2.64,7.93-2.68,8.02Z"/>
    <path class="cls-4" d="m236.53,321.7c-1.62,0-2.73-.95-2.73-2.52s1.04-2.45,2.96-2.45h2v-.73c0-.78-.48-1.22-1.29-1.22s-1.27.44-1.31,1.07h-2.05c.05-1.38.93-2.7,3.41-2.7,1.93,0,3.41.88,3.41,2.85v5.59h-2.07v-1.01h-.09c-.31.6-1,1.13-2.23,1.13Zm2.23-2.84v-.86h-1.48c-.87,0-1.3.41-1.3,1.02,0,.74.62,1.1,1.28,1.1.83,0,1.5-.51,1.5-1.27Z"/>
    <path class="cls-4" d="m245.94,313.12c1.98,0,3.22.97,3.22,2.55h-1.94c-.05-.5-.38-1.05-1.33-1.05-.77,0-1.25.37-1.25.93,0,.8,1.22.93,2.16,1.1,1.53.27,2.61.82,2.61,2.34,0,1.72-1.34,2.74-3.59,2.74s-3.45-1.02-3.45-2.5h2.13c.08.59.59.99,1.43.99.91,0,1.34-.45,1.34-.95,0-.77-1.02-.88-2.05-1.09-1.48-.31-2.68-.88-2.68-2.43,0-1.86,1.6-2.63,3.38-2.63Z"/>
    <path class="cls-4" d="m253.16,321.58h-2.2v-11.23h2.2v6.28h.1l2.59-3.37h2.53l-2.98,3.59,3.19,4.73h-2.59l-2.29-3.48-.55.66v2.82Z"/>
    <path class="cls-4" d="m263.36,314.96h-1.2v-1.7h1.2v-.82c0-1.69.88-2.36,2.84-2.36.52,0,.8.04.95.05v1.55c-.11-.02-.26-.03-.52-.03-.77,0-1.15.24-1.15.97v.64h1.59v1.7h-1.55v6.62h-2.18v-6.62Z"/>
    <path class="cls-4" d="m275.81,317.1v.59c0,2.45-1.37,4.04-3.84,4.04s-3.86-1.59-3.86-4.03v-.59c0-2.3,1.38-3.99,3.86-3.99s3.84,1.67,3.84,3.98Zm-5.47,0v.64c0,1.23.47,2.3,1.62,2.3s1.62-1.06,1.62-2.3v-.64c0-1.29-.48-2.3-1.62-2.3s-1.62,1.02-1.62,2.3Z"/>
    <path class="cls-4" d="m277.44,313.27h2.2v1.17h.09c.18-.54.8-1.29,1.92-1.29.3,0,.52.02.68.06v1.89c-.16-.05-.51-.09-.84-.09-1.33,0-1.8.79-1.8,1.91v4.66h-2.26v-8.31Z"/>
    <path class="cls-4" d="m37.42,340.49l-.21.57c-.57,1.52-1.38,2.66-3.56,2.66-.48,0-.97-.05-1.2-.09v-1.56c.14.03.46.05.7.05,1.03,0,1.37-.4,1.49-1.08l.06-.27-2.84-8.31h2.43l1.67,6.38h.09l1.72-6.38h2.33s-2.64,7.93-2.68,8.02Z"/>
    <path class="cls-4" d="m48.34,336.3v.59c0,2.45-1.37,4.04-3.84,4.04s-3.86-1.59-3.86-4.03v-.59c0-2.3,1.38-3.99,3.86-3.99s3.84,1.67,3.84,3.98Zm-5.47,0v.64c0,1.23.47,2.3,1.62,2.3s1.62-1.06,1.62-2.3v-.64c0-1.29-.48-2.3-1.62-2.3s-1.62,1.02-1.62,2.3Z"/>
    <path class="cls-4" d="m57.35,340.78h-2.14v-1.23h-.1c-.25.64-1.01,1.36-2.4,1.36-1.69,0-2.82-.99-2.82-2.95v-5.48h2.2v4.91c0,1.33.75,1.68,1.51,1.68.87,0,1.55-.57,1.55-1.7v-4.88h2.2v8.31Z"/>
    <path class="cls-4" d="m59.32,332.47h2.2v1.17h.09c.18-.54.8-1.29,1.92-1.29.3,0,.52.02.68.06v1.89c-.16-.05-.51-.09-.84-.09-1.33,0-1.8.79-1.8,1.91v4.66h-2.26v-8.31Z"/>
    <path class="cls-4" d="m70.91,340.9c-1.62,0-2.73-.95-2.73-2.52s1.04-2.45,2.96-2.45h2v-.73c0-.78-.48-1.22-1.29-1.22s-1.27.44-1.31,1.07h-2.05c.05-1.38.93-2.7,3.41-2.7,1.93,0,3.41.88,3.41,2.85v5.59h-2.07v-1.01h-.09c-.31.6-1,1.13-2.23,1.13Zm2.23-2.84v-.86h-1.48c-.87,0-1.3.41-1.3,1.02,0,.74.62,1.1,1.28,1.1.83,0,1.5-.51,1.5-1.27Z"/>
    <path class="cls-4" d="m80.32,332.32c1.98,0,3.22.97,3.22,2.55h-1.94c-.05-.5-.38-1.05-1.33-1.05-.77,0-1.25.37-1.25.93,0,.8,1.22.93,2.16,1.1,1.53.27,2.61.82,2.61,2.34,0,1.72-1.34,2.74-3.59,2.74s-3.45-1.02-3.45-2.5h2.13c.08.59.59.99,1.43.99.91,0,1.34-.45,1.34-.95,0-.77-1.02-.88-2.05-1.09-1.48-.31-2.68-.88-2.68-2.43,0-1.86,1.6-2.63,3.38-2.63Z"/>
    <path class="cls-4" d="m88.45,332.32c1.98,0,3.22.97,3.22,2.55h-1.94c-.05-.5-.38-1.05-1.33-1.05-.77,0-1.25.37-1.25.93,0,.8,1.22.93,2.16,1.1,1.53.27,2.61.82,2.61,2.34,0,1.72-1.34,2.74-3.59,2.74s-3.45-1.02-3.45-2.5h2.13c.08.59.59.99,1.43.99.91,0,1.34-.45,1.34-.95,0-.77-1.02-.88-2.05-1.09-1.48-.31-2.68-.88-2.68-2.43,0-1.86,1.6-2.63,3.38-2.63Z"/>
    <path class="cls-4" d="m94.64,329.27c.67,0,1.23.45,1.23,1.12s-.55,1.13-1.23,1.13-1.22-.45-1.22-1.13.55-1.12,1.22-1.12Zm-1.09,3.2h2.2v8.31h-2.2v-8.31Z"/>
    <path class="cls-4" d="m100.91,332.32c1.98,0,3.22.97,3.22,2.55h-1.94c-.05-.5-.38-1.05-1.33-1.05-.77,0-1.25.37-1.25.93,0,.8,1.22.93,2.16,1.1,1.53.27,2.61.82,2.61,2.34,0,1.72-1.34,2.74-3.59,2.74s-3.45-1.02-3.45-2.5h2.13c.08.59.59.99,1.43.99.91,0,1.34-.45,1.34-.95,0-.77-1.02-.88-2.05-1.09-1.48-.31-2.68-.88-2.68-2.43,0-1.86,1.6-2.63,3.38-2.63Z"/>
    <path class="cls-4" d="m106.53,330.51h2.13v1.96h1.6v1.7h-1.6v3.94c0,.8.35,1.05,1.18,1.05.18,0,.36,0,.45-.02v1.62c-.16.03-.55.07-.98.07-2.09,0-2.83-.69-2.83-2.4v-4.26h-1.19v-1.7h1.23v-1.96Z"/>
    <path class="cls-4" d="m114.18,340.9c-1.62,0-2.73-.95-2.73-2.52s1.04-2.45,2.96-2.45h2v-.73c0-.78-.48-1.22-1.29-1.22s-1.27.44-1.31,1.07h-2.05c.05-1.38.93-2.7,3.41-2.7,1.93,0,3.41.88,3.41,2.85v5.59h-2.07v-1.01h-.09c-.31.6-1,1.13-2.23,1.13Zm2.23-2.84v-.86h-1.48c-.87,0-1.3.41-1.3,1.02,0,.74.62,1.1,1.28,1.1.83,0,1.5-.51,1.5-1.27Z"/>
    <path class="cls-4" d="m120.47,332.47h2.14v1.24h.09c.26-.58,1.02-1.37,2.41-1.37,1.68,0,2.84,1.05,2.84,3.09v5.35h-2.2v-4.86c0-1.25-.72-1.72-1.54-1.72-.99,0-1.56.71-1.56,1.75v4.83h-2.2v-8.31Z"/>
    <path class="cls-4" d="m129.51,336.25c0-2.31,1.4-3.93,3.75-3.93,2.13,0,3.43,1.34,3.48,3h-2.02c-.1-.68-.62-1.27-1.37-1.27-1.02,0-1.63.85-1.63,2.22v.62c0,1.43.63,2.3,1.64,2.3.9,0,1.3-.55,1.39-1.19h2.02c-.16,1.94-1.54,2.92-3.52,2.92-2.31,0-3.74-1.55-3.74-4.02v-.66Z"/>
    <path class="cls-4" d="m137.95,336.94v-.73c0-2.48,1.55-3.9,3.73-3.9s3.71,1.54,3.71,3.95v.82h-5.29v.25c0,1.19.7,1.94,1.68,1.94.8,0,1.37-.39,1.52-1.05h2.02c-.17,1.32-1.25,2.7-3.55,2.7s-3.82-1.41-3.82-3.98Zm5.33-1.2v-.02c0-1.02-.62-1.8-1.58-1.8s-1.59.78-1.59,1.8v.02h3.17Z"/>
    <path class="cls-4" d="m151.33,329.27c.67,0,1.23.45,1.23,1.12s-.55,1.13-1.23,1.13-1.22-.45-1.22-1.13.55-1.12,1.22-1.12Zm-1.09,3.2h2.2v8.31h-2.2v-8.31Z"/>
    <path class="cls-4" d="m154.48,332.47h2.14v1.24h.09c.26-.58,1.02-1.37,2.41-1.37,1.68,0,2.84,1.05,2.84,3.09v5.35h-2.2v-4.86c0-1.25-.72-1.72-1.54-1.72-.99,0-1.56.71-1.56,1.75v4.83h-2.2v-8.31Z"/>
    <path class="cls-4" d="m166.66,336.25c0-2.31,1.4-3.93,3.75-3.93,2.13,0,3.43,1.34,3.48,3h-2.02c-.1-.68-.62-1.27-1.37-1.27-1.02,0-1.63.85-1.63,2.22v.62c0,1.43.63,2.3,1.64,2.3.9,0,1.3-.55,1.39-1.19h2.02c-.16,1.94-1.54,2.92-3.52,2.92-2.31,0-3.74-1.55-3.74-4.02v-.66Z"/>
    <path class="cls-4" d="m182.79,336.3v.59c0,2.45-1.37,4.04-3.84,4.04s-3.86-1.59-3.86-4.03v-.59c0-2.3,1.38-3.99,3.86-3.99s3.84,1.67,3.84,3.98Zm-5.47,0v.64c0,1.23.47,2.3,1.62,2.3s1.62-1.06,1.62-2.3v-.64c0-1.29-.48-2.3-1.62-2.3s-1.62,1.02-1.62,2.3Z"/>
    <path class="cls-4" d="m184.42,332.47h2.14v1.23h.11c.22-.61.92-1.35,2.2-1.35s2.04.59,2.31,1.45h.09c.26-.7,1.12-1.45,2.52-1.45,1.7,0,2.69,1.1,2.69,2.75v5.69h-2.2v-5.05c0-1.05-.56-1.56-1.38-1.56-.87,0-1.41.59-1.41,1.63v4.98h-2.11v-4.98c0-1.18-.61-1.63-1.39-1.63s-1.39.49-1.39,1.62v5h-2.2v-8.31Z"/>
    <path class="cls-4" d="m200.73,339.56h-.09v3.97h-2.2v-11.06h2.17v1.25h.09c.41-.81,1.25-1.35,2.38-1.35,1.84,0,3.12,1.38,3.12,3.91v.7c0,2.51-1.26,3.91-3.14,3.91-1.11,0-1.93-.53-2.33-1.32Zm3.21-2.68v-.54c0-1.45-.62-2.24-1.63-2.24s-1.69.84-1.69,2.23v.55c0,1.42.67,2.27,1.71,2.27.95,0,1.61-.77,1.61-2.27Z"/>
    <path class="cls-4" d="m207.91,329.55h2.2v11.23h-2.2v-11.23Z"/>
    <path class="cls-4" d="m211.81,336.94v-.73c0-2.48,1.55-3.9,3.73-3.9s3.71,1.54,3.71,3.95v.82h-5.29v.25c0,1.19.7,1.94,1.68,1.94.8,0,1.37-.39,1.52-1.05h2.02c-.17,1.32-1.25,2.7-3.55,2.7s-3.82-1.41-3.82-3.98Zm5.33-1.2v-.02c0-1.02-.62-1.8-1.58-1.8s-1.59.78-1.59,1.8v.02h3.17Z"/>
    <path class="cls-4" d="m221.55,330.51h2.13v1.96h1.6v1.7h-1.6v3.94c0,.8.35,1.05,1.18,1.05.18,0,.36,0,.45-.02v1.62c-.16.03-.55.07-.98.07-2.09,0-2.83-.69-2.83-2.4v-4.26h-1.19v-1.7h1.23v-1.96Z"/>
    <path class="cls-4" d="m228.18,329.27c.67,0,1.23.45,1.23,1.12s-.55,1.13-1.23,1.13-1.22-.45-1.22-1.13.55-1.12,1.22-1.12Zm-1.09,3.2h2.2v8.31h-2.2v-8.31Z"/>
    <path class="cls-4" d="m231.33,332.47h2.14v1.24h.09c.26-.58,1.02-1.37,2.41-1.37,1.68,0,2.84,1.05,2.84,3.09v5.35h-2.2v-4.86c0-1.25-.72-1.72-1.54-1.72-.99,0-1.56.71-1.56,1.75v4.83h-2.2v-8.31Z"/>
    <path class="cls-4" d="m245.97,340.57v-1.22h-.09c-.3.73-1.17,1.31-2.34,1.31-1.88,0-3.14-1.35-3.14-3.91v-.48c0-2.54,1.26-3.9,3.14-3.9,1.15,0,2.02.57,2.36,1.34h.09v-1.24h2.17v8.26c0,2.3-2.04,3.13-3.92,3.13-2.45,0-3.56-1.15-3.66-2.54h2.12c.13.56.73.95,1.58.95,1.07,0,1.7-.62,1.7-1.7Zm-3.31-4.24v.48c0,1.44.64,2.23,1.67,2.23s1.64-.8,1.64-2.23v-.48c0-1.41-.66-2.23-1.64-2.23s-1.67.78-1.67,2.23Z"/>
    <path class="cls-4" d="m253.96,330.51h2.13v1.96h1.6v1.7h-1.6v3.94c0,.8.35,1.05,1.18,1.05.18,0,.36,0,.45-.02v1.62c-.16.03-.55.07-.98.07-2.09,0-2.83-.69-2.83-2.4v-4.26h-1.19v-1.7h1.23v-1.96Z"/>
    <path class="cls-4" d="m268.74,340.78h-2.32l-1.54-5.82h-.07l-1.54,5.82h-2.34l-2.12-8.31h2.23l1.17,6.05h.09l1.51-6.05h2.07l1.52,6.05h.09l1.18-6.05h2.2l-2.12,8.31Z"/>
    <path class="cls-4" d="m279.32,336.3v.59c0,2.45-1.37,4.04-3.84,4.04s-3.86-1.59-3.86-4.03v-.59c0-2.3,1.38-3.99,3.86-3.99s3.84,1.67,3.84,3.98Zm-5.47,0v.64c0,1.23.47,2.3,1.62,2.3s1.62-1.06,1.62-2.3v-.64c0-1.29-.48-2.3-1.62-2.3s-1.62,1.02-1.62,2.3Z"/>
    <path class="cls-4" d="m25.17,360.1c-1.62,0-2.73-.95-2.73-2.52s1.04-2.45,2.96-2.45h2v-.73c0-.78-.48-1.22-1.29-1.22s-1.27.44-1.31,1.07h-2.05c.05-1.38.93-2.7,3.41-2.7,1.93,0,3.41.88,3.41,2.85v5.59h-2.07v-1.01h-.09c-.31.6-1,1.13-2.23,1.13Zm2.23-2.84v-.86h-1.48c-.87,0-1.3.41-1.3,1.02,0,.74.62,1.1,1.28,1.1.83,0,1.5-.51,1.5-1.27Z"/>
    <path class="cls-4" d="m36.65,352.89h.09v-4.14h2.2v11.23h-2.17v-1.29h-.09c-.38.85-1.25,1.39-2.39,1.39-1.99,0-3.15-1.49-3.15-3.92v-.69c0-2.4,1.2-3.91,3.15-3.91,1.13,0,2,.54,2.36,1.33Zm-3.25,2.65v.56c0,1.5.7,2.23,1.66,2.23,1.02,0,1.7-.77,1.7-2.23v-.57c0-1.41-.68-2.23-1.71-2.23-.95,0-1.64.73-1.64,2.23Z"/>
    <path class="cls-4" d="m46.12,352.89h.09v-4.14h2.2v11.23h-2.17v-1.29h-.09c-.38.85-1.25,1.39-2.39,1.39-1.99,0-3.15-1.49-3.15-3.92v-.69c0-2.4,1.2-3.91,3.15-3.91,1.13,0,2,.54,2.36,1.33Zm-3.25,2.65v.56c0,1.5.7,2.23,1.66,2.23,1.02,0,1.7-.77,1.7-2.23v-.57c0-1.41-.68-2.23-1.71-2.23-.95,0-1.64.73-1.64,2.23Z"/>
    <path class="cls-4" d="m51.59,348.47c.67,0,1.23.45,1.23,1.12s-.55,1.13-1.23,1.13-1.22-.45-1.22-1.13.55-1.12,1.22-1.12Zm-1.09,3.2h2.2v8.31h-2.2v-8.31Z"/>
    <path class="cls-4" d="m55.34,349.71h2.13v1.96h1.6v1.7h-1.6v3.94c0,.8.35,1.05,1.18,1.05.18,0,.36,0,.45-.02v1.62c-.16.03-.55.07-.98.07-2.09,0-2.83-.69-2.83-2.4v-4.26h-1.19v-1.7h1.23v-1.96Z"/>
    <path class="cls-4" d="m61.98,348.47c.67,0,1.23.45,1.23,1.12s-.55,1.13-1.23,1.13-1.22-.45-1.22-1.13.55-1.12,1.22-1.12Zm-1.09,3.2h2.2v8.31h-2.2v-8.31Z"/>
    <path class="cls-4" d="m72.48,355.5v.59c0,2.45-1.37,4.04-3.84,4.04s-3.86-1.59-3.86-4.03v-.59c0-2.3,1.38-3.99,3.86-3.99s3.84,1.67,3.84,3.98Zm-5.47,0v.64c0,1.23.47,2.3,1.62,2.3s1.62-1.06,1.62-2.3v-.64c0-1.29-.48-2.3-1.62-2.3s-1.62,1.02-1.62,2.3Z"/>
    <path class="cls-4" d="m74.12,351.67h2.14v1.24h.09c.26-.58,1.02-1.37,2.41-1.37,1.68,0,2.84,1.05,2.84,3.09v5.35h-2.2v-4.86c0-1.25-.72-1.72-1.54-1.72-.99,0-1.56.71-1.56,1.75v4.83h-2.2v-8.31Z"/>
    <path class="cls-4" d="m85.81,360.1c-1.62,0-2.73-.95-2.73-2.52s1.04-2.45,2.96-2.45h2v-.73c0-.78-.48-1.22-1.29-1.22s-1.27.44-1.31,1.07h-2.05c.05-1.38.93-2.7,3.41-2.7,1.93,0,3.41.88,3.41,2.85v5.59h-2.07v-1.01h-.09c-.31.6-1,1.13-2.23,1.13Zm2.23-2.84v-.86h-1.48c-.87,0-1.3.41-1.3,1.02,0,.74.62,1.1,1.28,1.1.83,0,1.5-.51,1.5-1.27Z"/>
    <path class="cls-4" d="m92.16,348.75h2.2v11.23h-2.2v-11.23Z"/>
    <path class="cls-4" d="m102.33,351.56c1.19,0,2.05.52,2.43,1.34h.09v-1.24h2.17v11.07h-2.2v-4.02h-.09c-.31.78-1.21,1.36-2.41,1.36-1.88,0-3.1-1.44-3.1-3.96v-.64c0-2.48,1.22-3.91,3.12-3.91Zm-.86,3.99v.51c0,1.45.64,2.29,1.66,2.29s1.7-.85,1.7-2.29v-.51c0-1.41-.67-2.25-1.71-2.25s-1.65.8-1.65,2.25Z"/>
    <path class="cls-4" d="m116.38,359.98h-2.14v-1.23h-.1c-.25.64-1.01,1.36-2.4,1.36-1.69,0-2.82-.99-2.82-2.95v-5.48h2.2v4.91c0,1.33.75,1.68,1.51,1.68.87,0,1.55-.57,1.55-1.7v-4.88h2.2v8.31Z"/>
    <path class="cls-4" d="m118.01,356.14v-.73c0-2.48,1.55-3.9,3.73-3.9s3.71,1.54,3.71,3.95v.82h-5.29v.25c0,1.19.7,1.94,1.68,1.94.8,0,1.37-.39,1.52-1.05h2.02c-.17,1.32-1.25,2.7-3.55,2.7s-3.82-1.41-3.82-3.98Zm5.33-1.2v-.02c0-1.02-.62-1.8-1.58-1.8s-1.59.78-1.59,1.8v.02h3.17Z"/>
    <path class="cls-4" d="m130.19,351.52c1.98,0,3.22.97,3.22,2.55h-1.94c-.05-.5-.38-1.05-1.33-1.05-.77,0-1.25.37-1.25.93,0,.8,1.22.93,2.16,1.1,1.53.27,2.61.82,2.61,2.34,0,1.72-1.34,2.74-3.59,2.74s-3.45-1.02-3.45-2.5h2.13c.08.59.59.99,1.43.99.91,0,1.34-.45,1.34-.95,0-.77-1.02-.88-2.05-1.09-1.48-.31-2.68-.88-2.68-2.43,0-1.86,1.6-2.63,3.38-2.63Z"/>
    <path class="cls-4" d="m135.81,349.71h2.13v1.96h1.6v1.7h-1.6v3.94c0,.8.35,1.05,1.18,1.05.18,0,.36,0,.45-.02v1.62c-.16.03-.55.07-.98.07-2.09,0-2.83-.69-2.83-2.4v-4.26h-1.19v-1.7h1.23v-1.96Z"/>
    <path class="cls-4" d="m142.44,348.47c.67,0,1.23.45,1.23,1.12s-.55,1.13-1.23,1.13-1.22-.45-1.22-1.13.55-1.12,1.22-1.12Zm-1.09,3.2h2.2v8.31h-2.2v-8.31Z"/>
    <path class="cls-4" d="m152.95,355.5v.59c0,2.45-1.37,4.04-3.84,4.04s-3.86-1.59-3.86-4.03v-.59c0-2.3,1.38-3.99,3.86-3.99s3.84,1.67,3.84,3.98Zm-5.47,0v.64c0,1.23.47,2.3,1.62,2.3s1.62-1.06,1.62-2.3v-.64c0-1.29-.48-2.3-1.62-2.3s-1.62,1.02-1.62,2.3Z"/>
    <path class="cls-4" d="m154.58,351.67h2.14v1.24h.09c.26-.58,1.02-1.37,2.41-1.37,1.68,0,2.84,1.05,2.84,3.09v5.35h-2.2v-4.86c0-1.25-.72-1.72-1.54-1.72-.99,0-1.56.71-1.56,1.75v4.83h-2.2v-8.31Z"/>
    <path class="cls-4" d="m163.96,351.67h2.14v1.24h.09c.26-.58,1.02-1.37,2.41-1.37,1.68,0,2.84,1.05,2.84,3.09v5.35h-2.2v-4.86c0-1.25-.72-1.72-1.54-1.72-.99,0-1.56.71-1.56,1.75v4.83h-2.2v-8.31Z"/>
    <path class="cls-4" d="m175.66,360.1c-1.62,0-2.73-.95-2.73-2.52s1.04-2.45,2.96-2.45h2v-.73c0-.78-.48-1.22-1.29-1.22s-1.27.44-1.31,1.07h-2.05c.05-1.38.93-2.7,3.41-2.7,1.93,0,3.41.88,3.41,2.85v5.59h-2.07v-1.01h-.09c-.31.6-1,1.13-2.23,1.13Zm2.23-2.84v-.86h-1.48c-.87,0-1.3.41-1.3,1.02,0,.74.62,1.1,1.28,1.1.83,0,1.5-.51,1.5-1.27Z"/>
    <path class="cls-4" d="m183.12,348.47c.67,0,1.23.45,1.23,1.12s-.55,1.13-1.23,1.13-1.22-.45-1.22-1.13.55-1.12,1.22-1.12Zm-1.09,3.2h2.2v8.31h-2.2v-8.31Z"/>
    <path class="cls-4" d="m186.27,351.67h2.2v1.17h.09c.18-.54.8-1.29,1.92-1.29.3,0,.52.02.68.06v1.89c-.16-.05-.51-.09-.84-.09-1.33,0-1.8.79-1.8,1.91v4.66h-2.26v-8.31Z"/>
    <path class="cls-4" d="m192.03,356.14v-.73c0-2.48,1.55-3.9,3.73-3.9s3.71,1.54,3.71,3.95v.82h-5.29v.25c0,1.19.7,1.94,1.68,1.94.8,0,1.37-.39,1.52-1.05h2.02c-.17,1.32-1.25,2.7-3.55,2.7s-3.82-1.41-3.82-3.98Zm5.33-1.2v-.02c0-1.02-.62-1.8-1.58-1.8s-1.59.78-1.59,1.8v.02h3.17Z"/>
    <path class="cls-4" d="m204.21,351.52c1.98,0,3.22.97,3.22,2.55h-1.94c-.05-.5-.38-1.05-1.33-1.05-.77,0-1.25.37-1.25.93,0,.8,1.22.93,2.16,1.1,1.53.27,2.61.82,2.61,2.34,0,1.72-1.34,2.74-3.59,2.74s-3.45-1.02-3.45-2.5h2.13c.08.59.59.99,1.43.99.91,0,1.34-.45,1.34-.95,0-.77-1.02-.88-2.05-1.09-1.48-.31-2.68-.88-2.68-2.43,0-1.86,1.6-2.63,3.38-2.63Z"/>
    <path class="cls-4" d="m210.37,357.6c.7,0,1.27.57,1.27,1.27s-.57,1.27-1.27,1.27-1.27-.58-1.27-1.27.58-1.27,1.27-1.27Z"/>
    <path class="cls-4" d="m219.05,359.98v-3.95l-3.57-6.72h2.49l2.2,4.48h.08l2.2-4.48h2.43l-3.57,6.66v4h-2.26Z"/>
    <path class="cls-4" d="m232.15,355.5v.59c0,2.45-1.37,4.04-3.84,4.04s-3.86-1.59-3.86-4.03v-.59c0-2.3,1.38-3.99,3.86-3.99s3.84,1.67,3.84,3.98Zm-5.47,0v.64c0,1.23.47,2.3,1.62,2.3s1.62-1.06,1.62-2.3v-.64c0-1.29-.48-2.3-1.62-2.3s-1.62,1.02-1.62,2.3Z"/>
    <path class="cls-4" d="m241.16,359.98h-2.14v-1.23h-.1c-.25.64-1.01,1.36-2.4,1.36-1.69,0-2.82-.99-2.82-2.95v-5.48h2.2v4.91c0,1.33.75,1.68,1.51,1.68.87,0,1.55-.57,1.55-1.7v-4.88h2.2v8.31Z"/>
    <path class="cls-4" d="m243.12,351.67h2.2v1.17h.09c.18-.54.8-1.29,1.92-1.29.3,0,.52.02.68.06v1.89c-.16-.05-.51-.09-.84-.09-1.33,0-1.8.79-1.8,1.91v4.66h-2.26v-8.31Z"/>
    <path class="cls-4" d="m253.58,348.47c.67,0,1.23.45,1.23,1.12s-.55,1.13-1.23,1.13-1.22-.45-1.22-1.13.55-1.12,1.22-1.12Zm-1.09,3.2h2.2v8.31h-2.2v-8.31Z"/>
    <path class="cls-4" d="m256.73,351.67h2.14v1.24h.09c.26-.58,1.02-1.37,2.41-1.37,1.68,0,2.84,1.05,2.84,3.09v5.35h-2.2v-4.86c0-1.25-.72-1.72-1.54-1.72-.99,0-1.56.71-1.56,1.75v4.83h-2.2v-8.31Z"/>
    <path class="cls-4" d="m268.41,358.76h-.09v3.97h-2.2v-11.06h2.17v1.25h.09c.41-.81,1.25-1.35,2.38-1.35,1.84,0,3.12,1.38,3.12,3.91v.7c0,2.51-1.26,3.91-3.14,3.91-1.11,0-1.93-.53-2.33-1.32Zm3.21-2.68v-.54c0-1.45-.62-2.24-1.63-2.24s-1.69.84-1.69,2.23v.55c0,1.42.67,2.27,1.71,2.27.95,0,1.61-.77,1.61-2.27Z"/>
    <path class="cls-4" d="m282.91,359.98h-2.14v-1.23h-.1c-.25.64-1.01,1.36-2.4,1.36-1.69,0-2.82-.99-2.82-2.95v-5.48h2.2v4.91c0,1.33.75,1.68,1.51,1.68.87,0,1.55-.57,1.55-1.7v-4.88h2.2v8.31Z"/>
    <path class="cls-4" d="m285.55,349.71h2.13v1.96h1.6v1.7h-1.6v3.94c0,.8.35,1.05,1.18,1.05.18,0,.36,0,.45-.02v1.62c-.16.03-.55.07-.98.07-2.09,0-2.83-.69-2.83-2.4v-4.26h-1.19v-1.7h1.23v-1.96Z"/>
    <path class="cls-4" d="m91.24,367.67c.67,0,1.23.45,1.23,1.12s-.55,1.13-1.23,1.13-1.22-.45-1.22-1.13.55-1.12,1.22-1.12Zm-1.09,3.2h2.2v8.31h-2.2v-8.31Z"/>
    <path class="cls-4" d="m97.51,370.72c1.98,0,3.22.97,3.22,2.55h-1.94c-.05-.5-.38-1.05-1.33-1.05-.77,0-1.25.37-1.25.93,0,.8,1.22.93,2.16,1.1,1.53.27,2.61.82,2.61,2.34,0,1.72-1.34,2.74-3.59,2.74s-3.45-1.02-3.45-2.5h2.13c.08.59.59.99,1.43.99.91,0,1.34-.45,1.34-.95,0-.77-1.02-.88-2.05-1.09-1.48-.31-2.68-.88-2.68-2.43,0-1.86,1.6-2.63,3.38-2.63Z"/>
    <path class="cls-4" d="m106.84,367.67c.67,0,1.23.45,1.23,1.12s-.55,1.13-1.23,1.13-1.22-.45-1.22-1.13.55-1.12,1.22-1.12Zm-1.09,3.2h2.2v8.31h-2.2v-8.31Z"/>
    <path class="cls-4" d="m109.99,370.87h2.14v1.24h.09c.26-.58,1.02-1.37,2.41-1.37,1.68,0,2.84,1.05,2.84,3.09v5.35h-2.2v-4.86c0-1.25-.72-1.72-1.54-1.72-.99,0-1.56.71-1.56,1.75v4.83h-2.2v-8.31Z"/>
    <path class="cls-4" d="m118.3,370.87h2.35l1.6,6.18h.08l1.78-6.18h2.27l-2.87,8.31h-2.51l-2.71-8.31Z"/>
    <path class="cls-4" d="m129.66,379.3c-1.62,0-2.73-.95-2.73-2.52s1.04-2.45,2.96-2.45h2v-.73c0-.78-.48-1.22-1.29-1.22s-1.27.44-1.31,1.07h-2.05c.05-1.38.93-2.7,3.41-2.7,1.93,0,3.41.88,3.41,2.85v5.59h-2.07v-1.01h-.09c-.31.6-1,1.13-2.23,1.13Zm2.23-2.84v-.86h-1.48c-.87,0-1.3.41-1.3,1.02,0,.74.62,1.1,1.28,1.1.83,0,1.5-.51,1.5-1.27Z"/>
    <path class="cls-4" d="m136.01,367.95h2.2v11.23h-2.2v-11.23Z"/>
    <path class="cls-4" d="m147.62,379.18h-2.14v-1.23h-.1c-.25.64-1.01,1.36-2.4,1.36-1.69,0-2.82-.99-2.82-2.95v-5.48h2.2v4.91c0,1.33.75,1.68,1.51,1.68.87,0,1.55-.57,1.55-1.7v-4.88h2.2v8.31Z"/>
    <path class="cls-4" d="m151.91,379.3c-1.62,0-2.73-.95-2.73-2.52s1.04-2.45,2.96-2.45h2v-.73c0-.78-.48-1.22-1.29-1.22s-1.27.44-1.31,1.07h-2.05c.05-1.38.93-2.7,3.41-2.7,1.93,0,3.41.88,3.41,2.85v5.59h-2.07v-1.01h-.09c-.31.6-1,1.13-2.23,1.13Zm2.23-2.84v-.86h-1.48c-.87,0-1.3.41-1.3,1.02,0,.74.62,1.1,1.28,1.1.83,0,1.5-.51,1.5-1.27Z"/>
    <path class="cls-4" d="m160.49,377.89h-.09v1.29h-2.17v-11.23h2.2v4.14h.09c.36-.78,1.27-1.33,2.38-1.33,1.88,0,3.13,1.35,3.13,3.89v.72c0,2.49-1.23,3.91-3.14,3.91-1.18,0-2.01-.54-2.41-1.39Zm3.29-2.59v-.56c0-1.47-.67-2.23-1.62-2.23-1.05,0-1.73.76-1.73,2.23v.55c0,1.48.68,2.25,1.73,2.25.96,0,1.62-.77,1.62-2.24Z"/>
    <path class="cls-4" d="m167.75,367.95h2.2v11.23h-2.2v-11.23Z"/>
    <path class="cls-4" d="m171.65,375.34v-.73c0-2.48,1.55-3.9,3.73-3.9s3.71,1.54,3.71,3.95v.82h-5.29v.25c0,1.19.7,1.94,1.68,1.94.8,0,1.37-.39,1.52-1.05h2.02c-.17,1.32-1.25,2.7-3.55,2.7s-3.82-1.41-3.82-3.98Zm5.33-1.2v-.02c0-1.02-.62-1.8-1.58-1.8s-1.59.78-1.59,1.8v.02h3.17Z"/>
    <path class="cls-4" d="m184.53,368.9h2.13v1.96h1.6v1.7h-1.6v3.94c0,.8.35,1.05,1.18,1.05.18,0,.36,0,.45-.02v1.62c-.16.03-.55.07-.98.07-2.09,0-2.83-.69-2.83-2.4v-4.26h-1.19v-1.7h1.23v-1.96Z"/>
    <path class="cls-4" d="m197.23,374.7v.59c0,2.45-1.37,4.04-3.84,4.04s-3.86-1.59-3.86-4.03v-.59c0-2.3,1.38-3.99,3.86-3.99s3.84,1.67,3.84,3.98Zm-5.47,0v.64c0,1.23.47,2.3,1.62,2.3s1.62-1.06,1.62-2.3v-.64c0-1.29-.48-2.3-1.62-2.3s-1.62,1.02-1.62,2.3Z"/>
    <path class="cls-4" d="m209.37,379.18h-2.14v-1.23h-.1c-.25.64-1.01,1.36-2.4,1.36-1.69,0-2.82-.99-2.82-2.95v-5.48h2.2v4.91c0,1.33.75,1.68,1.51,1.68.87,0,1.55-.57,1.55-1.7v-4.88h2.2v8.31Z"/>
    <path class="cls-4" d="m214.46,370.72c1.98,0,3.22.97,3.22,2.55h-1.94c-.05-.5-.38-1.05-1.33-1.05-.77,0-1.25.37-1.25.93,0,.8,1.22.93,2.16,1.1,1.53.27,2.61.82,2.61,2.34,0,1.72-1.34,2.74-3.59,2.74s-3.45-1.02-3.45-2.5h2.13c.08.59.59.99,1.43.99.91,0,1.34-.45,1.34-.95,0-.77-1.02-.88-2.05-1.09-1.48-.31-2.68-.88-2.68-2.43,0-1.86,1.6-2.63,3.38-2.63Z"/>
    <path class="cls-4" d="m220.62,376.8c.7,0,1.27.57,1.27,1.27s-.57,1.27-1.27,1.27-1.27-.58-1.27-1.27.58-1.27,1.27-1.27Z"/>
  </g>
  <g id="rVwW9V.tif">
    <path class="cls-3" d="m240.31,90.49c.01-.1.03-.21.04-.31-27.42-5.47-54.85-10.94-82.38-16.44,1.22,10.12,2.41,20.08,3.63,30.17,26.35-4.49,52.53-8.96,78.71-13.42ZM152.73,26.29c.08.68.11.96.14,1.24,1.05,8.53,2.12,17.06,3.13,25.6.12,1.06.44,1.6,1.5,2,23.42,8.79,46.81,17.62,70.22,26.44,3.29,1.24,6.59,2.46,9.88,3.7.06-.1.11-.2.17-.3-28.25-19.5-56.5-38.99-85.04-58.68Zm-11.63,52.05c.57-.17.8-.2,1-.3,4.21-2.08,8.41-4.19,12.65-6.22.76-.36,1.73-.71,2.5-.56,14.63,2.85,29.25,5.78,43.87,8.7,9.92,1.98,19.83,3.96,29.75,5.94.37.07.74.1,1.12.15-6.69-2.79-13.38-5.31-20.06-7.84-17.42-6.58-34.83-13.17-52.25-19.75-1.27-.48-2.77-1.52-3.79-1.17-1.09.37-1.72,2.07-2.56,3.18-.06.08-.12.15-.17.22-3.94,5.77-7.89,11.55-12.06,17.65Zm1.04,2.28c.02.1.04.19.07.29,4.78.66,9.56,1.31,14.48,1.99-.38-3.04-.73-5.84-1.11-8.83-4.66,2.27-9.05,4.41-13.44,6.55Z"/>
  </g>
  <g>
    <path class="cls-2" d="m36.83,131.57s-.26-2.26-.08-5.99"/>
    <path class="cls-1" d="m38.19,114.8c4.31-19.45,20.41-49.73,78.2-56.46"/>
    <path class="cls-2" d="m121.8,57.79c1.95-.17,3.95-.31,5.99-.43"/>
  </g>
</svg>