<?xml version="1.0" encoding="UTF-8"?>
<svg id="Layer_1" data-name="Layer 1" xmlns="http://www.w3.org/2000/svg" viewBox="0 0 311.81 263.14">
  <defs>
    <style>
      .cls-1 {
        fill: #fff;
        opacity: .9;
      }

      .cls-1, .cls-2 {
        stroke-width: 0px;
      }

      .cls-2 {
        fill: #231f20;
      }
    </style>
  </defs>
  <rect class="cls-1" width="311.81" height="263.14" rx="15.27" ry="15.27"/>
  <g>
    <path class="cls-2" d="m50.34,124.93l-4.35-16h2.62l2.89,12.15h.08l3.06-12.15h2.31l3.05,12.15h.08l2.89-12.15h2.62l-4.35,16h-2.18l-3.23-12.07h-.08l-3.23,12.07h-2.19Z"/>
    <path class="cls-2" d="m67.48,108.09h2.37v6.18h.08c.43-.81,1.56-1.89,3.57-1.89,2.53,0,4.38,1.61,4.38,4.62v7.93h-2.37v-7.49c0-2.02-1.17-2.98-2.82-2.98-1.96,0-2.85,1.38-2.85,3.04v7.43h-2.37v-16.84Z"/>
    <path class="cls-2" d="m82.42,108.18c.8,0,1.44.6,1.44,1.39s-.64,1.39-1.44,1.39-1.44-.6-1.44-1.39.64-1.39,1.44-1.39Zm-1.18,4.41h2.37v12.35h-2.37v-12.35Z"/>
    <path class="cls-2" d="m86.64,118.13c0-3.36,1.96-5.75,5.25-5.75,2.95,0,4.73,1.92,4.84,3.97h-2.27c-.23-1.04-1.16-1.97-2.43-1.97-1.9,0-3.01,1.44-3.01,3.81v1.1c0,2.34,1.17,3.84,3.02,3.84,1.48,0,2.3-.82,2.5-1.79h2.26c-.35,2.33-2.05,3.81-4.91,3.81-3.33,0-5.25-2.47-5.25-5.87v-1.15Z"/>
    <path class="cls-2" d="m99.51,108.09h2.37v6.18h.08c.43-.81,1.56-1.89,3.57-1.89,2.53,0,4.38,1.61,4.38,4.62v7.93h-2.37v-7.49c0-2.02-1.17-2.98-2.82-2.98-1.96,0-2.85,1.38-2.85,3.04v7.43h-2.37v-16.84Z"/>
    <path class="cls-2" d="m117.43,119.32v-1.3c0-3.39,1.97-5.65,5.23-5.65s5.2,2.32,5.2,5.77v1.17h-8.07v.26c0,2.19,1.15,3.67,3.01,3.67,1.36,0,2.27-.68,2.62-1.78h2.29c-.41,2.02-2.03,3.69-4.96,3.69-3.27,0-5.32-2.23-5.32-5.82Zm8.1-1.75v-.04c0-1.84-1.14-3.28-2.86-3.28s-2.88,1.45-2.88,3.28v.04h5.74Z"/>
    <path class="cls-2" d="m134.85,120.42h-.04l-2.92,4.51h-2.62l4.14-6.19-4.08-6.16h2.8l2.84,4.52h.02l2.84-4.52h2.67l-4.12,6.16,4.17,6.19h-2.74l-2.95-4.51Z"/>
    <path class="cls-2" d="m145.33,123.25h-.08v5.93h-2.37v-16.59h2.3v1.79h.08c.69-1.17,1.96-1.98,3.62-1.98,2.77,0,4.78,2.12,4.78,5.8v1.11c0,3.64-1.98,5.81-4.85,5.81-1.59,0-2.81-.76-3.48-1.88Zm5.94-4.09v-.88c0-2.47-1.1-3.91-2.95-3.91s-3.09,1.55-3.09,3.9v.89c0,2.43,1.2,3.97,3.14,3.97,1.73,0,2.91-1.38,2.91-3.97Z"/>
    <path class="cls-2" d="m156.09,119.32v-1.3c0-3.39,1.97-5.65,5.23-5.65s5.2,2.32,5.2,5.77v1.17h-8.07v.26c0,2.19,1.15,3.67,3.01,3.67,1.36,0,2.27-.68,2.62-1.78h2.29c-.41,2.02-2.03,3.69-4.96,3.69-3.27,0-5.32-2.23-5.32-5.82Zm8.1-1.75v-.04c0-1.84-1.14-3.28-2.86-3.28s-2.88,1.45-2.88,3.28v.04h5.74Z"/>
    <path class="cls-2" d="m169.4,112.58h2.37v1.57h.08c.33-.75,1.25-1.76,2.99-1.76.3,0,.59.02.83.06v2.12c-.22-.05-.66-.07-1.05-.07-2.13,0-2.82,1.31-2.82,2.98v7.45h-2.39v-12.35Z"/>
    <path class="cls-2" d="m179.5,108.18c.8,0,1.44.6,1.44,1.39s-.64,1.39-1.44,1.39-1.44-.6-1.44-1.39.64-1.39,1.44-1.39Zm-1.18,4.41h2.37v12.35h-2.37v-12.35Z"/>
    <path class="cls-2" d="m183.72,119.32v-1.3c0-3.39,1.97-5.65,5.23-5.65s5.2,2.32,5.2,5.77v1.17h-8.07v.26c0,2.19,1.15,3.67,3.01,3.67,1.36,0,2.27-.68,2.62-1.78h2.29c-.41,2.02-2.03,3.69-4.96,3.69-3.27,0-5.32-2.23-5.32-5.82Zm8.1-1.75v-.04c0-1.84-1.14-3.28-2.86-3.28s-2.88,1.45-2.88,3.28v.04h5.74Z"/>
    <path class="cls-2" d="m197.03,112.58h2.33v1.69h.08c.43-.81,1.57-1.89,3.6-1.89,2.53,0,4.37,1.61,4.37,4.62v7.93h-2.36v-7.49c0-2.02-1.18-2.98-2.82-2.98-1.95,0-2.85,1.38-2.85,3.04v7.43h-2.36v-12.35Z"/>
    <path class="cls-2" d="m210.16,118.13c0-3.36,1.96-5.75,5.25-5.75,2.95,0,4.73,1.92,4.84,3.97h-2.27c-.23-1.04-1.16-1.97-2.43-1.97-1.9,0-3.01,1.44-3.01,3.81v1.1c0,2.34,1.17,3.84,3.02,3.84,1.48,0,2.3-.82,2.5-1.79h2.26c-.35,2.33-2.05,3.81-4.91,3.81-3.33,0-5.25-2.47-5.25-5.87v-1.15Z"/>
    <path class="cls-2" d="m222.49,119.32v-1.3c0-3.39,1.97-5.65,5.23-5.65s5.2,2.32,5.2,5.77v1.17h-8.07v.26c0,2.19,1.15,3.67,3.01,3.67,1.36,0,2.27-.68,2.62-1.78h2.29c-.41,2.02-2.03,3.69-4.96,3.69-3.27,0-5.32-2.23-5.32-5.82Zm8.1-1.75v-.04c0-1.84-1.14-3.28-2.86-3.28s-2.88,1.45-2.88,3.28v.04h5.74Z"/>
    <path class="cls-2" d="m248.49,114.32h.08v-6.22h2.37v16.84h-2.3v-1.88h-.07c-.66,1.27-1.96,2.05-3.62,2.05-3.15,0-4.86-2.32-4.86-5.81v-1.1c0-3.42,1.8-5.81,4.86-5.81,1.65,0,2.94.82,3.54,1.93Zm-6,3.96v.95c0,2.6,1.25,3.89,3,3.89,1.92,0,3.11-1.38,3.11-3.88v-.96c0-2.38-1.2-3.9-3.13-3.9-1.72,0-2.98,1.29-2.98,3.9Z"/>
    <path class="cls-2" d="m264.73,118.21v1.04c0,3.43-1.89,5.89-5.4,5.89s-5.44-2.46-5.44-5.89v-1.03c0-3.34,1.91-5.85,5.44-5.85s5.4,2.5,5.4,5.84Zm-8.46.06v.95c0,2.33,1.04,3.96,3.05,3.96s3.04-1.62,3.04-3.96v-.95c0-2.37-1.03-3.95-3.04-3.95s-3.05,1.59-3.05,3.95Z"/>
    <path class="cls-2" d="m45.47,153.66l-.32.86c-.74,1.96-1.7,3.69-4.46,3.69-.52,0-1.09-.06-1.39-.11v-1.84c.19.04.64.06.94.06,1.49,0,2.06-.68,2.37-1.88l.16-.59-4.46-12.48h2.62l3.11,9.94h.08l3.13-9.94h2.52s-4.28,12.23-4.29,12.28Z"/>
    <path class="cls-2" d="m61.8,147.01v1.04c0,3.43-1.89,5.89-5.4,5.89s-5.44-2.46-5.44-5.89v-1.03c0-3.34,1.91-5.85,5.44-5.85s5.4,2.5,5.4,5.84Zm-8.46.06v.95c0,2.33,1.04,3.96,3.05,3.96s3.04-1.62,3.04-3.96v-.95c0-2.37-1.03-3.95-3.04-3.95s-3.05,1.59-3.05,3.95Z"/>
    <path class="cls-2" d="m74.88,153.73h-2.33v-1.68h-.09c-.42.97-1.58,1.88-3.57,1.88-2.54,0-4.32-1.46-4.32-4.32v-8.23h2.37v7.57c0,2.23,1.28,2.89,2.77,2.89,1.64,0,2.82-1.04,2.82-2.93v-7.54h2.37v12.35Z"/>
    <path class="cls-2" d="m83.82,138.31h3.93v2.87h2.38v3.06h-2.38v5.12c0,1.03.55,1.41,1.62,1.41.32,0,.66-.01.79-.02v2.91c-.3.05-.95.11-1.76.11-3.26,0-4.68-.96-4.68-3.61v-5.91h-1.85v-3.06h1.96v-2.87Z"/>
    <path class="cls-2" d="m92.44,136.89h4.07v6.28h.19c.33-.9,1.42-2.18,3.54-2.18,2.48,0,4.18,1.56,4.18,4.63v8.11h-4.07v-7.12c0-1.76-.97-2.25-1.9-2.25-1.1,0-1.95.81-1.95,2.29v7.09h-4.07v-16.84Z"/>
    <path class="cls-2" d="m109.01,136.06c1.18,0,2.16.75,2.16,1.93s-.97,1.93-2.16,1.93-2.16-.74-2.16-1.93.97-1.93,2.16-1.93Zm-2.04,5.12h4.07v12.55h-4.07v-12.55Z"/>
    <path class="cls-2" d="m113.74,141.18h3.93v1.99h.2c.34-.91,1.46-2.18,3.62-2.18,2.52,0,4.18,1.56,4.18,4.63v8.11h-4.07v-7.12c0-1.76-1-2.25-1.89-2.25-1.1,0-1.92.81-1.92,2.29v7.09h-4.05v-12.55Z"/>
    <path class="cls-2" d="m132.22,153.73h-4.08v-16.84h4.08v9.09h.19l3.28-4.8h4.57l-4.24,5.39,4.55,7.16h-4.72l-2.98-4.93-.64.84v4.09Z"/>
    <path class="cls-2" d="m150.12,153.91c-2.45,0-4.15-1.39-4.15-3.8s1.59-3.77,4.52-3.79h2.85v-1c0-.91-.59-1.43-1.54-1.43s-1.56.56-1.59,1.35h-3.79c.06-2.03,1.28-4.25,5.43-4.25,3.07,0,5.48,1.24,5.48,4.43v8.31h-3.81v-1.49h-.19c-.39.83-1.37,1.66-3.22,1.66Zm3.22-4.24v-1.21h-1.69c-1.07,0-1.69.53-1.69,1.31,0,.9.77,1.37,1.59,1.37.94,0,1.78-.59,1.78-1.48Z"/>
    <path class="cls-2" d="m164.09,151.75h-.19v1.98h-4.05v-16.84h4.08v6.21h.19c.49-1.23,1.83-2.05,3.55-2.05,2.78,0,4.58,2,4.58,5.89v1c0,3.84-1.78,5.92-4.59,5.92-1.77,0-3.05-.83-3.56-2.11Zm3.95-3.91v-.76c0-1.93-.83-2.89-2.02-2.89-1.24,0-2.11.95-2.11,2.89v.76c0,1.95.87,2.92,2.11,2.92s2.02-.98,2.02-2.92Z"/>
    <path class="cls-2" d="m185.96,147.03v.74c0,3.89-2.2,6.2-6.05,6.2s-6.08-2.31-6.08-6.18v-.74c0-3.56,2.21-6.11,6.08-6.11s6.05,2.51,6.05,6.08Zm-8-.06v.95c0,1.46.43,3.05,1.95,3.05s1.93-1.57,1.93-3.05v-.95c0-1.58-.47-3.04-1.93-3.04s-1.95,1.48-1.95,3.04Z"/>
    <path class="cls-2" d="m199.83,153.73h-3.94v-1.99h-.2c-.34.96-1.46,2.17-3.62,2.17-2.52,0-4.15-1.49-4.15-4.51v-8.21h4.07v7.17c0,1.82,1.01,2.21,1.85,2.21,1.02,0,1.92-.7,1.92-2.25v-7.14h4.07v12.55Z"/>
    <path class="cls-2" d="m203.56,138.31h3.93v2.87h2.38v3.06h-2.38v5.12c0,1.03.55,1.41,1.62,1.41.32,0,.66-.01.79-.02v2.91c-.3.05-.95.11-1.76.11-3.26,0-4.68-.96-4.68-3.61v-5.91h-1.85v-3.06h1.96v-2.87Z"/>
    <path class="cls-2" d="m216.72,141.18h3.93v2.04h.21c.28-.97,1.31-2.23,3.4-2.23,1.9,0,3.04.94,3.41,2.27h.16c.35-1.04,1.63-2.27,3.8-2.27,2.53,0,3.96,1.69,3.96,4.12v8.61h-4.07v-7.35c0-1.58-.8-2.11-1.7-2.11-1.03,0-1.73.68-1.73,2.18v7.28h-3.87v-7.3c0-1.69-.86-2.16-1.72-2.16-.93,0-1.72.56-1.72,2.16v7.3h-4.05v-12.55Z"/>
    <path class="cls-2" d="m249.72,147.03v.74c0,3.89-2.2,6.2-6.05,6.2s-6.08-2.31-6.08-6.18v-.74c0-3.56,2.21-6.11,6.08-6.11s6.05,2.51,6.05,6.08Zm-8-.06v.95c0,1.46.43,3.05,1.95,3.05s1.93-1.57,1.93-3.05v-.95c0-1.58-.47-3.04-1.93-3.04s-1.95,1.48-1.95,3.04Z"/>
    <path class="cls-2" d="m251.78,141.18h4.07v1.9h.19c.21-.84,1.15-2.07,2.79-2.07.59,0,.95.04,1.2.12v3.42c-.27-.11-.86-.16-1.44-.16-1.89,0-2.6,1.08-2.6,2.75v6.6h-4.2v-12.55Z"/>
    <path class="cls-2" d="m261.02,147.87v-.93c0-4,2.61-6,5.92-6,3.54,0,5.86,2.3,5.86,6.04v1.29h-7.82v.46c0,1.45.95,2.29,2.11,2.29,1.05,0,1.88-.52,1.98-1.41h3.67c-.14,1.96-1.76,4.36-5.65,4.36-3.57,0-6.07-2.02-6.07-6.09Zm7.9-1.86c0-1.29-.76-2.21-1.95-2.21s-1.99.93-1.99,2.21h3.94Z"/>
    <path class="cls-2" d="m133.05,175.83v.74c0,3.89-2.2,6.2-6.05,6.2s-6.08-2.31-6.08-6.18v-.74c0-3.56,2.21-6.11,6.08-6.11s6.05,2.51,6.05,6.08Zm-8-.06v.95c0,1.46.43,3.05,1.95,3.05s1.93-1.57,1.93-3.05v-.95c0-1.58-.47-3.04-1.93-3.04s-1.95,1.48-1.95,3.04Z"/>
    <path class="cls-2" d="m136.07,173.04h-1.89v-3.06h1.89v-1.24c0-2.64,1.41-3.59,4.61-3.59,1.01,0,1.5.07,1.73.09v2.71c-.14-.01-.41-.04-.84-.04-1.04,0-1.57.32-1.57,1.17v.89h2.37v3.06h-2.26v9.49h-4.03v-9.49Z"/>
    <path class="cls-2" d="m145.61,167.11h3.93v2.87h2.38v3.06h-2.38v5.12c0,1.03.55,1.41,1.62,1.41.32,0,.66-.01.79-.02v2.91c-.3.05-.95.11-1.76.11-3.26,0-4.68-.96-4.68-3.61v-5.91h-1.85v-3.06h1.96v-2.87Z"/>
    <path class="cls-2" d="m153.52,176.67v-.93c0-4,2.61-6,5.92-6,3.54,0,5.86,2.3,5.86,6.04v1.29h-7.82v.46c0,1.45.95,2.29,2.11,2.29,1.05,0,1.88-.52,1.98-1.41h3.67c-.14,1.96-1.76,4.36-5.65,4.36-3.57,0-6.07-2.02-6.07-6.09Zm7.9-1.86c0-1.29-.76-2.21-1.95-2.21s-1.99.93-1.99,2.21h3.94Z"/>
    <path class="cls-2" d="m167.35,169.98h3.93v1.99h.2c.34-.91,1.46-2.18,3.62-2.18,2.52,0,4.18,1.56,4.18,4.63v8.11h-4.07v-7.12c0-1.76-1-2.25-1.89-2.25-1.1,0-1.92.81-1.92,2.29v7.09h-4.05v-12.55Z"/>
    <path class="cls-2" d="m186.13,166.17c2.51,0,4.84,1.32,4.84,4.09,0,1.97-1.17,2.93-2.29,3.8-1.35,1.04-1.85,1.44-1.85,2.78v.68h-2.24v-.91c-.06-1.7.98-2.72,2.18-3.63,1.09-.84,1.78-1.38,1.78-2.58,0-1.61-1.22-2.25-2.54-2.25-1.76,0-2.62,1.16-2.64,2.67h-2.23c-.05-3.49,2.62-4.64,4.98-4.64Zm-.36,13.72c.82,0,1.49.61,1.49,1.43s-.67,1.43-1.49,1.43-1.49-.61-1.49-1.43.67-1.43,1.49-1.43Z"/>
  </g>
</svg>