<?xml version="1.0" encoding="UTF-8"?>
<svg id="Layer_1" data-name="Layer 1" xmlns="http://www.w3.org/2000/svg" viewBox="0 0 311.81 263.14">
  <defs>
    <style>
      .cls-1 {
        fill: #fff;
        opacity: .9;
      }

      .cls-1, .cls-2 {
        stroke-width: 0px;
      }

      .cls-2 {
        fill: #231f20;
      }
    </style>
  </defs>
  <rect class="cls-1" width="311.81" height="263.14" rx="15.27" ry="15.27"/>
  <g>
    <path class="cls-2" d="m44.9,124.93l-4.35-16h2.62l2.89,12.15h.08l3.06-12.15h2.31l3.05,12.15h.08l2.89-12.15h2.62l-4.35,16h-2.18l-3.23-12.07h-.08l-3.23,12.07h-2.19Z"/>
    <path class="cls-2" d="m62.04,108.09h2.37v6.18h.08c.43-.81,1.56-1.89,3.57-1.89,2.53,0,4.38,1.61,4.38,4.62v7.93h-2.37v-7.49c0-2.02-1.17-2.98-2.82-2.98-1.96,0-2.85,1.38-2.85,3.04v7.43h-2.37v-16.84Z"/>
    <path class="cls-2" d="m76.99,108.18c.8,0,1.44.6,1.44,1.39s-.64,1.39-1.44,1.39-1.44-.6-1.44-1.39.64-1.39,1.44-1.39Zm-1.18,4.41h2.37v12.35h-2.37v-12.35Z"/>
    <path class="cls-2" d="m81.2,118.13c0-3.36,1.96-5.75,5.25-5.75,2.95,0,4.73,1.92,4.84,3.97h-2.27c-.23-1.04-1.16-1.97-2.43-1.97-1.9,0-3.01,1.44-3.01,3.81v1.1c0,2.34,1.17,3.84,3.02,3.84,1.48,0,2.3-.82,2.5-1.79h2.26c-.35,2.33-2.05,3.81-4.91,3.81-3.33,0-5.25-2.47-5.25-5.87v-1.15Z"/>
    <path class="cls-2" d="m94.07,108.09h2.37v6.18h.08c.43-.81,1.56-1.89,3.57-1.89,2.53,0,4.38,1.61,4.38,4.62v7.93h-2.37v-7.49c0-2.02-1.17-2.98-2.82-2.98-1.96,0-2.85,1.38-2.85,3.04v7.43h-2.37v-16.84Z"/>
    <path class="cls-2" d="m116.35,123h-.2v5.96h-4.08v-16.58h4.05v1.95h.2c.55-1.27,1.8-2.07,3.54-2.07,2.77,0,4.58,2.03,4.58,5.89v1c0,3.86-1.82,5.92-4.59,5.92-1.72,0-2.96-.82-3.5-2.06Zm3.89-3.97v-.75c0-1.91-.8-2.91-2.03-2.91s-2.06,1.02-2.06,2.91v.75c0,1.9.84,2.93,2.07,2.93s2.02-.98,2.02-2.93Z"/>
    <path class="cls-2" d="m126.03,119.07v-.93c0-4,2.61-6,5.92-6,3.54,0,5.86,2.3,5.86,6.04v1.29h-7.82v.46c0,1.45.95,2.29,2.11,2.29,1.05,0,1.88-.52,1.98-1.41h3.67c-.14,1.96-1.76,4.36-5.65,4.36-3.57,0-6.07-2.02-6.07-6.09Zm7.9-1.86c0-1.29-.76-2.21-1.95-2.21s-1.99.93-1.99,2.21h3.94Z"/>
    <path class="cls-2" d="m139.86,112.38h4.07v1.9h.19c.21-.84,1.15-2.07,2.79-2.07.59,0,.95.04,1.2.12v3.42c-.27-.11-.86-.16-1.44-.16-1.89,0-2.6,1.08-2.6,2.75v6.6h-4.2v-12.55Z"/>
    <path class="cls-2" d="m154.74,112.15c3.01,0,5.11,1.34,5.11,3.89h-3.53c-.09-.64-.53-1.29-1.64-1.29-.96,0-1.49.49-1.49,1.11,0,1.11,1.95,1.22,3.36,1.48,2.29.41,3.71,1.36,3.71,3.56,0,2.64-2.03,4.27-5.68,4.27s-5.51-1.66-5.51-3.89h3.94c.07.74.73,1.27,1.76,1.27s1.58-.53,1.58-1.11c0-1.02-1.61-1.11-3.08-1.42-2.17-.46-3.93-1.42-3.93-3.79,0-2.91,2.53-4.08,5.39-4.08Z"/>
    <path class="cls-2" d="m173.86,118.23v.74c0,3.89-2.2,6.2-6.05,6.2s-6.08-2.31-6.08-6.18v-.74c0-3.56,2.21-6.11,6.08-6.11s6.05,2.51,6.05,6.08Zm-8-.06v.95c0,1.46.43,3.05,1.95,3.05s1.93-1.57,1.93-3.05v-.95c0-1.58-.47-3.04-1.93-3.04s-1.95,1.48-1.95,3.04Z"/>
    <path class="cls-2" d="m175.93,112.38h3.93v1.99h.2c.34-.91,1.46-2.18,3.62-2.18,2.52,0,4.18,1.56,4.18,4.63v8.11h-4.07v-7.12c0-1.76-1-2.25-1.89-2.25-1.1,0-1.92.81-1.92,2.29v7.09h-4.05v-12.55Z"/>
    <path class="cls-2" d="m196.83,108.18c.8,0,1.44.6,1.44,1.39s-.64,1.39-1.44,1.39-1.44-.6-1.44-1.39.64-1.39,1.44-1.39Zm-1.18,4.41h2.37v12.35h-2.37v-12.35Z"/>
    <path class="cls-2" d="m205.78,112.37c2.92,0,4.5,1.59,4.5,3.73h-2.16c-.07-.89-.63-1.91-2.41-1.91-1.37,0-2.34.62-2.34,1.73,0,1.34,1.69,1.59,3.09,1.85,2.31.41,4.16,1.09,4.16,3.46,0,2.48-1.98,3.91-5.02,3.91-2.87,0-4.75-1.37-4.75-3.59h2.31c.15,1.05,1.07,1.76,2.6,1.76,1.75,0,2.54-.82,2.54-1.79,0-1.32-1.42-1.57-3.09-1.9-2.27-.47-4.14-1.22-4.14-3.47,0-2.65,2.25-3.79,4.7-3.79Z"/>
    <path class="cls-2" d="m218.11,112.58h2.33v1.59h.12c.39-.86,1.46-1.79,3.16-1.79,1.92,0,3.07.8,3.53,2.03h.11c.45-1.05,1.75-2.03,3.77-2.03,2.6,0,4.11,1.62,4.11,4.14v8.41h-2.36v-7.86c0-1.57-.88-2.62-2.5-2.62s-2.55,1.12-2.55,2.79v7.7h-2.32v-7.7c0-1.85-.97-2.79-2.52-2.79-1.41,0-2.53.95-2.53,2.77v7.72h-2.36v-12.35Z"/>
    <path class="cls-2" d="m248.95,118.21v1.04c0,3.43-1.89,5.89-5.4,5.89s-5.44-2.46-5.44-5.89v-1.03c0-3.34,1.91-5.85,5.44-5.85s5.4,2.5,5.4,5.84Zm-8.46.06v.95c0,2.33,1.04,3.96,3.05,3.96s3.04-1.62,3.04-3.96v-.95c0-2.37-1.03-3.95-3.04-3.95s-3.05,1.59-3.05,3.95Z"/>
    <path class="cls-2" d="m251.88,112.58h2.37v1.57h.08c.33-.75,1.25-1.76,2.99-1.76.3,0,.59.02.83.06v2.12c-.22-.05-.66-.07-1.05-.07-2.13,0-2.82,1.31-2.82,2.98v7.45h-2.39v-12.35Z"/>
    <path class="cls-2" d="m259.79,119.32v-1.3c0-3.39,1.97-5.65,5.23-5.65s5.2,2.32,5.2,5.77v1.17h-8.07v.26c0,2.19,1.15,3.67,3.01,3.67,1.36,0,2.27-.68,2.62-1.78h2.29c-.41,2.02-2.03,3.69-4.96,3.69-3.27,0-5.32-2.23-5.32-5.82Zm8.1-1.75v-.04c0-1.84-1.14-3.28-2.86-3.28s-2.88,1.45-2.88,3.28v.04h5.74Z"/>
    <path class="cls-2" d="m100,141.17c2.92,0,4.5,1.59,4.5,3.73h-2.16c-.07-.89-.63-1.91-2.41-1.91-1.37,0-2.34.62-2.34,1.73,0,1.34,1.69,1.59,3.09,1.85,2.31.41,4.16,1.09,4.16,3.46,0,2.48-1.98,3.91-5.02,3.91-2.87,0-4.75-1.37-4.75-3.59h2.31c.15,1.05,1.07,1.76,2.6,1.76,1.75,0,2.54-.82,2.54-1.79,0-1.32-1.42-1.57-3.09-1.9-2.27-.47-4.14-1.22-4.14-3.47,0-2.65,2.25-3.79,4.7-3.79Z"/>
    <path class="cls-2" d="m108.86,136.98c.8,0,1.44.6,1.44,1.39s-.64,1.39-1.44,1.39-1.44-.6-1.44-1.39.64-1.39,1.44-1.39Zm-1.18,4.41h2.37v12.35h-2.37v-12.35Z"/>
    <path class="cls-2" d="m121.56,153.56v-1.91h-.08c-.48,1.08-1.82,1.96-3.52,1.96-2.86,0-4.86-2.03-4.86-5.75v-.94c0-3.68,1.99-5.72,4.86-5.72,1.69,0,3.02.88,3.57,1.95h.08v-1.76h2.3v12.25c0,3.23-2.61,4.72-5.4,4.72-3.28,0-4.9-1.59-5.14-3.66h2.37c.22.96,1.22,1.79,2.79,1.79,1.85,0,3.04-1.09,3.04-2.93Zm-6.07-6.5v.74c0,2.45,1.15,3.89,3.08,3.89s2.99-1.45,2.99-3.89v-.74c0-2.4-1.17-3.89-2.99-3.89-1.93,0-3.08,1.39-3.08,3.89Z"/>
    <path class="cls-2" d="m127.37,141.38h2.33v1.69h.08c.43-.81,1.57-1.89,3.6-1.89,2.53,0,4.37,1.61,4.37,4.62v7.93h-2.36v-7.49c0-2.02-1.18-2.98-2.82-2.98-1.95,0-2.85,1.38-2.85,3.04v7.43h-2.36v-12.35Z"/>
    <path class="cls-2" d="m142.3,136.98c.8,0,1.44.6,1.44,1.39s-.64,1.39-1.44,1.39-1.44-.6-1.44-1.39.64-1.39,1.44-1.39Zm-1.18,4.41h2.37v12.35h-2.37v-12.35Z"/>
    <path class="cls-2" d="m147.86,143.3h-1.7v-1.92h1.7v-1.23c0-2.41,1.22-3.47,3.87-3.47.5,0,.83.04,1.04.07v1.83c-.18-.02-.34-.05-.67-.05-1.29,0-1.91.42-1.91,1.8v1.04h2.41v1.92h-2.39v10.43h-2.36v-10.43Z"/>
    <path class="cls-2" d="m156.71,136.98c.8,0,1.44.6,1.44,1.39s-.64,1.39-1.44,1.39-1.44-.6-1.44-1.39.64-1.39,1.44-1.39Zm-1.18,4.41h2.37v12.35h-2.37v-12.35Z"/>
    <path class="cls-2" d="m160.93,146.93c0-3.36,1.96-5.75,5.25-5.75,2.95,0,4.73,1.92,4.84,3.97h-2.27c-.23-1.04-1.16-1.97-2.43-1.97-1.9,0-3.01,1.44-3.01,3.81v1.1c0,2.34,1.17,3.84,3.02,3.84,1.48,0,2.3-.82,2.5-1.79h2.26c-.35,2.33-2.05,3.81-4.91,3.81-3.33,0-5.25-2.47-5.25-5.87v-1.15Z"/>
    <path class="cls-2" d="m177.12,153.93c-2.39,0-4.03-1.46-4.03-3.75s1.51-3.56,4.35-3.57h3.18v-1.21c0-1.5-.87-2.32-2.41-2.32s-2.32.76-2.43,1.91h-2.23c.12-2.12,1.55-3.81,4.72-3.81,2.7,0,4.7,1.39,4.7,4.09v8.46h-2.26v-1.52h-.08c-.57.96-1.68,1.72-3.5,1.72Zm3.49-4.29v-1.39h-2.85c-1.58,0-2.29.75-2.29,1.82,0,1.36,1.12,2,2.33,2,1.59,0,2.8-1,2.8-2.43Z"/>
    <path class="cls-2" d="m186.27,141.38h2.33v1.69h.08c.43-.81,1.57-1.89,3.6-1.89,2.53,0,4.37,1.61,4.37,4.62v7.93h-2.36v-7.49c0-2.02-1.18-2.98-2.82-2.98-1.95,0-2.85,1.38-2.85,3.04v7.43h-2.36v-12.35Z"/>
    <path class="cls-2" d="m200.73,138.34h2.33v3.05h2.43v1.92h-2.43v6.84c0,1.41.5,1.78,1.95,1.78.21,0,.4-.01.56-.02v1.84c-.2.04-.67.08-1.15.08-2.98,0-3.71-1.1-3.71-3.56v-6.96h-1.69v-1.92h1.71v-3.05Z"/>
    <path class="cls-2" d="m212.21,137.37c2.51,0,4.84,1.32,4.84,4.09,0,1.97-1.17,2.93-2.29,3.8-1.35,1.04-1.85,1.44-1.85,2.78v.68h-2.24v-.91c-.06-1.7.98-2.72,2.18-3.63,1.09-.84,1.78-1.38,1.78-2.58,0-1.61-1.22-2.25-2.54-2.25-1.76,0-2.62,1.16-2.64,2.67h-2.23c-.05-3.49,2.62-4.64,4.98-4.64Zm-.36,13.72c.82,0,1.49.61,1.49,1.43s-.67,1.43-1.49,1.43-1.49-.61-1.49-1.43.67-1.43,1.49-1.43Z"/>
  </g>
</svg>