<?xml version="1.0" encoding="UTF-8"?>
<svg id="Layer_1" data-name="Layer 1" xmlns="http://www.w3.org/2000/svg" viewBox="0 0 311.81 263.14">
  <defs>
    <style>
      .cls-1 {
        fill: #fff;
        opacity: .9;
      }

      .cls-1, .cls-2 {
        stroke-width: 0px;
      }

      .cls-2 {
        fill: #231f20;
      }
    </style>
  </defs>
  <rect class="cls-1" width="311.81" height="263.14" rx="15.27" ry="15.27"/>
  <g>
    <path class="cls-2" d="M38.83,123.63l-4.34-16h2.72l2.78,12.25h.12l3.05-12.25h2.32l3.02,12.25h.13l2.78-12.25h2.72l-4.35,16h-2.2l-3.21-11.93h-.12l-3.22,11.93h-2.19Z"/>
    <path class="cls-2" d="M56.63,106.44h2.36v7.03h.13c.25-.87,1.25-2.4,3.79-2.4,2.39,0,4.14,1.38,4.14,4.21v8.36h-2.37v-7.61c0-1.9-1.05-2.79-2.61-2.79-1.98,0-3.07,1.49-3.07,3.52v6.88h-2.36v-17.19Z"/>
    <path class="cls-2" d="M72.46,105.95c.97,0,1.64.66,1.64,1.57s-.67,1.56-1.64,1.56-1.61-.66-1.61-1.56.67-1.57,1.61-1.57ZM71.29,111.26h2.37v12.38h-2.37v-12.38Z"/>
    <path class="cls-2" d="M77.38,116.51c0-3.29,2-5.46,5.25-5.46s4.78,1.95,4.83,4.01h-2.26c-.12-.76-.69-1.89-2.52-1.89-1.92,0-2.93,1.32-2.93,3.4v1.76c0,2.1,1.11,3.4,2.93,3.4s2.4-.86,2.59-1.76h2.27c-.07,2.17-1.72,3.88-4.92,3.88s-5.24-2.06-5.24-5.52v-1.82Z"/>
    <path class="cls-2" d="M90.83,106.44h2.36v7.03h.13c.25-.87,1.25-2.4,3.79-2.4,2.39,0,4.14,1.38,4.14,4.21v8.36h-2.37v-7.61c0-1.9-1.05-2.79-2.61-2.79-1.98,0-3.07,1.49-3.07,3.52v6.88h-2.36v-17.19Z"/>
    <path class="cls-2" d="M114.46,121.65h-.21v6.01h-4.08v-16.58h4.05v1.99h.21c.47-1.25,1.72-2.12,3.56-2.12,2.78,0,4.55,1.99,4.55,5.77v1.25c0,3.77-1.78,5.79-4.57,5.79-1.84,0-3.04-.88-3.52-2.11ZM118.34,117.78v-.84c0-1.92-.81-2.86-2.04-2.86s-2.05.95-2.05,2.78v1.07c0,1.77.87,2.73,2.06,2.73s2.03-.93,2.03-2.87Z"/>
    <path class="cls-2" d="M124.67,117.86v-1.05c0-4.02,2.68-5.96,5.92-5.96,3.48,0,5.86,2.25,5.86,5.96v1.36h-7.82v.56c0,1.36.94,2.17,2.11,2.17,1.07,0,1.9-.52,1.96-1.3h3.69c-.07,1.77-1.65,4.27-5.62,4.27-3.61,0-6.09-1.98-6.09-6ZM132.57,115.95v-.05c0-1.32-.76-2.2-1.95-2.2s-1.99.88-1.99,2.2v.05h3.94Z"/>
    <path class="cls-2" d="M139.11,111.08h4.08v1.99h.2c.2-.87,1.12-2.17,2.88-2.17.57,0,.95.04,1.18.12v3.42c-.27-.11-.86-.16-1.44-.16-1.88,0-2.71,1.07-2.71,2.74v6.61h-4.2v-12.55Z"/>
    <path class="cls-2" d="M154.4,110.85c2.93,0,5.1,1.27,5.1,3.82h-3.53c-.08-.61-.6-1.22-1.62-1.22s-1.51.48-1.51,1.14c0,1.1,2.07,1.24,3.36,1.45,2.31.38,3.73,1.41,3.73,3.59,0,2.6-2.02,4.24-5.74,4.24s-5.46-1.64-5.46-3.87h3.94c.07.71.68,1.25,1.72,1.25,1.14,0,1.62-.52,1.62-1.17,0-1.01-1.56-1.08-3.07-1.37-2.18-.42-3.94-1.39-3.94-3.82,0-2.93,2.52-4.04,5.4-4.04Z"/>
    <path class="cls-2" d="M174.08,116.83v.94c0,3.91-2.31,6.09-6.05,6.09s-6.08-2.17-6.08-6.08v-.93c0-3.57,2.32-6.01,6.08-6.01s6.05,2.38,6.05,5.99ZM166.07,116.81v1.09c0,1.41.45,2.96,1.95,2.96s1.93-1.54,1.93-2.96v-1.09c0-1.52-.48-2.96-1.93-2.96s-1.95,1.45-1.95,2.96Z"/>
    <path class="cls-2" d="M176.7,111.08h3.94v2.14h.2c.3-.96,1.36-2.33,3.67-2.33,2.51,0,4.11,1.49,4.11,4.5v8.24h-4.05v-7.18c0-1.72-.95-2.2-1.82-2.2-1.12,0-1.98.87-1.98,2.46v6.93h-4.07v-12.55Z"/>
    <path class="cls-2" d="M199.01,105.95c.97,0,1.64.66,1.64,1.57s-.67,1.56-1.64,1.56-1.61-.66-1.61-1.56.67-1.57,1.61-1.57ZM197.84,111.26h2.37v12.38h-2.37v-12.38Z"/>
    <path class="cls-2" d="M208.67,111.04c2.68,0,4.5,1.36,4.5,3.54h-2.16c-.08-.82-.84-1.66-2.41-1.66-1.38,0-2.36.62-2.36,1.7,0,1.39,1.72,1.57,3.11,1.82,2.3.4,4.15,1.12,4.15,3.47,0,2.5-1.98,3.94-5.03,3.94-2.85,0-4.73-1.32-4.73-3.53h2.31c.15,1.01.89,1.66,2.54,1.66,1.84,0,2.6-.8,2.6-1.78,0-1.3-1.39-1.51-3.09-1.84-2.27-.46-4.12-1.08-4.12-3.52,0-2.67,2.24-3.8,4.7-3.8Z"/>
    <path class="cls-2" d="M222.24,111.26h2.34v2h.12c.28-.89,1.09-2.19,3.35-2.19,1.88,0,3.04,1,3.42,2.32h.11c.48-1.18,1.66-2.32,3.76-2.32,2.52,0,4.04,1.43,4.04,3.89v8.67h-2.37v-7.93c0-1.57-.88-2.5-2.45-2.5-1.46,0-2.59,1.08-2.59,2.73v7.7h-2.32v-7.86c0-1.61-.98-2.57-2.5-2.57s-2.55,1.04-2.55,2.71v7.72h-2.37v-12.38Z"/>
    <path class="cls-2" d="M253.62,116.61v1.63c0,3.57-2.26,5.6-5.41,5.6s-5.43-2-5.43-5.6v-1.63c0-3.38,2.26-5.57,5.43-5.57s5.41,2.09,5.41,5.57ZM245.16,116.74v1.41c0,2.1,1.07,3.63,3.06,3.63s3.02-1.52,3.02-3.63v-1.41c0-2.09-1.11-3.63-3.02-3.63s-3.06,1.55-3.06,3.63Z"/>
    <path class="cls-2" d="M257.24,111.26h2.37v1.92h.12c.29-.83,1.2-2.11,3.32-2.11.3,0,.59.04.82.07v2.25c-.21-.06-.64-.08-1.05-.08-2.12,0-3.16,1.25-3.16,2.92v7.41h-2.4v-12.38Z"/>
    <path class="cls-2" d="M265.96,118.29v-1.7c0-3.49,2.23-5.54,5.21-5.54s5.21,2.14,5.21,5.54v1.46h-8.09v.61c0,1.79,1.08,3.13,3.01,3.13,1.41,0,2.36-.66,2.55-1.42h2.37c-.18,1.42-1.68,3.47-4.9,3.47s-5.38-2.07-5.38-5.55ZM274.06,116.38v-.18c0-1.89-1.14-3.14-2.87-3.14s-2.88,1.25-2.88,3.14v.18h5.75Z"/>
    <path class="cls-2" d="M95.82,139.84c2.68,0,4.5,1.36,4.5,3.54h-2.16c-.08-.82-.84-1.66-2.41-1.66-1.38,0-2.36.62-2.36,1.7,0,1.39,1.72,1.57,3.11,1.82,2.3.4,4.15,1.12,4.15,3.47,0,2.5-1.98,3.94-5.03,3.94-2.85,0-4.73-1.32-4.73-3.53h2.31c.15,1.01.89,1.66,2.54,1.66,1.84,0,2.6-.8,2.6-1.78,0-1.3-1.39-1.51-3.09-1.84-2.27-.46-4.12-1.08-4.12-3.52,0-2.67,2.24-3.8,4.7-3.8Z"/>
    <path class="cls-2" d="M105.44,134.75c.97,0,1.64.66,1.64,1.57s-.67,1.56-1.64,1.56-1.61-.66-1.61-1.56.67-1.57,1.61-1.57ZM104.27,140.06h2.37v12.38h-2.37v-12.38Z"/>
    <path class="cls-2" d="M118.66,152.1v-1.84h-.13c-.48,1.08-1.75,1.95-3.47,1.95-2.73,0-4.83-1.96-4.83-5.32v-1.68c0-3.36,2.09-5.33,4.82-5.33,1.84,0,3.16,1.01,3.57,2.05h.11v-1.88h2.29v12.14c0,3.47-2.38,4.85-5.55,4.85s-4.8-1.62-4.96-3.48h2.37c.18.84,1.14,1.48,2.68,1.48,2.07,0,3.11-1.1,3.11-2.94ZM112.64,145.55v1.08c0,2.16,1.29,3.56,3.12,3.56s2.91-1.5,2.91-3.25v-1.68c0-1.78-1.1-3.29-2.93-3.29s-3.09,1.41-3.09,3.57Z"/>
    <path class="cls-2" d="M125.05,140.06h2.34v2.21h.12c.32-.96,1.18-2.4,3.73-2.4s4.18,1.37,4.18,4.18v8.38h-2.37v-7.63c0-1.89-1-2.77-2.55-2.77-2.05,0-3.08,1.5-3.08,3.52v6.88h-2.37v-12.38Z"/>
    <path class="cls-2" d="M140.85,134.75c.97,0,1.64.66,1.64,1.57s-.67,1.56-1.64,1.56-1.61-.66-1.61-1.56.67-1.57,1.61-1.57ZM139.68,140.06h2.37v12.38h-2.37v-12.38Z"/>
    <path class="cls-2" d="M147.42,142.13h-2.06v-2h2.06v-1.23c0-2.43,1.16-3.48,3.97-3.48.64,0,1.28.06,1.49.08v1.92c-.18-.02-.76-.06-1.11-.06-1.41,0-2.02.41-2.02,1.73v1.03h2.85v2h-2.81v10.3h-2.37v-10.3Z"/>
    <path class="cls-2" d="M157.32,134.75c.97,0,1.64.66,1.64,1.57s-.67,1.56-1.64,1.56-1.61-.66-1.61-1.56.67-1.57,1.61-1.57ZM156.15,140.06h2.37v12.38h-2.37v-12.38Z"/>
    <path class="cls-2" d="M162.25,145.31c0-3.29,2-5.46,5.25-5.46s4.78,1.95,4.83,4.01h-2.26c-.12-.76-.69-1.89-2.52-1.89-1.92,0-2.93,1.32-2.93,3.4v1.76c0,2.1,1.11,3.4,2.93,3.4s2.4-.86,2.59-1.76h2.27c-.07,2.17-1.72,3.88-4.92,3.88s-5.24-2.06-5.24-5.52v-1.82Z"/>
    <path class="cls-2" d="M174.96,148.83c0-2.18,1.51-3.66,4.36-3.66h3.18v-1.17c0-1.44-.95-2.11-2.45-2.11s-2.13.59-2.36,1.41h-2.26c.16-2.06,1.77-3.43,4.69-3.43,2.6,0,4.75,1.09,4.75,4.17v8.39h-2.26v-1.61h-.11c-.57.95-1.66,1.8-3.49,1.8-2.39,0-4.04-1.49-4.04-3.8ZM182.5,148.23v-1.34h-2.88c-1.58,0-2.26.77-2.26,1.8,0,1.31,1.12,1.93,2.36,1.93,1.57,0,2.79-1.02,2.79-2.4Z"/>
    <path class="cls-2" d="M188.82,140.06h2.34v2.21h.12c.32-.96,1.18-2.4,3.73-2.4s4.18,1.37,4.18,4.18v8.38h-2.37v-7.63c0-1.89-1-2.77-2.55-2.77-2.05,0-3.08,1.5-3.08,3.52v6.88h-2.37v-12.38Z"/>
    <path class="cls-2" d="M203.88,137.03h2.33v3.09h2.78v2h-2.78v6.63c0,1.36.49,1.73,1.93,1.73.33,0,.8-.02,1-.05v1.96c-.19.05-1.05.12-1.58.12-2.98,0-3.7-1.09-3.7-3.57v-6.82h-1.89v-2h1.91v-3.09Z"/>
    <path class="cls-2" d="M216.3,136.08c2.51,0,4.84,1.34,4.84,4.12,0,1.98-1.17,2.94-2.29,3.79-1.36,1.04-1.85,1.43-1.85,2.75v.67h-2.24v-.87c-.06-1.71.97-2.75,2.18-3.67,1.09-.82,1.78-1.36,1.78-2.53,0-1.55-1.23-2.19-2.54-2.19-1.76,0-2.64,1.14-2.64,2.59h-2.24c-.04-3.48,2.64-4.66,4.99-4.66ZM215.98,149.22c1.07,0,1.82.71,1.82,1.73s-.75,1.69-1.82,1.69c-1.01,0-1.77-.7-1.77-1.69s.76-1.73,1.77-1.73Z"/>
  </g>
</svg>