<?xml version="1.0" encoding="UTF-8"?>
<svg id="Layer_1" data-name="Layer 1" xmlns="http://www.w3.org/2000/svg" viewBox="0 0 311.81 263.14">
  <defs>
    <style>
      .cls-1 {
        fill: #fff;
        opacity: .9;
      }

      .cls-1, .cls-2 {
        stroke-width: 0px;
      }

      .cls-2 {
        fill: #231f20;
      }
    </style>
  </defs>
  <rect class="cls-1" width="311.81" height="263.14" rx="15.27" ry="15.27"/>
  <g>
    <path class="cls-2" d="M40.03,121.9l-4.35-16h2.62l2.89,12.15h.08l3.06-12.15h2.31l3.05,12.15h.08l2.89-12.15h2.62l-4.35,16h-2.18l-3.23-12.07h-.08l-3.23,12.07h-2.19Z"/>
    <path class="cls-2" d="M57.18,105.06h2.37v6.18h.08c.43-.81,1.56-1.89,3.57-1.89,2.53,0,4.38,1.61,4.38,4.62v7.93h-2.37v-7.49c0-2.02-1.17-2.98-2.82-2.98-1.96,0-2.85,1.38-2.85,3.04v7.43h-2.37v-16.84Z"/>
    <path class="cls-2" d="M72.12,105.14c.8,0,1.44.6,1.44,1.39s-.64,1.39-1.44,1.39-1.44-.6-1.44-1.39.64-1.39,1.44-1.39ZM70.93,109.55h2.37v12.35h-2.37v-12.35Z"/>
    <path class="cls-2" d="M76.34,115.09c0-3.36,1.96-5.75,5.25-5.75,2.95,0,4.73,1.92,4.84,3.97h-2.27c-.23-1.04-1.16-1.97-2.43-1.97-1.9,0-3.01,1.44-3.01,3.81v1.1c0,2.34,1.17,3.84,3.02,3.84,1.48,0,2.3-.82,2.5-1.79h2.26c-.35,2.33-2.05,3.81-4.91,3.81-3.33,0-5.25-2.47-5.25-5.87v-1.15Z"/>
    <path class="cls-2" d="M89.2,105.06h2.37v6.18h.08c.43-.81,1.56-1.89,3.57-1.89,2.53,0,4.38,1.61,4.38,4.62v7.93h-2.37v-7.49c0-2.02-1.17-2.98-2.82-2.98-1.96,0-2.85,1.38-2.85,3.04v7.43h-2.37v-16.84Z"/>
    <path class="cls-2" d="M107.12,116.29v-1.3c0-3.39,1.97-5.65,5.23-5.65s5.2,2.32,5.2,5.77v1.17h-8.07v.26c0,2.19,1.15,3.67,3.01,3.67,1.36,0,2.27-.68,2.62-1.78h2.29c-.41,2.02-2.03,3.69-4.96,3.69-3.27,0-5.32-2.23-5.32-5.82ZM115.22,114.54v-.04c0-1.84-1.14-3.28-2.86-3.28s-2.88,1.45-2.88,3.28v.04h5.74Z"/>
    <path class="cls-2" d="M118.76,109.55h2.51l3,9.71h.08l3.23-9.71h2.4l-4.38,12.35h-2.6l-4.24-12.35Z"/>
    <path class="cls-2" d="M131.18,116.29v-1.3c0-3.39,1.97-5.65,5.23-5.65s5.2,2.32,5.2,5.77v1.17h-8.07v.26c0,2.19,1.15,3.67,3.01,3.67,1.36,0,2.27-.68,2.62-1.78h2.29c-.41,2.02-2.03,3.69-4.96,3.69-3.27,0-5.32-2.23-5.32-5.82ZM139.28,114.54v-.04c0-1.84-1.14-3.28-2.86-3.28s-2.88,1.45-2.88,3.28v.04h5.74Z"/>
    <path class="cls-2" d="M144.49,109.55h2.33v1.69h.08c.43-.81,1.57-1.89,3.6-1.89,2.53,0,4.37,1.61,4.37,4.62v7.93h-2.36v-7.49c0-2.02-1.18-2.98-2.82-2.98-1.95,0-2.85,1.38-2.85,3.04v7.43h-2.36v-12.35Z"/>
    <path class="cls-2" d="M158.95,106.5h2.33v3.05h2.43v1.92h-2.43v6.84c0,1.41.5,1.78,1.95,1.78.21,0,.4-.01.56-.02v1.84c-.2.04-.67.08-1.15.08-2.98,0-3.71-1.1-3.71-3.56v-6.96h-1.69v-1.92h1.71v-3.05Z"/>
    <path class="cls-2" d="M171.29,105.06h2.37v6.18h.08c.43-.81,1.56-1.89,3.57-1.89,2.53,0,4.38,1.61,4.38,4.62v7.93h-2.37v-7.49c0-2.02-1.17-2.98-2.82-2.98-1.96,0-2.85,1.38-2.85,3.04v7.43h-2.37v-16.84Z"/>
    <path class="cls-2" d="M188.28,122.1c-2.39,0-4.03-1.46-4.03-3.75s1.51-3.56,4.35-3.57h3.18v-1.21c0-1.5-.87-2.32-2.41-2.32s-2.32.76-2.43,1.91h-2.23c.12-2.12,1.55-3.81,4.72-3.81,2.7,0,4.7,1.39,4.7,4.09v8.46h-2.26v-1.52h-.08c-.57.96-1.68,1.72-3.5,1.72ZM191.78,117.81v-1.39h-2.85c-1.58,0-2.29.75-2.29,1.82,0,1.36,1.12,2,2.33,2,1.59,0,2.8-1,2.8-2.43Z"/>
    <path class="cls-2" d="M199.91,120.21h-.08v5.93h-2.37v-16.59h2.3v1.79h.08c.69-1.17,1.96-1.98,3.62-1.98,2.77,0,4.78,2.12,4.78,5.8v1.11c0,3.64-1.98,5.81-4.85,5.81-1.59,0-2.81-.76-3.48-1.88ZM205.85,116.12v-.88c0-2.47-1.1-3.91-2.95-3.91s-3.09,1.55-3.09,3.9v.89c0,2.43,1.2,3.97,3.14,3.97,1.73,0,2.91-1.38,2.91-3.97Z"/>
    <path class="cls-2" d="M213.64,120.21h-.08v5.93h-2.37v-16.59h2.3v1.79h.08c.69-1.17,1.96-1.98,3.62-1.98,2.77,0,4.78,2.12,4.78,5.8v1.11c0,3.64-1.98,5.81-4.85,5.81-1.59,0-2.81-.76-3.48-1.88ZM219.59,116.12v-.88c0-2.47-1.1-3.91-2.95-3.91s-3.09,1.55-3.09,3.9v.89c0,2.43,1.2,3.97,3.14,3.97,1.73,0,2.91-1.38,2.91-3.97Z"/>
    <path class="cls-2" d="M224.4,116.29v-1.3c0-3.39,1.97-5.65,5.23-5.65s5.2,2.32,5.2,5.77v1.17h-8.07v.26c0,2.19,1.15,3.67,3.01,3.67,1.36,0,2.27-.68,2.62-1.78h2.29c-.41,2.02-2.03,3.69-4.96,3.69-3.27,0-5.32-2.23-5.32-5.82ZM232.5,114.54v-.04c0-1.84-1.14-3.28-2.86-3.28s-2.88,1.45-2.88,3.28v.04h5.74Z"/>
    <path class="cls-2" d="M237.71,109.55h2.33v1.69h.08c.43-.81,1.57-1.89,3.6-1.89,2.53,0,4.37,1.61,4.37,4.62v7.93h-2.36v-7.49c0-2.02-1.18-2.98-2.82-2.98-1.95,0-2.85,1.38-2.85,3.04v7.43h-2.36v-12.35Z"/>
    <path class="cls-2" d="M250.84,116.29v-1.3c0-3.39,1.97-5.65,5.23-5.65s5.2,2.32,5.2,5.77v1.17h-8.07v.26c0,2.19,1.15,3.67,3.01,3.67,1.36,0,2.27-.68,2.62-1.78h2.29c-.41,2.02-2.03,3.69-4.96,3.69-3.27,0-5.32-2.23-5.32-5.82ZM258.94,114.54v-.04c0-1.84-1.14-3.28-2.86-3.28s-2.88,1.45-2.88,3.28v.04h5.74Z"/>
    <path class="cls-2" d="M272.06,111.28h.08v-6.22h2.37v16.84h-2.3v-1.88h-.07c-.66,1.27-1.96,2.05-3.62,2.05-3.15,0-4.86-2.32-4.86-5.81v-1.1c0-3.42,1.8-5.81,4.86-5.81,1.65,0,2.94.82,3.54,1.93ZM266.06,115.24v.95c0,2.6,1.25,3.89,3,3.89,1.92,0,3.11-1.38,3.11-3.88v-.96c0-2.38-1.2-3.9-3.13-3.9-1.72,0-2.98,1.29-2.98,3.9Z"/>
    <path class="cls-2" d="M75.36,138.35h2.33v1.59h.12c.39-.86,1.46-1.79,3.16-1.79,1.92,0,3.07.8,3.53,2.03h.11c.45-1.05,1.75-2.03,3.77-2.03,2.6,0,4.11,1.62,4.11,4.14v8.41h-2.36v-7.86c0-1.57-.88-2.62-2.5-2.62s-2.55,1.12-2.55,2.79v7.7h-2.32v-7.7c0-1.85-.97-2.79-2.52-2.79-1.41,0-2.53.95-2.53,2.77v7.72h-2.36v-12.35Z"/>
    <path class="cls-2" d="M106.19,143.97v1.04c0,3.43-1.89,5.89-5.4,5.89s-5.44-2.46-5.44-5.89v-1.03c0-3.34,1.91-5.85,5.44-5.85s5.4,2.5,5.4,5.84ZM97.73,144.03v.95c0,2.33,1.04,3.96,3.05,3.96s3.04-1.62,3.04-3.96v-.95c0-2.37-1.03-3.95-3.04-3.95s-3.05,1.59-3.05,3.95Z"/>
    <path class="cls-2" d="M109.12,138.35h2.37v1.57h.08c.33-.75,1.25-1.76,2.99-1.76.3,0,.59.02.83.06v2.12c-.22-.05-.66-.07-1.05-.07-2.13,0-2.82,1.31-2.82,2.98v7.45h-2.39v-12.35Z"/>
    <path class="cls-2" d="M117.03,145.09v-1.3c0-3.39,1.97-5.65,5.23-5.65s5.2,2.32,5.2,5.77v1.17h-8.07v.26c0,2.19,1.15,3.67,3.01,3.67,1.36,0,2.27-.68,2.62-1.78h2.29c-.41,2.02-2.03,3.69-4.96,3.69-3.27,0-5.32-2.23-5.32-5.82ZM125.13,143.34v-.04c0-1.84-1.14-3.28-2.86-3.28s-2.88,1.45-2.88,3.28v.04h5.74Z"/>
    <path class="cls-2" d="M134.71,138.15h4.07v1.9h.19c.21-.84,1.15-2.07,2.79-2.07.59,0,.95.04,1.2.12v3.42c-.27-.11-.86-.16-1.44-.16-1.89,0-2.6,1.08-2.6,2.75v6.6h-4.2v-12.55Z"/>
    <path class="cls-2" d="M143.94,144.84v-.93c0-4,2.61-6,5.92-6,3.54,0,5.86,2.3,5.86,6.04v1.29h-7.82v.46c0,1.45.95,2.29,2.11,2.29,1.05,0,1.88-.52,1.98-1.41h3.67c-.14,1.96-1.76,4.36-5.65,4.36-3.57,0-6.07-2.02-6.07-6.09ZM151.84,142.98c0-1.29-.76-2.21-1.95-2.21s-1.99.93-1.99,2.21h3.94Z"/>
    <path class="cls-2" d="M157.25,143.91c0-3.55,2.23-6,5.93-6,3.41,0,5.48,2.07,5.53,4.93h-3.66c-.08-1.01-.75-1.84-1.72-1.84-1.22,0-1.98,1.12-1.98,2.92v.82c0,1.98.75,3.09,1.99,3.09s1.66-.83,1.73-1.76h3.66c-.13,3.39-2.52,4.85-5.58,4.85-3.57,0-5.91-2.21-5.91-6.15v-.87Z"/>
    <path class="cls-2" d="M170.18,144.84v-.93c0-4,2.61-6,5.92-6,3.54,0,5.86,2.3,5.86,6.04v1.29h-7.82v.46c0,1.45.95,2.29,2.11,2.29,1.05,0,1.88-.52,1.98-1.41h3.67c-.14,1.96-1.76,4.36-5.65,4.36-3.57,0-6.07-2.02-6.07-6.09ZM178.08,142.98c0-1.29-.76-2.21-1.95-2.21s-1.99.93-1.99,2.21h3.94Z"/>
    <path class="cls-2" d="M184.01,138.15h3.93v1.99h.2c.34-.91,1.46-2.18,3.62-2.18,2.52,0,4.18,1.56,4.18,4.63v8.11h-4.07v-7.12c0-1.76-1-2.25-1.89-2.25-1.1,0-1.92.81-1.92,2.29v7.09h-4.05v-12.55Z"/>
    <path class="cls-2" d="M199.48,135.28h3.93v2.87h2.38v3.06h-2.38v5.12c0,1.03.55,1.41,1.62,1.41.32,0,.66-.01.79-.02v2.91c-.3.05-.95.11-1.76.11-3.26,0-4.68-.96-4.68-3.61v-5.91h-1.85v-3.06h1.96v-2.87Z"/>
    <path class="cls-2" d="M208.16,133.86h4.07v16.84h-4.07v-16.84Z"/>
    <path class="cls-2" d="M223.15,149.97l-.32.84c-.96,2.55-2.39,4.25-6.08,4.25-.88,0-1.76-.09-2.11-.16v-2.77c.23.06.73.09,1.12.09,1.59,0,2.04-.53,2.13-1.41l.05-.23-4.09-12.45h4.48l2.03,9.25h.15l2.12-9.25h4.31s-3.71,11.61-3.8,11.82Z"/>
    <path class="cls-2" d="M232.63,134.34c2.51,0,4.84,1.32,4.84,4.09,0,1.97-1.17,2.93-2.29,3.8-1.35,1.04-1.85,1.44-1.85,2.78v.68h-2.24v-.91c-.06-1.7.98-2.72,2.18-3.63,1.09-.84,1.78-1.38,1.78-2.58,0-1.61-1.22-2.25-2.54-2.25-1.76,0-2.62,1.16-2.64,2.67h-2.23c-.05-3.49,2.62-4.64,4.98-4.64ZM232.26,148.06c.82,0,1.49.61,1.49,1.43s-.67,1.43-1.49,1.43-1.49-.61-1.49-1.43.67-1.43,1.49-1.43Z"/>
  </g>
</svg>