<?xml version="1.0" encoding="UTF-8"?>
<svg id="Layer_1" data-name="Layer 1" xmlns="http://www.w3.org/2000/svg" viewBox="0 0 311.81 263.14">
  <defs>
    <style>
      .cls-1 {
        fill: #fff;
        opacity: .9;
      }

      .cls-1, .cls-2 {
        stroke-width: 0px;
      }

      .cls-2 {
        fill: #231f20;
      }
    </style>
  </defs>
  <rect class="cls-1" width="311.81" height="263.14" rx="15.27" ry="15.27"/>
  <g>
    <path class="cls-2" d="M63.29,123.53l-3.99-14.66h2.41l2.65,11.14h.08l2.8-11.14h2.12l2.79,11.14h.08l2.65-11.14h2.41l-3.99,14.66h-2l-2.96-11.06h-.08l-2.96,11.06h-2.01Z"/>
    <path class="cls-2" d="M79.01,108.09h2.17v5.66h.08c.4-.74,1.43-1.73,3.28-1.73,2.32,0,4.02,1.47,4.02,4.23v7.27h-2.17v-6.86c0-1.85-1.07-2.73-2.59-2.73-1.79,0-2.61,1.27-2.61,2.78v6.81h-2.17v-15.44Z"/>
    <path class="cls-2" d="M92.7,108.17c.73,0,1.32.55,1.32,1.28s-.59,1.28-1.32,1.28-1.32-.55-1.32-1.28.59-1.28,1.32-1.28ZM91.62,112.21h2.17v11.32h-2.17v-11.32Z"/>
    <path class="cls-2" d="M96.57,117.29c0-3.08,1.79-5.27,4.81-5.27,2.71,0,4.34,1.76,4.44,3.64h-2.08c-.21-.96-1.06-1.8-2.22-1.8-1.74,0-2.76,1.32-2.76,3.49v1.01c0,2.15,1.07,3.52,2.77,3.52,1.35,0,2.11-.75,2.29-1.64h2.07c-.32,2.14-1.88,3.49-4.5,3.49-3.05,0-4.81-2.27-4.81-5.38v-1.05Z"/>
    <path class="cls-2" d="M108.37,108.09h2.17v5.66h.08c.4-.74,1.43-1.73,3.28-1.73,2.32,0,4.02,1.47,4.02,4.23v7.27h-2.17v-6.86c0-1.85-1.07-2.73-2.59-2.73-1.79,0-2.61,1.27-2.61,2.78v6.81h-2.17v-15.44Z"/>
    <path class="cls-2" d="M127.52,121.98h-.08v5.44h-2.17v-15.21h2.11v1.64h.08c.63-1.07,1.79-1.82,3.32-1.82,2.54,0,4.38,1.94,4.38,5.32v1.02c0,3.34-1.82,5.33-4.45,5.33-1.46,0-2.58-.7-3.19-1.72ZM132.97,118.23v-.81c0-2.27-1.01-3.59-2.71-3.59s-2.84,1.42-2.84,3.58v.82c0,2.22,1.1,3.64,2.88,3.64,1.59,0,2.66-1.27,2.66-3.64Z"/>
    <path class="cls-2" d="M137.87,108.09h2.17v5.66h.08c.4-.74,1.43-1.73,3.28-1.73,2.32,0,4.02,1.47,4.02,4.23v7.27h-2.17v-6.86c0-1.85-1.07-2.73-2.59-2.73-1.79,0-2.61,1.27-2.61,2.78v6.81h-2.17v-15.44Z"/>
    <path class="cls-2" d="M159.85,117.36v.96c0,3.15-1.73,5.4-4.95,5.4s-4.98-2.26-4.98-5.4v-.95c0-3.06,1.75-5.36,4.98-5.36s4.95,2.29,4.95,5.35ZM152.1,117.42v.87c0,2.14.96,3.63,2.79,3.63s2.78-1.48,2.78-3.63v-.87c0-2.17-.95-3.62-2.78-3.62s-2.79,1.46-2.79,3.62Z"/>
    <path class="cls-2" d="M163.3,109.42h2.14v2.79h2.22v1.76h-2.22v6.27c0,1.29.46,1.63,1.78,1.63.19,0,.37-.01.52-.02v1.69c-.18.03-.61.08-1.05.08-2.73,0-3.41-1.01-3.41-3.27v-6.38h-1.55v-1.76h1.57v-2.79Z"/>
    <path class="cls-2" d="M179.67,117.36v.96c0,3.15-1.73,5.4-4.95,5.4s-4.98-2.26-4.98-5.4v-.95c0-3.06,1.75-5.36,4.98-5.36s4.95,2.29,4.95,5.35ZM171.92,117.42v.87c0,2.14.96,3.63,2.79,3.63s2.78-1.48,2.78-3.63v-.87c0-2.17-.95-3.62-2.78-3.62s-2.79,1.46-2.79,3.62Z"/>
    <path class="cls-2" d="M186.28,118.39v-1.19c0-3.1,1.8-5.18,4.79-5.18s4.77,2.13,4.77,5.29v1.07h-7.4v.24c0,2.01,1.05,3.36,2.76,3.36,1.25,0,2.08-.62,2.41-1.63h2.09c-.38,1.85-1.86,3.38-4.54,3.38-3,0-4.88-2.04-4.88-5.34ZM193.7,116.78v-.03c0-1.69-1.04-3.01-2.62-3.01s-2.64,1.33-2.64,3.01v.03h5.26Z"/>
    <path class="cls-2" d="M196.95,112.21h2.3l2.75,8.91h.08l2.96-8.91h2.2l-4.02,11.32h-2.38l-3.89-11.32Z"/>
    <path class="cls-2" d="M218.27,117.36v.96c0,3.15-1.73,5.4-4.95,5.4s-4.98-2.26-4.98-5.4v-.95c0-3.06,1.75-5.36,4.98-5.36s4.95,2.29,4.95,5.35ZM210.51,117.42v.87c0,2.14.96,3.63,2.79,3.63s2.78-1.48,2.78-3.63v-.87c0-2.17-.95-3.62-2.78-3.62s-2.79,1.46-2.79,3.62Z"/>
    <path class="cls-2" d="M223.15,123.53h-2.17v-15.44h2.17v9h.1l4.24-4.89h2.61l-4.36,4.91,4.64,6.41h-2.62l-3.64-5.09-.97,1.07v4.02Z"/>
    <path class="cls-2" d="M231.19,118.39v-1.19c0-3.1,1.8-5.18,4.79-5.18s4.77,2.13,4.77,5.29v1.07h-7.4v.24c0,2.01,1.05,3.36,2.76,3.36,1.25,0,2.08-.62,2.41-1.63h2.09c-.38,1.85-1.86,3.38-4.54,3.38-3,0-4.88-2.04-4.88-5.34ZM238.61,116.78v-.03c0-1.69-1.04-3.01-2.62-3.01s-2.64,1.33-2.64,3.01v.03h5.26Z"/>
    <path class="cls-2" d="M247.26,112.02c2.67,0,4.12,1.46,4.12,3.42h-1.98c-.06-.82-.58-1.75-2.21-1.75-1.26,0-2.15.57-2.15,1.59,0,1.22,1.55,1.46,2.84,1.7,2.12.38,3.81,1,3.81,3.17,0,2.28-1.82,3.59-4.6,3.59-2.63,0-4.35-1.26-4.35-3.29h2.12c.14.97.98,1.61,2.38,1.61,1.6,0,2.33-.75,2.33-1.64,0-1.21-1.3-1.44-2.84-1.74-2.08-.43-3.79-1.12-3.79-3.18,0-2.43,2.06-3.47,4.31-3.47Z"/>
    <path class="cls-2" d="M61.32,138.21c2.76,0,4.68,1.22,4.68,3.57h-3.23c-.09-.59-.48-1.18-1.5-1.18-.88,0-1.36.45-1.36,1.02,0,1.02,1.78,1.12,3.08,1.35,2.1.38,3.41,1.25,3.41,3.27,0,2.42-1.86,3.91-5.21,3.91s-5.05-1.53-5.05-3.57h3.61c.06.68.67,1.16,1.61,1.16s1.45-.48,1.45-1.02c0-.93-1.47-1.02-2.83-1.3-1.99-.42-3.6-1.3-3.6-3.47,0-2.66,2.32-3.74,4.94-3.74Z"/>
    <path class="cls-2" d="M69.11,135.79h3.6v2.63h2.18v2.8h-2.18v4.69c0,.95.5,1.29,1.48,1.29.29,0,.6-.01.72-.02v2.66c-.28.04-.87.1-1.61.1-2.99,0-4.29-.88-4.29-3.31v-5.41h-1.7v-2.8h1.79v-2.63Z"/>
    <path class="cls-2" d="M76.97,138.43h3.73v1.74h.17c.19-.77,1.05-1.9,2.56-1.9.54,0,.87.03,1.1.11v3.14c-.25-.1-.79-.15-1.32-.15-1.73,0-2.38.99-2.38,2.52v6.05h-3.85v-11.5Z"/>
    <path class="cls-2" d="M96.56,143.79v.68c0,3.57-2.02,5.68-5.54,5.68s-5.58-2.12-5.58-5.66v-.68c0-3.27,2.03-5.6,5.58-5.6s5.54,2.3,5.54,5.58ZM89.22,143.73v.87c0,1.34.4,2.79,1.78,2.79s1.77-1.44,1.77-2.79v-.87c0-1.45-.43-2.78-1.77-2.78s-1.78,1.35-1.78,2.78Z"/>
    <path class="cls-2" d="M98.45,138.43h3.6v1.83h.18c.31-.84,1.34-2,3.32-2,2.31,0,3.84,1.43,3.84,4.24v7.43h-3.73v-6.53c0-1.61-.91-2.06-1.73-2.06-1.01,0-1.76.74-1.76,2.09v6.5h-3.72v-11.5Z"/>
    <path class="cls-2" d="M118.81,149.53v-1.6h-.17c-.41,1.02-1.56,1.8-3.21,1.8-2.54,0-4.19-1.87-4.19-5.48v-.49c0-3.59,1.64-5.46,4.19-5.46,1.62,0,2.8.76,3.22,1.89h.17v-1.77h3.72v11.45c0,3.32-3.15,4.29-5.76,4.29-3.64,0-5.23-1.69-5.31-3.61h3.52c.17.69.91,1.04,1.86,1.04,1.29,0,1.96-.74,1.96-2.06ZM115.1,143.82v.63c0,1.76.73,2.66,1.87,2.66s1.85-.91,1.85-2.66v-.63c0-1.74-.75-2.65-1.85-2.65s-1.87.9-1.87,2.65Z"/>
    <path class="cls-2" d="M124.43,144.56v-.85c0-3.66,2.4-5.5,5.43-5.5,3.24,0,5.37,2.11,5.37,5.53v1.18h-7.17v.42c0,1.33.87,2.09,1.93,2.09.97,0,1.72-.47,1.82-1.29h3.36c-.13,1.79-1.61,4-5.18,4-3.28,0-5.56-1.85-5.56-5.59ZM131.67,142.85c0-1.18-.7-2.03-1.78-2.03s-1.83.85-1.83,2.03h3.61Z"/>
    <path class="cls-2" d="M137.11,138.43h3.73v1.74h.17c.19-.77,1.05-1.9,2.56-1.9.54,0,.87.03,1.1.11v3.14c-.25-.1-.79-.15-1.32-.15-1.73,0-2.38.99-2.38,2.52v6.05h-3.85v-11.5Z"/>
    <path class="cls-2" d="M149.91,144.56v-.85c0-3.66,2.4-5.5,5.43-5.5,3.24,0,5.37,2.11,5.37,5.53v1.18h-7.17v.42c0,1.33.87,2.09,1.93,2.09.97,0,1.72-.47,1.82-1.29h3.36c-.13,1.79-1.61,4-5.18,4-3.28,0-5.56-1.85-5.56-5.59ZM157.15,142.85c0-1.18-.7-2.03-1.78-2.03s-1.83.85-1.83,2.03h3.61Z"/>
    <path class="cls-2" d="M162.59,138.43h3.6v1.87h.19c.26-.89,1.2-2.04,3.12-2.04,1.74,0,2.78.86,3.12,2.08h.15c.32-.96,1.49-2.08,3.48-2.08,2.32,0,3.63,1.55,3.63,3.78v7.9h-3.73v-6.74c0-1.45-.73-1.93-1.56-1.93-.95,0-1.59.62-1.59,2v6.67h-3.54v-6.69c0-1.55-.78-1.98-1.58-1.98-.85,0-1.58.52-1.58,1.98v6.69h-3.72v-11.5Z"/>
    <path class="cls-2" d="M192.84,143.79v.68c0,3.57-2.02,5.68-5.54,5.68s-5.57-2.12-5.57-5.66v-.68c0-3.27,2.03-5.6,5.57-5.6s5.54,2.3,5.54,5.58ZM185.5,143.73v.87c0,1.34.4,2.79,1.78,2.79s1.77-1.44,1.77-2.79v-.87c0-1.45-.43-2.78-1.77-2.78s-1.78,1.35-1.78,2.78Z"/>
    <path class="cls-2" d="M195.79,135.79h3.6v2.63h2.18v2.8h-2.18v4.69c0,.95.51,1.29,1.48,1.29.29,0,.6-.01.72-.02v2.66c-.28.04-.87.1-1.61.1-2.99,0-4.29-.88-4.29-3.31v-5.41h-1.7v-2.8h1.79v-2.63Z"/>
    <path class="cls-2" d="M205.63,133.73c1.08,0,1.98.69,1.98,1.77s-.89,1.77-1.98,1.77-1.98-.68-1.98-1.77.89-1.77,1.98-1.77ZM203.76,138.43h3.73v11.5h-3.73v-11.5Z"/>
    <path class="cls-2" d="M220.61,143.79v.68c0,3.57-2.02,5.68-5.54,5.68s-5.58-2.12-5.58-5.66v-.68c0-3.27,2.03-5.6,5.58-5.6s5.54,2.3,5.54,5.58ZM213.27,143.73v.87c0,1.34.4,2.79,1.78,2.79s1.77-1.44,1.77-2.79v-.87c0-1.45-.43-2.78-1.77-2.78s-1.78,1.35-1.78,2.78Z"/>
    <path class="cls-2" d="M222.5,138.43h3.6v1.83h.18c.31-.84,1.34-2,3.32-2,2.31,0,3.84,1.43,3.84,4.24v7.43h-3.73v-6.53c0-1.61-.91-2.06-1.73-2.06-1.01,0-1.76.74-1.76,2.09v6.5h-3.72v-11.5Z"/>
    <path class="cls-2" d="M240.32,138.21c2.76,0,4.68,1.22,4.68,3.57h-3.23c-.09-.59-.48-1.18-1.5-1.18-.88,0-1.37.45-1.37,1.02,0,1.02,1.78,1.12,3.08,1.35,2.09.38,3.4,1.25,3.4,3.27,0,2.42-1.86,3.91-5.21,3.91s-5.05-1.53-5.05-3.57h3.61c.06.68.67,1.16,1.61,1.16s1.45-.48,1.45-1.02c0-.93-1.47-1.02-2.82-1.3-1.99-.42-3.6-1.3-3.6-3.47,0-2.66,2.32-3.74,4.94-3.74Z"/>
    <path class="cls-2" d="M251.22,134.94c2.3,0,4.44,1.21,4.44,3.75,0,1.8-1.07,2.69-2.09,3.48-1.24.96-1.7,1.32-1.7,2.55v.62h-2.05v-.84c-.05-1.56.9-2.49,2-3.33,1-.77,1.63-1.27,1.63-2.36,0-1.47-1.12-2.06-2.33-2.06-1.61,0-2.41,1.06-2.42,2.45h-2.04c-.04-3.2,2.41-4.25,4.57-4.25ZM250.89,147.51c.75,0,1.37.56,1.37,1.31s-.61,1.31-1.37,1.31-1.36-.56-1.36-1.31.61-1.31,1.36-1.31Z"/>
  </g>
</svg>