<?xml version="1.0" encoding="UTF-8"?>
<svg id="Layer_1" data-name="Layer 1" xmlns="http://www.w3.org/2000/svg" xmlns:xlink="http://www.w3.org/1999/xlink" viewBox="0 0 311.81 476.22">
  <defs>
    <style>
      .cls-1, .cls-2 {
        fill: none;
      }

      .cls-3 {
        letter-spacing: -.02em;
      }

      .cls-4 {
        clip-path: url(#clippath);
      }

      .cls-5 {
        letter-spacing: -.02em;
      }

      .cls-6 {
        fill: #fff;
      }

      .cls-7 {
        font-family: SFPro-Regular, 'SF Pro';
        font-size: 22.76px;
        font-variation-settings: 'wdth' 100, 'opsz' 28, 'wght' 400;
      }

      .cls-8 {
        letter-spacing: 0em;
      }

      .cls-9 {
        clip-path: url(#clippath-1);
      }

      .cls-10 {
        font-family: AdelleSansDevanagari-Regular, 'Adelle Sans Devanagari';
        font-size: 148px;
      }

      .cls-2 {
        stroke: #fff;
      }
    </style>
    <clipPath id="clippath">
      <rect class="cls-1" width="311.81" height="476.22"/>
    </clipPath>
    <clipPath id="clippath-1">
      <rect class="cls-1" width="311.81" height="476.22"/>
    </clipPath>
  </defs>
  <g class="cls-4">
    <g class="cls-9">
      <path class="cls-6" d="m44.2,2.63h223.41c15.64,0,28.35,12.7,28.35,28.35v408.61c0,15.65-12.7,28.35-28.35,28.35H44.2c-15.64,0-28.35-12.7-28.35-28.35V30.97c0-15.64,12.7-28.35,28.35-28.35Z"/>
      <path class="cls-2" d="m44.2,2.63h223.41c15.64,0,28.35,12.7,28.35,28.35v408.61c0,15.65-12.7,28.35-28.35,28.35H44.2c-15.64,0-28.35-12.7-28.35-28.35V30.97c0-15.64,12.7-28.35,28.35-28.35Z"/>
    </g>
    <text class="cls-10" transform="translate(115.95 213.14)"><tspan x="0" y="0">8</tspan></text>
    <text class="cls-7" transform="translate(78.66 266.86)"><tspan x="0" y="0">Which </tspan><tspan class="cls-3" x="66.32" y="0">ev</tspan><tspan class="cls-8" x="88.1" y="0">ent is </tspan></text>
    <text class="cls-7" transform="translate(78.66 294.17)"><tspan x="0" y="0">mo</tspan><tspan class="cls-5" x="30.36" y="0">r</tspan><tspan x="36.89" y="0">e emotional?</tspan></text>
  </g>
</svg>