<?xml version="1.0" encoding="UTF-8"?>
<svg id="Layer_1" data-name="Layer 1" xmlns="http://www.w3.org/2000/svg" viewBox="0 0 311.81 263.14">
  <defs>
    <style>
      .cls-1 {
        fill: #fff;
        opacity: .9;
      }

      .cls-1, .cls-2 {
        stroke-width: 0px;
      }

      .cls-2 {
        fill: #231f20;
      }
    </style>
  </defs>
  <rect class="cls-1" width="311.81" height="263.14" rx="15.27" ry="15.27"/>
  <g>
    <path class="cls-2" d="m66.42,123.53l-3.99-14.66h2.41l2.65,11.14h.07l2.8-11.14h2.12l2.79,11.14h.08l2.65-11.14h2.41l-3.98,14.66h-2l-2.96-11.06h-.08l-2.96,11.06h-2.01Z"/>
    <path class="cls-2" d="m82.14,108.09h2.17v5.66h.08c.4-.74,1.43-1.73,3.28-1.73,2.32,0,4.02,1.47,4.02,4.23v7.27h-2.17v-6.86c0-1.85-1.07-2.73-2.59-2.73-1.79,0-2.61,1.27-2.61,2.78v6.81h-2.17v-15.44Z"/>
    <path class="cls-2" d="m95.84,108.17c.73,0,1.32.55,1.32,1.28s-.59,1.28-1.32,1.28-1.32-.55-1.32-1.28.59-1.28,1.32-1.28Zm-1.09,4.04h2.17v11.32h-2.17v-11.32Z"/>
    <path class="cls-2" d="m99.7,117.29c0-3.08,1.79-5.27,4.81-5.27,2.71,0,4.34,1.76,4.44,3.64h-2.08c-.21-.96-1.06-1.8-2.22-1.8-1.74,0-2.76,1.32-2.76,3.49v1.01c0,2.15,1.07,3.52,2.77,3.52,1.35,0,2.11-.75,2.29-1.64h2.07c-.32,2.14-1.88,3.49-4.5,3.49-3.05,0-4.81-2.27-4.81-5.38v-1.05Z"/>
    <path class="cls-2" d="m111.5,108.09h2.17v5.66h.07c.4-.74,1.43-1.73,3.28-1.73,2.32,0,4.02,1.47,4.02,4.23v7.27h-2.17v-6.86c0-1.85-1.07-2.73-2.59-2.73-1.79,0-2.61,1.27-2.61,2.78v6.81h-2.17v-15.44Z"/>
    <path class="cls-2" d="m127.92,118.39v-1.19c0-3.1,1.8-5.18,4.79-5.18s4.77,2.13,4.77,5.29v1.07h-7.4v.24c0,2.01,1.05,3.36,2.76,3.36,1.25,0,2.08-.62,2.41-1.63h2.1c-.38,1.85-1.86,3.38-4.54,3.38-3,0-4.88-2.04-4.88-5.34Zm7.42-1.6v-.03c0-1.69-1.04-3.01-2.62-3.01s-2.64,1.33-2.64,3.01v.03h5.26Z"/>
    <path class="cls-2" d="m138.59,112.21h2.3l2.75,8.91h.07l2.96-8.91h2.2l-4.02,11.32h-2.38l-3.89-11.32Z"/>
    <path class="cls-2" d="m149.98,118.39v-1.19c0-3.1,1.8-5.18,4.79-5.18s4.77,2.13,4.77,5.29v1.07h-7.4v.24c0,2.01,1.05,3.36,2.76,3.36,1.25,0,2.08-.62,2.41-1.63h2.09c-.38,1.85-1.86,3.38-4.54,3.38-3,0-4.88-2.04-4.88-5.34Zm7.42-1.6v-.03c0-1.69-1.04-3.01-2.62-3.01s-2.64,1.33-2.64,3.01v.03h5.26Z"/>
    <path class="cls-2" d="m162.18,112.21h2.14v1.55h.08c.4-.74,1.44-1.73,3.3-1.73,2.32,0,4.01,1.47,4.01,4.23v7.27h-2.16v-6.86c0-1.85-1.08-2.73-2.59-2.73-1.78,0-2.61,1.27-2.61,2.78v6.81h-2.16v-11.32Z"/>
    <path class="cls-2" d="m175.44,109.42h2.14v2.79h2.22v1.76h-2.22v6.27c0,1.29.46,1.63,1.78,1.63.19,0,.37-.01.52-.02v1.69c-.18.03-.61.08-1.05.08-2.73,0-3.4-1.01-3.4-3.27v-6.38h-1.55v-1.76h1.57v-2.79Z"/>
    <path class="cls-2" d="m193.96,113.8h.08v-5.7h2.17v15.44h-2.11v-1.72h-.06c-.6,1.16-1.79,1.88-3.32,1.88-2.89,0-4.46-2.13-4.46-5.33v-1.01c0-3.14,1.65-5.33,4.46-5.33,1.52,0,2.7.75,3.24,1.77Zm-5.5,3.63v.87c0,2.38,1.15,3.57,2.75,3.57,1.76,0,2.85-1.27,2.85-3.56v-.88c0-2.18-1.1-3.58-2.87-3.58-1.58,0-2.73,1.18-2.73,3.58Z"/>
    <path class="cls-2" d="m208.85,117.36v.96c0,3.15-1.73,5.4-4.95,5.4s-4.98-2.26-4.98-5.4v-.95c0-3.06,1.75-5.36,4.98-5.36s4.95,2.29,4.95,5.35Zm-7.76.05v.87c0,2.14.96,3.63,2.79,3.63s2.78-1.48,2.78-3.63v-.87c0-2.17-.95-3.62-2.78-3.62s-2.79,1.46-2.79,3.62Z"/>
    <path class="cls-2" d="m220.97,123.47l-.29.78c-.68,1.79-1.56,3.38-4.09,3.38-.47,0-1-.05-1.28-.1v-1.69c.17.03.59.05.86.05,1.36,0,1.89-.62,2.17-1.72l.15-.54-4.09-11.44h2.41l2.85,9.11h.07l2.87-9.11h2.31s-3.92,11.21-3.93,11.26Z"/>
    <path class="cls-2" d="m235.94,117.36v.96c0,3.15-1.73,5.4-4.95,5.4s-4.98-2.26-4.98-5.4v-.95c0-3.06,1.75-5.36,4.98-5.36s4.95,2.29,4.95,5.35Zm-7.76.05v.87c0,2.14.96,3.63,2.79,3.63s2.78-1.48,2.78-3.63v-.87c0-2.17-.95-3.62-2.78-3.62s-2.79,1.46-2.79,3.62Z"/>
    <path class="cls-2" d="m247.92,123.53h-2.14v-1.54h-.09c-.39.89-1.45,1.72-3.28,1.72-2.33,0-3.96-1.34-3.96-3.96v-7.54h2.17v6.94c0,2.04,1.17,2.65,2.54,2.65,1.5,0,2.59-.96,2.59-2.69v-6.91h2.17v11.32Z"/>
    <path class="cls-2" d="m39.91,138.61h2.17v1.44h.07c.3-.69,1.15-1.61,2.74-1.61.28,0,.54.02.76.05v1.94c-.2-.04-.6-.06-.97-.06-1.96,0-2.59,1.2-2.59,2.73v6.83h-2.19v-11.32Z"/>
    <path class="cls-2" d="m47.16,144.79v-1.19c0-3.1,1.8-5.18,4.79-5.18s4.77,2.13,4.77,5.29v1.07h-7.4v.24c0,2.01,1.05,3.36,2.76,3.36,1.25,0,2.08-.62,2.41-1.63h2.1c-.38,1.85-1.86,3.38-4.54,3.38-3,0-4.88-2.04-4.88-5.34Zm7.42-1.6v-.03c0-1.69-1.04-3.01-2.62-3.01s-2.64,1.33-2.64,3.01v.03h5.26Z"/>
    <path class="cls-2" d="m59.37,138.61h2.14v1.46h.11c.35-.78,1.34-1.64,2.9-1.64,1.76,0,2.81.73,3.23,1.86h.1c.41-.97,1.6-1.86,3.46-1.86,2.38,0,3.77,1.48,3.77,3.79v7.71h-2.16v-7.21c0-1.44-.81-2.41-2.29-2.41s-2.34,1.03-2.34,2.56v7.06h-2.13v-7.06c0-1.7-.89-2.56-2.31-2.56-1.29,0-2.32.87-2.32,2.54v7.08h-2.16v-11.32Z"/>
    <path class="cls-2" d="m77.69,144.79v-1.19c0-3.1,1.8-5.18,4.79-5.18s4.77,2.13,4.77,5.29v1.07h-7.4v.24c0,2.01,1.05,3.36,2.76,3.36,1.25,0,2.08-.62,2.41-1.63h2.1c-.38,1.85-1.86,3.38-4.54,3.38-3,0-4.88-2.04-4.88-5.34Zm7.42-1.6v-.03c0-1.69-1.04-3.01-2.62-3.01s-2.64,1.33-2.64,3.01v.03h5.26Z"/>
    <path class="cls-2" d="m89.89,138.61h2.14v1.46h.11c.35-.78,1.34-1.64,2.9-1.64,1.76,0,2.81.73,3.23,1.86h.1c.41-.97,1.6-1.86,3.46-1.86,2.38,0,3.77,1.48,3.77,3.79v7.71h-2.16v-7.21c0-1.44-.81-2.41-2.29-2.41s-2.34,1.03-2.34,2.56v7.06h-2.13v-7.06c0-1.7-.89-2.56-2.31-2.56-1.29,0-2.32.87-2.32,2.54v7.08h-2.16v-11.32Z"/>
    <path class="cls-2" d="m110.9,148.21h-.08v1.72h-2.11v-15.44h2.17v5.69h.08c.56-1.01,1.85-1.75,3.3-1.75,2.62,0,4.44,1.87,4.44,5.29v1.07c0,3.31-1.76,5.31-4.45,5.31-1.61,0-2.72-.73-3.35-1.89Zm5.6-3.51v-.86c0-2.32-1.11-3.58-2.69-3.58-1.83,0-2.94,1.25-2.94,3.58v.84c0,2.34,1.11,3.6,2.94,3.6,1.59,0,2.69-1.27,2.69-3.58Z"/>
    <path class="cls-2" d="m120.92,144.79v-1.19c0-3.1,1.8-5.18,4.79-5.18s4.77,2.13,4.77,5.29v1.07h-7.4v.24c0,2.01,1.05,3.36,2.76,3.36,1.25,0,2.08-.62,2.41-1.63h2.1c-.38,1.85-1.86,3.38-4.54,3.38-3,0-4.88-2.04-4.88-5.34Zm7.42-1.6v-.03c0-1.69-1.04-3.01-2.62-3.01s-2.64,1.33-2.64,3.01v.03h5.26Z"/>
    <path class="cls-2" d="m133.12,138.61h2.17v1.44h.08c.3-.69,1.15-1.61,2.74-1.61.28,0,.54.02.76.05v1.94c-.21-.04-.6-.06-.97-.06-1.96,0-2.59,1.2-2.59,2.73v6.83h-2.19v-11.32Z"/>
    <path class="cls-2" d="m145.22,138.61h2.14v1.46h.11c.35-.78,1.34-1.64,2.9-1.64,1.76,0,2.81.73,3.23,1.86h.1c.41-.97,1.6-1.86,3.46-1.86,2.38,0,3.77,1.48,3.77,3.79v7.71h-2.16v-7.21c0-1.44-.81-2.41-2.29-2.41s-2.34,1.03-2.34,2.56v7.06h-2.13v-7.06c0-1.7-.89-2.56-2.31-2.56-1.29,0-2.32.87-2.32,2.54v7.08h-2.16v-11.32Z"/>
    <path class="cls-2" d="m173.48,143.77v.96c0,3.15-1.73,5.4-4.95,5.4s-4.98-2.26-4.98-5.4v-.95c0-3.06,1.75-5.36,4.98-5.36s4.95,2.29,4.95,5.35Zm-7.76.05v.87c0,2.14.96,3.63,2.79,3.63s2.78-1.48,2.78-3.63v-.87c0-2.17-.95-3.62-2.78-3.62s-2.79,1.46-2.79,3.62Z"/>
    <path class="cls-2" d="m176.17,138.61h2.17v1.44h.07c.3-.69,1.15-1.61,2.74-1.61.28,0,.54.02.76.05v1.94c-.2-.04-.6-.06-.97-.06-1.96,0-2.59,1.2-2.59,2.73v6.83h-2.19v-11.32Z"/>
    <path class="cls-2" d="m183.42,144.79v-1.19c0-3.1,1.8-5.18,4.79-5.18s4.77,2.13,4.77,5.29v1.07h-7.4v.24c0,2.01,1.05,3.36,2.76,3.36,1.25,0,2.08-.62,2.41-1.63h2.1c-.38,1.85-1.86,3.38-4.54,3.38-3,0-4.88-2.04-4.88-5.34Zm7.42-1.6v-.03c0-1.69-1.04-3.01-2.62-3.01s-2.64,1.33-2.64,3.01v.03h5.26Z"/>
    <path class="cls-2" d="m198.43,138.5h3.23l2.2,8.5h.11l2.45-8.5h3.13l-3.94,11.43h-3.45l-3.73-11.43Z"/>
    <path class="cls-2" d="m212.53,134.11c.92,0,1.69.62,1.69,1.55s-.76,1.56-1.69,1.56-1.68-.62-1.68-1.56.75-1.55,1.68-1.55Zm-1.5,4.39h3.02v11.43h-3.02v-11.43Z"/>
    <path class="cls-2" d="m215.61,138.5h3.23l2.2,8.5h.11l2.45-8.5h3.12l-3.94,11.43h-3.45l-3.73-11.43Z"/>
    <path class="cls-2" d="m229.7,134.11c.92,0,1.69.62,1.69,1.55s-.76,1.56-1.69,1.56-1.68-.62-1.68-1.56.75-1.55,1.68-1.55Zm-1.5,4.39h3.02v11.43h-3.02v-11.43Z"/>
    <path class="cls-2" d="m241.17,140.19h.12v-5.69h3.03v15.44h-2.99v-1.77h-.12c-.53,1.17-1.72,1.91-3.29,1.91-2.74,0-4.33-2.05-4.33-5.39v-.95c0-3.3,1.64-5.37,4.33-5.37,1.56,0,2.75.74,3.24,1.83Zm-4.47,3.64v.77c0,2.06.96,3.07,2.28,3.07,1.41,0,2.33-1.06,2.33-3.06v-.78c0-1.94-.94-3.07-2.35-3.07-1.3,0-2.26,1.01-2.26,3.07Z"/>
    <path class="cls-2" d="m247.15,134.49h3.03v15.44h-3.03v-15.44Z"/>
    <path class="cls-2" d="m259.49,149.53l-.29.78c-.79,2.09-1.9,3.66-4.9,3.66-.66,0-1.33-.06-1.64-.13v-2.15c.19.04.63.08.96.08,1.42,0,1.88-.55,2.05-1.48l.09-.37-3.9-11.43h3.34l2.3,8.77h.12l2.36-8.77h3.2s-3.63,10.9-3.69,11.03Z"/>
    <path class="cls-2" d="m268.4,134.94c2.3,0,4.44,1.21,4.44,3.75,0,1.8-1.07,2.69-2.09,3.48-1.24.96-1.7,1.32-1.7,2.55v.62h-2.05v-.84c-.05-1.56.9-2.49,2-3.33,1-.77,1.63-1.27,1.63-2.36,0-1.47-1.12-2.06-2.33-2.06-1.61,0-2.41,1.06-2.42,2.45h-2.04c-.04-3.2,2.41-4.25,4.57-4.25Zm-.33,12.58c.75,0,1.37.56,1.37,1.31s-.61,1.31-1.37,1.31-1.36-.56-1.36-1.31.61-1.31,1.36-1.31Z"/>
  </g>
</svg>