<?xml version="1.0" encoding="UTF-8"?>
<svg id="Layer_1" data-name="Layer 1" xmlns="http://www.w3.org/2000/svg" viewBox="0 0 311.81 263.14">
  <defs>
    <style>
      .cls-1 {
        fill: #fff;
        opacity: .9;
      }

      .cls-1, .cls-2 {
        stroke-width: 0px;
      }

      .cls-2 {
        fill: #231f20;
      }
    </style>
  </defs>
  <rect class="cls-1" width="311.81" height="263.14" rx="15.27" ry="15.27"/>
  <g>
    <path class="cls-2" d="M64.61,124.93l-4.35-16h2.62l2.89,12.15h.08l3.06-12.15h2.31l3.05,12.15h.08l2.89-12.15h2.62l-4.35,16h-2.18l-3.23-12.07h-.08l-3.23,12.07h-2.19Z"/>
    <path class="cls-2" d="M81.75,108.09h2.37v6.18h.08c.43-.81,1.56-1.89,3.57-1.89,2.53,0,4.38,1.61,4.38,4.62v7.93h-2.37v-7.49c0-2.02-1.17-2.98-2.82-2.98-1.96,0-2.85,1.38-2.85,3.04v7.43h-2.37v-16.84Z"/>
    <path class="cls-2" d="M96.7,108.18c.8,0,1.44.6,1.44,1.39s-.64,1.39-1.44,1.39-1.44-.6-1.44-1.39.64-1.39,1.44-1.39ZM95.51,112.58h2.37v12.35h-2.37v-12.35Z"/>
    <path class="cls-2" d="M100.91,118.13c0-3.36,1.96-5.75,5.25-5.75,2.95,0,4.73,1.92,4.84,3.97h-2.27c-.23-1.04-1.16-1.97-2.43-1.97-1.9,0-3.01,1.44-3.01,3.81v1.1c0,2.34,1.17,3.84,3.02,3.84,1.48,0,2.3-.82,2.5-1.79h2.26c-.35,2.33-2.05,3.81-4.91,3.81-3.33,0-5.25-2.47-5.25-5.87v-1.15Z"/>
    <path class="cls-2" d="M113.78,108.09h2.37v6.18h.08c.43-.81,1.56-1.89,3.57-1.89,2.53,0,4.38,1.61,4.38,4.62v7.93h-2.37v-7.49c0-2.02-1.17-2.98-2.82-2.98-1.96,0-2.85,1.38-2.85,3.04v7.43h-2.37v-16.84Z"/>
    <path class="cls-2" d="M131.7,119.32v-1.3c0-3.39,1.97-5.65,5.23-5.65s5.2,2.32,5.2,5.77v1.17h-8.07v.26c0,2.19,1.15,3.67,3.01,3.67,1.36,0,2.27-.68,2.62-1.78h2.29c-.41,2.02-2.03,3.69-4.96,3.69-3.27,0-5.32-2.23-5.32-5.82ZM139.8,117.57v-.04c0-1.84-1.14-3.28-2.86-3.28s-2.88,1.45-2.88,3.28v.04h5.74Z"/>
    <path class="cls-2" d="M143.34,112.58h2.51l3,9.71h.08l3.23-9.71h2.4l-4.38,12.35h-2.6l-4.24-12.35Z"/>
    <path class="cls-2" d="M155.76,119.32v-1.3c0-3.39,1.97-5.65,5.23-5.65s5.2,2.32,5.2,5.77v1.17h-8.07v.26c0,2.19,1.15,3.67,3.01,3.67,1.36,0,2.27-.68,2.62-1.78h2.29c-.41,2.02-2.03,3.69-4.96,3.69-3.27,0-5.32-2.23-5.32-5.82ZM163.86,117.57v-.04c0-1.84-1.14-3.28-2.86-3.28s-2.88,1.45-2.88,3.28v.04h5.74Z"/>
    <path class="cls-2" d="M169.07,112.58h2.33v1.69h.08c.43-.81,1.57-1.89,3.6-1.89,2.53,0,4.37,1.61,4.37,4.62v7.93h-2.36v-7.49c0-2.02-1.18-2.98-2.82-2.98-1.95,0-2.85,1.38-2.85,3.04v7.43h-2.36v-12.35Z"/>
    <path class="cls-2" d="M183.53,109.54h2.33v3.05h2.43v1.92h-2.43v6.84c0,1.41.5,1.78,1.95,1.78.21,0,.4-.01.56-.02v1.84c-.2.04-.67.08-1.15.08-2.98,0-3.71-1.1-3.71-3.56v-6.96h-1.69v-1.92h1.71v-3.05Z"/>
    <path class="cls-2" d="M203.75,114.32h.08v-6.22h2.37v16.84h-2.3v-1.88h-.07c-.66,1.27-1.96,2.05-3.62,2.05-3.15,0-4.86-2.32-4.86-5.81v-1.1c0-3.42,1.8-5.81,4.86-5.81,1.65,0,2.94.82,3.54,1.93ZM197.75,118.28v.95c0,2.6,1.25,3.89,3,3.89,1.92,0,3.11-1.38,3.11-3.88v-.96c0-2.38-1.2-3.9-3.13-3.9-1.72,0-2.98,1.29-2.98,3.9Z"/>
    <path class="cls-2" d="M219.99,118.21v1.04c0,3.43-1.89,5.89-5.4,5.89s-5.44-2.46-5.44-5.89v-1.03c0-3.34,1.91-5.85,5.44-5.85s5.4,2.5,5.4,5.84ZM211.53,118.27v.95c0,2.33,1.04,3.96,3.05,3.96s3.04-1.62,3.04-3.96v-.95c0-2.37-1.03-3.95-3.04-3.95s-3.05,1.59-3.05,3.95Z"/>
    <path class="cls-2" d="M233.21,124.86l-.32.86c-.74,1.96-1.7,3.69-4.46,3.69-.52,0-1.09-.06-1.39-.11v-1.84c.19.04.64.06.94.06,1.49,0,2.06-.68,2.37-1.88l.16-.59-4.46-12.48h2.62l3.11,9.94h.08l3.13-9.94h2.52s-4.28,12.23-4.29,12.28Z"/>
    <path class="cls-2" d="M249.53,118.21v1.04c0,3.43-1.89,5.89-5.4,5.89s-5.44-2.46-5.44-5.89v-1.03c0-3.34,1.91-5.85,5.44-5.85s5.4,2.5,5.4,5.84ZM241.07,118.27v.95c0,2.33,1.04,3.96,3.05,3.96s3.04-1.62,3.04-3.96v-.95c0-2.37-1.03-3.95-3.04-3.95s-3.05,1.59-3.05,3.95Z"/>
    <path class="cls-2" d="M262.61,124.93h-2.33v-1.68h-.09c-.42.97-1.58,1.88-3.57,1.88-2.54,0-4.32-1.46-4.32-4.32v-8.23h2.37v7.57c0,2.23,1.28,2.89,2.77,2.89,1.64,0,2.82-1.04,2.82-2.93v-7.54h2.37v12.35Z"/>
    <path class="cls-2" d="M33.43,141.38h2.37v1.57h.08c.33-.75,1.25-1.76,2.99-1.76.3,0,.59.02.83.06v2.12c-.22-.05-.66-.07-1.05-.07-2.13,0-2.82,1.31-2.82,2.98v7.45h-2.39v-12.35Z"/>
    <path class="cls-2" d="M41.34,148.12v-1.3c0-3.39,1.97-5.65,5.23-5.65s5.2,2.32,5.2,5.77v1.17h-8.07v.26c0,2.19,1.15,3.67,3.01,3.67,1.36,0,2.27-.68,2.62-1.78h2.29c-.41,2.02-2.03,3.69-4.96,3.69-3.27,0-5.32-2.23-5.32-5.82ZM49.43,146.37v-.04c0-1.84-1.14-3.28-2.86-3.28s-2.88,1.45-2.88,3.28v.04h5.74Z"/>
    <path class="cls-2" d="M54.65,141.38h2.33v1.59h.12c.39-.86,1.46-1.79,3.16-1.79,1.92,0,3.07.8,3.53,2.03h.11c.45-1.05,1.75-2.03,3.77-2.03,2.6,0,4.11,1.62,4.11,4.14v8.41h-2.36v-7.86c0-1.57-.88-2.62-2.5-2.62s-2.55,1.12-2.55,2.79v7.7h-2.32v-7.7c0-1.85-.97-2.79-2.52-2.79-1.41,0-2.53.95-2.53,2.77v7.72h-2.36v-12.35Z"/>
    <path class="cls-2" d="M74.64,148.12v-1.3c0-3.39,1.97-5.65,5.23-5.65s5.2,2.32,5.2,5.77v1.17h-8.07v.26c0,2.19,1.15,3.67,3.01,3.67,1.36,0,2.27-.68,2.62-1.78h2.29c-.41,2.02-2.03,3.69-4.96,3.69-3.27,0-5.32-2.23-5.32-5.82ZM82.74,146.37v-.04c0-1.84-1.14-3.28-2.86-3.28s-2.88,1.45-2.88,3.28v.04h5.74Z"/>
    <path class="cls-2" d="M87.95,141.38h2.33v1.59h.12c.39-.86,1.46-1.79,3.16-1.79,1.92,0,3.07.8,3.53,2.03h.11c.45-1.05,1.75-2.03,3.77-2.03,2.6,0,4.11,1.62,4.11,4.14v8.41h-2.36v-7.86c0-1.57-.88-2.62-2.5-2.62s-2.55,1.12-2.55,2.79v7.7h-2.32v-7.7c0-1.85-.97-2.79-2.52-2.79-1.41,0-2.53.95-2.53,2.77v7.72h-2.36v-12.35Z"/>
    <path class="cls-2" d="M110.86,151.86h-.08v1.88h-2.3v-16.84h2.37v6.21h.08c.61-1.1,2.02-1.91,3.6-1.91,2.86,0,4.84,2.04,4.84,5.77v1.17c0,3.61-1.92,5.79-4.85,5.79-1.76,0-2.96-.8-3.66-2.06ZM116.97,148.03v-.94c0-2.53-1.21-3.9-2.93-3.9-1.99,0-3.21,1.36-3.21,3.9v.91c0,2.55,1.21,3.93,3.21,3.93,1.73,0,2.93-1.38,2.93-3.9Z"/>
    <path class="cls-2" d="M121.8,148.12v-1.3c0-3.39,1.97-5.65,5.23-5.65s5.2,2.32,5.2,5.77v1.17h-8.07v.26c0,2.19,1.15,3.67,3.01,3.67,1.36,0,2.27-.68,2.62-1.78h2.29c-.41,2.02-2.03,3.69-4.96,3.69-3.27,0-5.32-2.23-5.32-5.82ZM129.9,146.37v-.04c0-1.84-1.14-3.28-2.86-3.28s-2.88,1.45-2.88,3.28v.04h5.74Z"/>
    <path class="cls-2" d="M135.11,141.38h2.37v1.57h.08c.33-.75,1.25-1.76,2.99-1.76.3,0,.59.02.83.06v2.12c-.22-.05-.66-.07-1.05-.07-2.13,0-2.82,1.31-2.82,2.98v7.45h-2.39v-12.35Z"/>
    <path class="cls-2" d="M148.31,141.38h2.33v1.59h.12c.39-.86,1.46-1.79,3.16-1.79,1.92,0,3.07.8,3.53,2.03h.11c.45-1.05,1.75-2.03,3.77-2.03,2.6,0,4.11,1.62,4.11,4.14v8.41h-2.36v-7.86c0-1.57-.88-2.62-2.5-2.62s-2.55,1.12-2.55,2.79v7.7h-2.32v-7.7c0-1.85-.97-2.79-2.52-2.79-1.41,0-2.53.95-2.53,2.77v7.72h-2.36v-12.35Z"/>
    <path class="cls-2" d="M179.14,147.01v1.04c0,3.43-1.89,5.89-5.4,5.89s-5.44-2.46-5.44-5.89v-1.03c0-3.34,1.91-5.85,5.44-5.85s5.4,2.5,5.4,5.84ZM170.68,147.07v.95c0,2.33,1.04,3.96,3.05,3.96s3.04-1.62,3.04-3.96v-.95c0-2.37-1.03-3.95-3.04-3.95s-3.05,1.59-3.05,3.95Z"/>
    <path class="cls-2" d="M182.07,141.38h2.37v1.57h.08c.33-.75,1.25-1.76,2.99-1.76.3,0,.59.02.83.06v2.12c-.22-.05-.66-.07-1.05-.07-2.13,0-2.82,1.31-2.82,2.98v7.45h-2.39v-12.35Z"/>
    <path class="cls-2" d="M189.98,148.12v-1.3c0-3.39,1.97-5.65,5.23-5.65s5.2,2.32,5.2,5.77v1.17h-8.07v.26c0,2.19,1.15,3.67,3.01,3.67,1.36,0,2.27-.68,2.62-1.78h2.29c-.41,2.02-2.03,3.69-4.96,3.69-3.27,0-5.32-2.23-5.32-5.82ZM198.07,146.37v-.04c0-1.84-1.14-3.28-2.86-3.28s-2.88,1.45-2.88,3.28v.04h5.74Z"/>
    <path class="cls-2" d="M206.32,141.18h4.37l1.91,8.89h.15l2.2-8.89h4.24l-4.23,12.55h-4.73l-3.91-12.55Z"/>
    <path class="cls-2" d="M222.61,136.06c1.18,0,2.16.75,2.16,1.93s-.97,1.93-2.16,1.93-2.16-.74-2.16-1.93.97-1.93,2.16-1.93ZM220.57,141.18h4.07v12.55h-4.07v-12.55Z"/>
    <path class="cls-2" d="M226.07,141.18h4.37l1.91,8.89h.15l2.2-8.89h4.24l-4.23,12.55h-4.73l-3.91-12.55Z"/>
    <path class="cls-2" d="M242.36,136.06c1.18,0,2.16.75,2.16,1.93s-.97,1.93-2.16,1.93-2.16-.74-2.16-1.93.97-1.93,2.16-1.93ZM240.32,141.18h4.07v12.55h-4.07v-12.55Z"/>
    <path class="cls-2" d="M254.74,143.1h.19v-6.21h4.08v16.84h-4.05v-1.98h-.19c-.5,1.28-1.8,2.11-3.55,2.11-2.86,0-4.61-2.17-4.61-5.93v-.98c0-3.74,1.77-5.89,4.61-5.89,1.73,0,3.05.81,3.53,2.05ZM250.81,147.08v.76c0,1.97.87,2.91,2.04,2.91,1.23,0,2.09-.97,2.09-2.89v-.77c0-1.9-.87-2.89-2.1-2.89-1.16,0-2.03.94-2.03,2.89Z"/>
    <path class="cls-2" d="M261.73,136.89h4.07v16.84h-4.07v-16.84Z"/>
    <path class="cls-2" d="M276.72,153.01l-.32.84c-.96,2.55-2.39,4.25-6.08,4.25-.88,0-1.76-.09-2.11-.16v-2.77c.23.06.73.09,1.12.09,1.59,0,2.04-.53,2.13-1.41l.05-.23-4.09-12.45h4.48l2.03,9.25h.15l2.12-9.25h4.31s-3.71,11.61-3.8,11.82Z"/>
    <path class="cls-2" d="M286.93,137.46c3.04,0,5.57,1.49,5.57,4.49,0,2.11-1.24,3.01-2.39,3.75-1.38.89-1.93,1.25-1.93,2.5v.53h-3.55l-.02-.45c-.21-1.84.48-3.07,1.96-3.97,1.1-.69,1.83-1.16,1.83-2.14,0-1.09-.83-1.58-1.7-1.58-1.1,0-1.72.79-1.75,1.82h-3.68c-.19-3.47,2.65-4.93,5.67-4.93ZM286.45,150.09c1.18,0,2.16.75,2.16,1.93s-.97,1.96-2.16,1.96-2.18-.76-2.18-1.96.98-1.93,2.18-1.93Z"/>
  </g>
</svg>